<svg width="100" height="100" viewBox="0 0 100 100" fill="none" xmlns="http://www.w3.org/2000/svg">
<path d="M53 48.5135C53 35.8468 61.7674 29 72.8953 29C77.2791 29 80.314 30.027 82 30.7117L80.314 37.2162C78.6279 36.5315 76.2674 35.8468 73.5698 35.8468C67.1628 35.8468 62.1047 39.955 62.1047 48.1712C62.1047 55.7027 66.4884 60.1532 73.907 60.1532C76.2674 60.1532 79.3023 59.4685 80.6512 58.7838L82 65.2883C80.6512 65.973 76.9419 67 72.5581 67C59.407 67 53 59.1261 53 48.5135Z" fill="black"/>
<path d="M52.7189 48.4458C52.7189 59.1526 59.2048 67.0964 71.8353 67.0964C76.2731 67.0964 79.6867 66.4056 81.3936 65.3695L80.0281 58.8072C78.3213 59.498 75.5904 60.1888 73.2008 60.1888C65.6908 60.1888 61.253 55.3534 61.253 48.1004C61.253 39.8112 66.3735 35.6667 72.8594 35.6667C75.9317 35.6667 77.9799 36.3574 79.6867 37.0482L81.3936 30.4859C80.0281 29.7952 76.6145 28.759 72.1767 28.759C61.5944 28.759 52.7189 35.6667 52.7189 48.4458ZM51.012 66.4056L39.4056 29.1044H28.4819L17.2169 66.4056H25.751L28.4819 56.7349H39.0643L41.7952 66.4056H51.012ZM8 93V7H93V93H8Z" fill="#9D9D9C"/>
<path d="M35.6667 43.1591L38 51H30L32 43.1591C32.6667 41.1136 33 38.3864 33.6667 36C34.3333 38.3864 35 41.1136 35.6667 43.1591Z" fill="#9D9D9C"/>
<path d="M33.3061 35.6852C32.6122 37.7963 32.2653 40.963 31.5714 43.0741L29.4898 51.1667H37.8163L35.3878 42.7222C34.6939 40.6111 34 37.7963 33.3061 35.6852ZM28.102 57.5L25.6735 67H17L28.449 29H39.551L51 67H41.9796L38.8571 57.5H28.102Z" fill="black"/>
<path d="M93.125 93.0796V6.92041H7.875V93.0796H93.125ZM100 0V100H1V0H100Z" fill="black"/>
</svg>
