<svg width="100" height="100" viewBox="0 0 100 100" fill="none" xmlns="http://www.w3.org/2000/svg">
<path d="M65 16.5L15.5 66H80.5M80.5 66L74 59M80.5 66L75 73" stroke="black" stroke-width="5"/>
<path d="M55.9524 46.4372L53 51L48.5 42.5H58.5L55.9524 46.4372Z" fill="black"/>
<path d="M56.5 61.5C56.5 61.5 59.5 58.5 59.5 54C59.5 49.5 55.5 46 55.5 46M53 51L58.5 42.5H48.5L53 51Z" stroke="black" stroke-width="2"/>
<path d="M77.0859 82.5469L79.2188 78.625H81.9141L78.6016 84.2656L82 90H79.2734L77.0859 86.0156L74.8984 90H72.1719L75.5703 84.2656L72.2578 78.625H74.9531L77.0859 82.5469Z" fill="black"/>
</svg>
