<svg width="100" height="100" viewBox="0 0 100 100" fill="none" xmlns="http://www.w3.org/2000/svg">
<path d="M49.8772 47C40.8772 47 34.5 54.036 34.5 54.036L27.5 42.7085C27.5 42.7085 36.2983 33 49.8772 33C63.4562 33 71.6769 42 71.6769 42L64.6502 53C64.6502 53 58.8772 47 49.8772 47Z" fill="#C4C4C4"/>
<path d="M34.5 54.036L48.9999 77.5L64.6502 53C64.6502 53 58.8772 47 49.8772 47C40.8772 47 34.5 54.036 34.5 54.036Z" fill="#C4C4C4"/>
<path d="M15.1406 22.7083L48.9999 77.5M48.9999 77.5L84.0002 22.7083M48.9999 77.5L34.5 54.036M48.9999 77.5L64.6502 53M34.5 54.036C34.5 54.036 40.8772 47 49.8772 47C58.8772 47 64.6502 53 64.6502 53M34.5 54.036L27.5 42.7085C27.5 42.7085 36.2983 33 49.8772 33C63.4562 33 71.6769 42 71.6769 42L64.6502 53" stroke="black" stroke-width="4"/>
</svg>
