<?xml version="1.0" encoding="UTF-8"?>
<svg width="100" height="100" version="1.1" viewBox="0 0 100 100" xmlns="http://www.w3.org/2000/svg">
 <path d="m69.019 55.724 15.805-0.43184 6.8404 18.794-12.385 9.8288-15.805 0.43184-6.8404-18.794z" fill="#9c9c9c" stroke="#000" stroke-width="4" style="paint-order:markers fill stroke"/>
 <path d="m56.634 65.553 15.805-0.43184 12.385-9.8288" fill="#9c9c9c" stroke="#000" stroke-width="4" style="paint-order:markers fill stroke"/>
 <path d="m79.28 83.915-6.8404-18.794" fill="#9c9c9c" stroke="#000" stroke-width="4" style="paint-order:markers fill stroke"/>
 <path d="m24.412 21.718 11.83-10.49 17.321 10-3.1699 15.49-11.83 10.49-17.321-10z" fill="#9c9c9c" stroke="#000" stroke-width="4" style="paint-order:markers fill stroke"/>
 <path d="m21.242 37.208 11.83-10.49 3.1699-15.49" fill="#9c9c9c" stroke="#000" stroke-width="4" style="paint-order:markers fill stroke"/>
 <path d="m50.392 36.718-17.321-10" fill="#9c9c9c" stroke="#000" stroke-width="4" style="paint-order:markers fill stroke"/>
 <path d="m15.391 57.714a45 45 0 0 1 28.925 34.472" fill="none" stroke="#2828d7" stroke-linecap="square" stroke-width="5" style="paint-order:markers fill stroke"/>
 <path d="m6.5584 56.205 18.043-5.5182-5.1764 19.319z" fill="#2828d7" stroke="#2828d7" stroke-linecap="square" stroke-width="4" style="paint-order:markers fill stroke"/>
</svg>
