<svg width="100" height="100" viewBox="0 0 100 100" fill="none" xmlns="http://www.w3.org/2000/svg">
<mask id="path-1-inside-1" fill="white">
<path d="M10.6184 60.8555C10.6184 50.4737 14.7426 40.5171 22.0836 33.1761C29.4246 25.8351 39.3812 21.7109 49.7629 21.7109C60.1447 21.7109 70.1013 25.8351 77.4423 33.1761C84.7833 40.5171 88.9074 50.4737 88.9074 60.8554L49.7629 60.8555L10.6184 60.8555Z"/>
</mask>
<path d="M10.6184 60.8555C10.6184 50.4737 14.7426 40.5171 22.0836 33.1761C29.4246 25.8351 39.3812 21.7109 49.7629 21.7109C60.1447 21.7109 70.1013 25.8351 77.4423 33.1761C84.7833 40.5171 88.9074 50.4737 88.9074 60.8554L49.7629 60.8555L10.6184 60.8555Z" stroke="black" stroke-width="12" mask="url(#path-1-inside-1)"/>
<path d="M82.9238 60.8556C82.9238 52.0608 79.43 43.6262 73.2112 37.4074C66.9924 31.1885 58.5578 27.6948 49.763 27.6948C40.9683 27.6948 32.5337 31.1885 26.3149 37.4074C20.096 43.6262 16.6023 52.0608 16.6023 60.8556L49.763 60.8556H82.9238Z" fill="#C4C4C4"/>
<circle cx="13.5545" cy="60.8554" r="7.04754" fill="#C4C4C4" stroke="black" stroke-width="5"/>
<circle cx="86.4455" cy="60.8554" r="7.04754" fill="#C4C4C4" stroke="black" stroke-width="5"/>
<rect x="43.5242" y="53.8079" width="12.4774" height="12.4774" fill="#C4C4C4" stroke="black" stroke-width="5"/>
</svg>
