<svg width="100" height="100" viewBox="0 0 100 100" fill="none" xmlns="http://www.w3.org/2000/svg">
<path d="M57.6957 81L59 85.9565C57.1739 86.4783 55.3478 86.7391 53.5217 87L53 81.7826C54.5652 81.7826 56.1304 81.5217 57.6957 81Z" fill="black"/>
<path d="M48 82.4545L47.7273 87C45.8182 87 43.9091 86.7727 42 86.5455L43.0909 82C44.7273 82.2273 46.3636 82.4545 48 82.4545Z" fill="black"/>
<path d="M39 80.0741L37.1852 85C35.3704 84.4815 33.8148 83.7037 32 82.6667L34.3333 78C36.1481 79.037 37.4444 79.5556 39 80.0741Z" fill="black"/>
<path d="M24 69L20.3704 71.75L20.1111 72C18.8148 70.75 17.7778 69.25 17 67.5L21.6667 65C22.1852 66.5 22.963 67.75 24 69Z" fill="black"/>
<path d="M73.25 71L77 74.7143C75.75 76.1429 74.5 77.5714 73.25 79L70 74.7143C71.25 73.2857 72.25 72.1429 73.25 71Z" fill="black"/>
<path d="M13 52.7273C13 51.9091 13 51.3636 13 50.5455C13 49.1818 13 48.0909 13.2381 47H13.7143L18 47.5455C18 48.6364 17.7619 49.7273 17.7619 50.8182C17.7619 51.3636 17.7619 52.1818 17.7619 52.7273L13.2381 53L13 52.7273Z" fill="black"/>
<path d="M49 17.5C63.5 17.5 77 28.0547 81 41.9766C77.5 43.5234 74.5 46.875 74.5 51H57.5V41.9766H40.75V42.2344L23.5 30.5C29.5 22.7656 38.75 17.5 49 17.5Z" fill="#9D9D9C"/>
<path d="M53 47H46V54H53V47Z" fill="white"/>
<path d="M20 38.68C19.5385 40.12 19.0769 41.56 18.6154 43L14 41.8C14.4615 40.12 14.9231 38.44 15.6154 37L20 38.68Z" fill="black"/>
<path d="M83.9435 55.6383C86.4576 55.6383 88.7203 53.5957 88.7203 50.7872C88.7203 48.234 86.709 45.9362 83.9435 45.9362C81.4294 45.9362 79.1667 47.9787 79.1667 50.7872C79.1667 53.5957 81.4294 55.6383 83.9435 55.6383ZM45.7288 46.9574V54.3617H53.0198V46.9574H45.7288ZM58.048 59.4681H40.7006V48.234L21.8446 35.7234L5 24.4894L8.01695 20.1489L19.8333 28.0638C26.6215 18.8723 37.4322 13 49.5 13C66.596 13 81.178 25 85.452 41.0851C90.2288 41.5957 94 45.6809 94 50.7872C94 56.1489 89.9774 60.4894 84.6977 60.7447C84.6977 60.7447 84.6977 60.7447 84.6977 61L84.1949 60.7447C82.9378 60.7447 81.6808 60.4894 80.4237 59.9787C76.904 58.4468 74.3898 54.8723 74.3898 50.7872C74.3898 50.7872 74.3898 50.7872 74.3898 50.5319C74.3898 46.4468 76.904 43.1277 80.1723 41.5957C76.4011 28.0638 64.0819 17.8511 49.2486 17.8511C38.9407 17.8511 29.6384 22.7021 23.8559 30.617L40.7006 42.1064V41.8511H58.048V50.7872V59.4681Z" fill="black"/>
<path d="M78.5926 64L83 65.7778C82.2222 67.1111 81.4444 68.6667 80.4074 70L76 67.5556C76.7778 66.4444 77.5556 65.1111 78.3333 64H78.5926Z" fill="black"/>
<path d="M31 76L28 80C26.5 79 25.25 77.75 24 76.5L27.5 73C28.75 74 29.75 75 31 76Z" fill="black"/>
<path d="M66.1481 77L69 81.4074C67.4444 82.4444 65.8889 83.2222 64.0741 84L62 79.3333C63.2963 78.5556 64.8519 78.037 66.1481 77Z" fill="black"/>
<path d="M20 61.32L15.24 62.76L14.68 63C13.84 61.32 13.56 59.64 13 57.96L18.6 57C19.16 58.44 19.44 59.88 20 61.32Z" fill="black"/>
<path d="M89 51C89 53.6316 86.8947 56 84 56C81.3684 56 79 53.8947 79 51C79 48.3684 81.1053 46 84 46C86.6316 46 89 48.1053 89 51Z" fill="#9D9D9C"/>
</svg>
