<svg width="100" height="100" viewBox="0 0 100 100" fill="none" xmlns="http://www.w3.org/2000/svg">
<path d="M84 63.5C84 58.9694 83.1076 54.4832 81.3738 50.2974C79.6401 46.1117 77.0988 42.3084 73.8952 39.1048C70.6916 35.9012 66.8883 33.3599 62.7026 31.6262C58.5168 29.8924 54.0306 29 49.5 29C44.9694 29 40.4832 29.8924 36.2974 31.6262C32.1117 33.3599 28.3084 35.9012 25.1048 39.1048C21.9012 42.3084 19.3599 46.1117 17.6262 50.2974C15.8924 54.4832 15 58.9694 15 63.5L49.5 63.5H84Z" fill="#C4C4C4"/>
<path d="M84 63.5C84 58.9694 83.1076 54.4832 81.3738 50.2974C79.6401 46.1117 77.0988 42.3084 73.8952 39.1048C70.6916 35.9012 66.8883 33.3599 62.7026 31.6262C58.5168 29.8924 54.0306 29 49.5 29C44.9694 29 40.4832 29.8924 36.2974 31.6262C32.1117 33.3599 28.3084 35.9012 25.1048 39.1048C21.9012 42.3084 19.3599 46.1117 17.6262 50.2974C15.8924 54.4832 15 58.9694 15 63.5" stroke="black" stroke-width="5"/>
<circle cx="17.5" cy="63.5" r="8" fill="#C4C4C4" stroke="black" stroke-width="5"/>
<circle cx="81.5" cy="63.5" r="8" fill="#C4C4C4" stroke="black" stroke-width="5"/>
<circle cx="49.5" cy="31.5" r="8" fill="#C4C4C4" stroke="black" stroke-width="5"/>
</svg>
