<svg width="100" height="100" viewBox="0 0 100 100" fill="none" xmlns="http://www.w3.org/2000/svg">
<path d="M45 17.5C45 14.6053 47.3158 12 50.5 12C53.3947 12 56 14.3158 56 17.5C56 20.3947 53.6842 23 50.5 23C47.3158 22.7105 45 20.3947 45 17.5Z" fill="#9D9D9C"/>
<path d="M54 50H47V57H54V50Z" fill="white"/>
<path d="M84 53.72C84 71.92 68.8594 87 50 87V62.82H58.5V45.5H50V27C54.25 27 57.7031 24.64 59.2969 21C73.375 24.9 84 38.64 84 53.72Z" fill="#9D9D9C"/>
<path d="M46.4 49.9565V57.5217H53.8571V49.9565H46.4ZM50 63H41V45H50H59V63H50V63Z" fill="black"/>
<path d="M37 15H31V20H37V15Z" fill="black"/>
<path d="M16 15H10V20H16V15Z" fill="black"/>
<path d="M26 15H21V20H26V15Z" fill="black"/>
<path d="M89 53.1728C89 74.4228 71.7059 92 50.2193 92V89.3765V86.7531C68.5615 86.7531 83.7594 71.7994 83.7594 53.1728C83.7594 37.9568 73.5401 25.1019 59.6524 21.1667C58.0802 24.8395 54.4118 27.463 50.2193 27.463C44.7166 27.463 40 23.0031 40 17.2315C40 11.7222 44.4545 7 50.2193 7C55.4599 7 59.6524 10.9352 60.1765 15.9198C76.6845 20.3796 89 35.3333 89 53.1728ZM50.2193 12.2469C47.5989 12.2469 45.2406 14.3457 45.2406 17.2315C45.2406 19.8549 47.3369 22.216 50.2193 22.216C52.8396 22.216 55.1979 20.1173 55.1979 17.2315C55.1979 14.3457 53.1016 12.2469 50.2193 12.2469Z" fill="black"/>
</svg>
