<svg width="100" height="100" viewBox="0 0 100 100" fill="none" xmlns="http://www.w3.org/2000/svg">
<path d="M89 67.5C89 70.3947 86.8947 73 84 73C81.3684 73 79 70.6842 79 67.5C79 64.6053 81.1053 62 84 62C86.6316 62 89 64.6053 89 67.5Z" fill="#9D9D9C"/>
<path d="M42 37.5C43.5 41.1585 46.5 42.5 50.5 43C54.5 42.5 57.5 40.9146 59 37.5V36.5C69.25 39.4268 78 48.2195 81 58.2195C77.5 59.6829 75 63.0976 75 67H59H41.75L25 67.5C25 63.5976 22.75 59.9634 19.5 58.5C22.5 48.2561 31.25 39.6707 41.5 36.5C41.5 36.7439 42 37.5 42 37.5Z" fill="#9D9D9C"/>
<path d="M84.25 62.5801C81.75 62.5801 79.5 64.5691 79.5 67.3039C79.5 69.7901 81.5 72.0276 84.25 72.0276C86.75 72.0276 89 70.0387 89 67.3039C89 64.8177 86.75 62.5801 84.25 62.5801ZM94 67.3039C94 72.5249 89.75 77 84.25 77C79 77 74.5 72.7735 74.5 67.3039C74.5 63.326 77 59.8453 80.5 58.3536C77.5 48.1602 69.25 39.9558 59 36.9724C59.5 35.9779 59.75 34.9834 59.75 33.7403C59.75 33.2431 59.75 32.4972 59.5 32C72.25 35.4807 82.25 45.4254 85.5 57.8564C90.25 58.3536 94 62.3315 94 67.3039Z" fill="black"/>
<path d="M54.7297 33.3514C54.7297 33.9459 54.7297 34.8378 54.4595 35.4324C53.6487 37.5135 51.7568 39 49.8649 39C47.973 39 45.8108 37.5135 45.2703 35.4324C45 34.8378 45 34.2432 45 33.3514C45 32.7568 45 32.1622 45.2703 31.5676C46.0811 29.4865 47.973 28 50.1351 28C52.2973 28 54.1892 29.4865 55 31.5676C54.4595 31.8649 54.7297 32.7568 54.7297 33.3514Z" fill="#9D9D9C"/>
<path d="M45.9351 31.8961C45.6883 32.3896 45.6883 32.8831 45.6883 33.3766C45.6883 33.8701 45.6883 34.6104 45.9351 35.1039C46.6753 36.8312 48.4026 38.0649 50.1299 38.0649C51.8572 38.0649 53.8312 36.8312 54.3247 35.1039C54.5714 34.6104 54.5714 33.8701 54.5714 33.3766C54.5714 32.8831 54.5714 32.3896 54.3247 31.8961C53.5844 30.1688 51.8572 28.9351 49.8831 28.9351C48.4026 28.9351 46.6753 30.1688 45.9351 31.8961ZM41.4935 30.4156C42.7273 26.7143 46.4286 24 50.3766 24C54.3247 24 58.026 26.4675 59.2597 30.4156C59.5065 30.9091 59.5065 31.4026 59.7533 31.8961C59.7533 32.3896 60 33.1299 60 33.6234C60 34.8571 59.7533 35.8442 59.2597 36.8312C59.2597 37.0779 59.2597 37.0779 59.2597 37.0779C58.026 40.5325 54.3247 43 50.3766 43C46.4286 43 42.974 40.5325 41.4935 37.0779V36.8312C41 35.8442 41 34.8571 41 33.6234C41 33.1299 41 32.5 41 32C41 31.5 41.2468 30.9091 41.4935 30.4156Z" fill="black"/>
<path d="M16 72C13.3684 72 11 69.8947 11 67C11 64.3684 13.1053 62 16 62C18.8947 62 21 64.1053 21 67C21 69.6316 18.8947 72 16 72Z" fill="#9D9D9C"/>
<path d="M14.9362 57.7143C18.4113 45.1044 28.5887 35.2143 41 32C41 32.4945 41 33.0055 41 33.5C41 34.7363 41.2518 36.011 41.5 37C31.3227 39.967 22.6312 48.0714 19.6525 58.456C23.1277 59.9396 25.3617 63.4011 25.3617 67.3571C25.3617 72.5494 21.1418 77 15.6809 77C10.4681 77 6 72.7967 6 67.3571C6.49645 62.1648 10.2199 58.2088 14.9362 57.7143ZM15.9291 71.8077C18.4113 71.8077 20.6454 69.8297 20.6454 67.1099C20.6454 64.6374 18.6596 62.4121 15.9291 62.4121C13.1986 62.4121 11.2128 64.3901 11.2128 67.1099C11.461 69.5824 13.4468 71.8077 15.9291 71.8077Z" fill="black"/>
</svg>
