<svg width="100" height="100" viewBox="0 0 100 100" fill="none" xmlns="http://www.w3.org/2000/svg">
<path d="M89 36L89.5 55.5L73 64.5V45.8364L89 36Z" fill="#9D9D9C"/>
<path d="M87 32.5L71 42L54.5 33L70.3798 23L87 32.5Z" fill="#9D9D9C"/>
<path d="M52.5 36.5L68.5 45.5V64.5L52.5 55V52.5V36.5Z" fill="#9D9D9C"/>
<path d="M27.5417 40.436V25.158L14.25 32.9183L27.5417 40.436ZM50.2583 29.7657L65.9667 20.7929L50.2583 11.8202L34.7917 20.7929L50.2583 29.7657ZM73.2167 63.9591L88.925 54.9864V36.7984L73.2167 46.0136V63.9591V63.9591ZM73.2167 69.7793V87.9673L88.925 78.9946V60.8065L73.2167 69.7793ZM86.5083 32.6758L70.8 23.4605L55.0917 32.6758L70.8 41.891L86.5083 32.6758ZM68.3833 63.9591V45.7711L52.675 36.5559V52.3188V54.9864L68.3833 63.9591ZM68.3833 72.4469V69.7793L65.9667 68.3243L52.675 60.564L50.2583 59.109L49.05 58.3815L47.8417 57.654V56.4414V54.9864V52.3188V48.6812V37.0409V34.1308L45.425 32.6758L32.1333 24.9155V38.4959V40.1935V43.1035V44.5586V46.0136V48.6812L29.7167 47.2262L28.75 46.7412L28.5083 46.4986L27.3 45.7711L11.5917 36.7984V54.9864L27.3 64.2016L28.75 65.1717L29.7167 65.6567L32.1333 67.1117L34.55 68.5668L35.275 69.0518L47.8417 76.327L48.5667 76.812L50.2583 77.782L52.675 79.2371L55.0917 80.6921H55.3333L68.3833 88.2098V72.4469V72.4469ZM50.5 6L71.0417 17.8828L91.5833 29.7657L94 31.2207V34.1308V55.2289V57.8965V81.6621L71.0417 95L50.5 83.1172L48.0833 81.6621L29.9583 71.2343L27.5417 69.7793L7 57.8965V31.2207L27.5417 19.3379L29.9583 17.8828L50.5 6Z" fill="black"/>
</svg>
