<svg width="100" height="100" viewBox="0 0 100 100" fill="none" xmlns="http://www.w3.org/2000/svg">
<path d="M50.149 11.5C71.0118 11.5 89 29.7647 89 50.6471C89 71.5294 71.0118 89 50.149 89C29.2863 89 11.5 71.2353 11.5 50.6471C11.5 30.0588 28.9882 11.5 50.149 11.5ZM41.8039 69.5L62 49.5L41.8039 30.0588L39.5 33L55.5 49.5L39.5 66.5L41.8039 69.5Z" fill="#9D9D9C"/>
<path d="M11.9661 50.2973C11.9661 71.1081 28.9695 88.3513 50.1491 88.3513C71.3288 88.3513 88.0339 71.1081 88.0339 50.2973C88.0339 29.4865 71.0305 12.2432 50.1491 12.2432C29.2678 12.2432 11.9661 29.1892 11.9661 50.2973ZM50.1491 94C25.9864 94 6 74.3784 6 50C6 25.9189 25.6881 6 50.1491 6C74.3119 6 94 25.6216 94 50C94 74.3784 74.3119 94 50.1491 94Z" fill="black"/>
<path d="M42.1667 29L63 49.8511L42.1667 71L38 66.8298L54.6667 49.8511L38 33.1702L42.1667 29Z" fill="black"/>
</svg>
