<svg width="100" height="100" viewBox="0 0 100 100" fill="none" xmlns="http://www.w3.org/2000/svg">
<path d="M84.5 33.5V70L79.7727 67.7323L81.1818 65.1811L77 63L75.5 65.1811L70.5 62L71.7144 59.7953L68 57.5L66.5 60L61.7364 56.9606V55.5L59.5 53L60 56L53 51.8583L84.5 33.5Z" fill="#9D9D9C"/>
<path d="M82 65.4231L80.4615 67.8462L78.9231 70L74 67.5769L75.5385 65.1538L77.0769 63L82 65.4231Z" fill="black"/>
<path d="M82 29L50 47V42H52.9091V37H50V31.8125H52.9091V26.4688H50V21H53L52.9091 16.0625H50V10.5L82 29Z" fill="#9D9D9C"/>
<path d="M72 59.6667L70.6538 62.3333L69.3077 65L65 62.037L66.3462 59.6667L67.6923 57L72 59.6667Z" fill="black"/>
<path d="M63 54.963L61.7037 57.3333L60.4074 60L56 57.3333L57.2963 54.6667L58.5926 52L63 54.963Z" fill="black"/>
<path d="M53 37V42H50.5H48V37H50.5H53Z" fill="black"/>
<path d="M53 26V32H50.5H48V26H50.5H53Z" fill="black"/>
<path d="M53 16V21H50.5H48V16H50.5H53Z" fill="black"/>
<path d="M41.9231 52L45 57.3333L40.0769 60L37 54.963L41.9231 52Z" fill="black"/>
<path d="M32.3077 57L35 62.037L30.6923 65L28 59.6667L32.3077 57Z" fill="black"/>
<path d="M23.3077 63L26 67.5769L21.6923 70L19 65.4231L23.3077 63Z" fill="black"/>
<path d="M90 27V73L50.1424 96L10 73.2839V27L50.1424 4L90 27ZM84.3061 69.8765V33.8148L52.9893 51.9877V88.3333L84.3061 69.8765ZM50.1424 46.8765L81.4591 28.7037L50.1424 10.5309L18.5409 28.7037L50.1424 46.8765ZM47.2954 88.0494V51.7037L15.694 33.8148V70.1605L47.2954 88.0494Z" fill="black"/>
</svg>
