<svg width="100" height="100" viewBox="0 0 100 100" fill="none" xmlns="http://www.w3.org/2000/svg">
<path d="M90 27V73L50.1424 96L10 73.2839V27L50.1424 4L90 27ZM84.3061 69.8765V33.8148L52.9893 51.9877V88.3333L84.3061 69.8765ZM50.1424 46.8765L81.4591 28.7037L50.1424 10.5309L18.5409 28.7037L50.1424 46.8765ZM47.2954 88.0494V51.7037L15.694 33.8148V70.1605L47.2954 88.0494Z" fill="black"/>
<path d="M84 70L53 88V52L56.9455 54.5313L55.5364 57.0625L60.3273 59.5938L61.7364 57.0625L66.2455 59.875L64.8364 62.125L69.3455 64.9375L70.7545 62.4063L75.2636 64.9375L73.8545 67.4688L78.3636 70L79.7727 67.75L84 70Z" fill="white"/>
<path d="M84 34V70L79.7727 67.7323L81.1818 65.1811L76.6727 62.6299L75.2636 64.8976L70.7545 62.3465L72.1636 59.7953L67.6545 57.2441L66.2455 59.7953L61.7364 56.9606L63.1455 54.6929L58.3545 51.8583L56.9455 54.4094L53 51.8583L84 34Z" fill="#9D9D9C"/>
<path d="M82 65.4231L80.4615 67.8462L78.9231 70L74 67.5769L75.5385 65.1538L77.0769 63L82 65.4231Z" fill="black"/>
<path d="M82 29L50 47V42.2187H52.9091V36.875H50V31.8125H52.9091V26.4688H50V21.125H52.9091V16.0625H50V11L82 29Z" fill="#9D9D9C"/>
<path d="M72 59.6667L70.6538 62.3333L69.3077 65L65 62.037L66.3462 59.6667L67.6923 57L72 59.6667Z" fill="black"/>
<path d="M63 54.963L61.7037 57.3333L60.4074 60L56 57.3333L57.2963 54.6667L58.5926 52L63 54.963Z" fill="black"/>
<path d="M53 37V42H50.5H48V37H50.5H53Z" fill="black"/>
<path d="M53 26V32H50.5H48V26H50.5H53Z" fill="black"/>
<path d="M53 16V21H50.5H48V16H50.5H53Z" fill="black"/>
<path d="M50 42.2187V47L19 29L50 11V16.0625H47.2072V21.125H50V26.4688H47.2072V31.8125H50V36.875H47.2072V42.2187H50Z" fill="white"/>
<path d="M48 51.8115V88L16 69.9058V34L48 51.8115ZM45.1171 56.9005L42.2342 52.0942L37.6216 54.6387L40.5045 59.445L45.1171 56.9005ZM35.6036 61.9895L32.7207 57.1833L28.1081 59.7278L30.991 64.534L35.6036 61.9895ZM26.3784 67.3613L23.4955 62.555L18.8829 65.0995L21.7658 69.9058L26.3784 67.3613Z" fill="white"/>
<path d="M41.9231 52L45 57.3333L40.0769 60L37 54.963L41.9231 52Z" fill="black"/>
<path d="M32.3077 57L35 62.037L30.6923 65L28 59.6667L32.3077 57Z" fill="black"/>
<path d="M23.3077 63L26 67.5769L21.6923 70L19 65.4231L23.3077 63Z" fill="black"/>
</svg>
