<svg width="100" height="100" viewBox="0 0 100 100" fill="none" xmlns="http://www.w3.org/2000/svg">
<path d="M50.1373 15C69.3529 15 86.5 30.6471 86.5 50.1373C86.5 69.6274 69.0784 86 49.8627 86C30.6471 86 15 69.3529 15 50.1373C15 30.9216 30.6471 15 50.1373 15Z" fill="#9D9D9C"/>
<path d="M85.5085 50.6373C85.5085 31.4169 69.8576 15.4915 50.6373 15.4915C31.4169 15.4915 15.4915 31.1424 15.4915 50.6373C15.4915 70.1322 31.1424 85.5085 50.6373 85.5085C70.1322 85.5085 85.5085 69.8576 85.5085 50.6373ZM50.6373 10C72.878 10 91 28.122 91 50.6373C91 72.878 72.878 91 50.6373 91C28.3966 91 10 72.878 10 50.3627C10 28.122 28.122 10 50.6373 10Z" fill="black"/>
<path d="M50.1382 54.0081L36.8699 67L33 63.1301L45.9919 50.1382L33 36.8699L36.8699 33L50.1382 45.9919L63.1301 33L67 36.8699L54.0081 50.1382L67 63.1301L65.065 65.065L63.1301 67L50.1382 54.0081Z" fill="black"/>
</svg>
