<svg width="100" height="100" viewBox="0 0 100 100" fill="none" xmlns="http://www.w3.org/2000/svg">
<path d="M66.2431 66.2431L68.3294 64.1569L54.3216 50.149L68.3294 36.1412L64.1569 31.6706L50.149 45.6784L36.1412 31.6706L31.9686 35.8431L45.9765 49.851L31.6706 64.1569L35.8431 68.3294L49.851 54.3216L63.8588 68.3294L66.2431 66.2431ZM50.149 12C71.0118 12 88 28.9882 88 50.149C88 71.3098 71.0118 88 50.149 88C29.2863 88 12 71.0118 12 50.149C12 29.2863 28.9882 12 50.149 12Z" fill="#9D9D9C"/>
<path d="M88.1017 50.6475C88.1017 30.0034 71.2915 12.8983 50.6475 12.8983C30.0034 12.8983 12.8983 29.7085 12.8983 50.6475C12.8983 71.5864 29.7085 88.1017 50.6475 88.1017C71.5864 88.1017 88.1017 71.2915 88.1017 50.6475ZM50.6475 7C74.5356 7 94 26.4644 94 50.6475C94 74.5356 74.5356 94 50.6475 94C26.7593 94 7 74.5356 7 50.3525C7 26.4644 26.4644 7 50.6475 7Z" fill="black"/>
<path d="M50.1463 54.2439L36.0976 68L32 63.9024L45.7561 50.1463L32 36.0976L36.0976 32L50.1463 45.7561L63.9024 32L68 36.0976L54.2439 50.1463L68 63.9024L65.9512 65.9512L63.9024 68L50.1463 54.2439Z" fill="black"/>
</svg>
