<svg width="100" height="100" viewBox="0 0 100 100" fill="none" xmlns="http://www.w3.org/2000/svg">
<path d="M83.5 47.5L84 69.5L53 88V65.4255L83.5 47.5Z" fill="#9D9D9C"/>
<path d="M72.2041 27L82 42.2927L50.9796 60L42 44.439L72.2041 27Z" fill="white"/>
<path d="M69 23L38.5 41.5L20 29.5686L50.1017 12L69 23Z" fill="#9D9D9C"/>
<path d="M48 64.5236V88L17 69.2408V34L36.5496 44.822L48 64.5236Z" fill="#9D9D9C"/>
<path d="M83.266 69.5323V48.1723L53.2305 65.6985V87.0585L83.266 69.5323ZM38.4858 40.2308L68.5213 22.9785L50.5 12.2985L20.4645 29.8246L38.4858 40.2308ZM72.617 26.8123L42.0355 44.3385L51.3191 60.2215L82.4468 42.4215L72.617 26.8123ZM50.5 95L12 72.8185V28.1815L50.5 6L69.6135 17.2277L70.1596 17.5015L72.0709 18.5969L75.3475 20.5138L75.6206 20.7877L89 42.1477V43.5169V47.3508V50.9108V72.8185L50.5 95ZM47.7695 64.8769L36.5745 45.4338L17.461 34.48V69.5323L47.7695 87.0585V64.8769V64.8769Z" fill="black"/>
</svg>
