<svg width="100" height="100" viewBox="0 0 100 100" fill="none" xmlns="http://www.w3.org/2000/svg">
<path d="M13 31.5C13 28.6053 15.5263 26 19 26C22.4737 26 25 28.3158 25 31.5C25 34.3947 22.4737 37 19 37C15.5263 37 13 34.3947 13 31.5Z" fill="#9D9D9C"/>
<path d="M16.8278 40.576C17.3541 40.576 18.3231 40.576 19.1126 40.576C24.6387 40.576 28.2517 36.8999 28.2517 31.0565C28.2517 28.9316 27.9334 27.2105 26.8808 25.6168C32.6701 20.5703 41.2455 17.004 49.6662 17.004C52.2977 17.004 55.1284 16.9261 57.4967 17.4573C57.4967 17.9885 57.4967 19.3803 57.4967 20.1771C57.4967 25.7549 61.6093 29.6966 66.6358 29.6966C69.2672 29.6966 72.8251 28.5704 74.404 26.9768C80.1932 33.0858 84 41.7057 84 51.002C84 52.8613 83.3492 54.7205 83.0861 56.3142C82.8229 56.3142 82.0335 56.3142 81.7704 56.3142C76.2442 56.3142 72.5762 60.571 72.5762 66.4144C72.5762 69.0705 73.739 71.3547 75.3179 73.214C69.2655 80.1198 59.1396 85 49.1399 85C30.7196 85 15 69.8603 15 51.002C15.2631 47.5491 15.7752 43.4977 16.8278 40.576Z" fill="#9D9D9C"/>
<path d="M66.5 15C69.3947 15 72 17.6053 72 20.5C72 23.3947 69.6842 26 66.5 26C63.6053 26 61 23.6842 61 20.5C61 17.3158 63.6053 15 66.5 15Z" fill="#9D9D9C"/>
<path d="M81.8987 71.3158C84.557 71.3158 86.9494 69.2105 86.9494 66.3158C86.9494 63.6842 84.8228 61.3158 81.8987 61.3158C79.2405 61.3158 76.8481 63.4211 76.8481 66.3158C76.8481 69.2105 78.9747 71.3158 81.8987 71.3158ZM66.481 15.2632C63.8228 15.2632 61.4304 17.6316 61.4304 20.2632C61.4304 22.8947 63.557 25.2632 66.481 25.2632C69.1392 25.2632 71.5316 23.1579 71.5316 20.2632C71.5316 17.3684 69.4051 15.2632 66.481 15.2632ZM48.9367 90C27.4051 90 9.59494 72.6316 9.59494 51.0526C9.59494 46.8421 10.3924 42.6316 11.7215 38.9474C9.59494 37.1053 8 34.4737 8 31.3158C8 25.7895 12.519 21.0526 18.3671 21.0526C19.962 21.0526 21.557 21.5789 22.8861 22.1053C29.7975 16.0526 38.8354 12.3684 48.9367 12.3684C52.3924 12.3684 55.5823 12.8947 58.7722 13.6842C60.6329 11.5789 63.557 10 66.481 10C72.0633 10 76.8481 14.4737 76.8481 20.2632C76.8481 21.3158 76.5823 22.3684 76.3165 23.4211C83.7595 30.5263 88.2785 40.2632 88.2785 51.3158C88.2785 53.6842 88.0127 56.0526 87.481 58.1579C90.1392 60 92 63.1579 92 66.5789C92 72.1053 87.481 76.8421 81.6329 76.8421C80.5696 76.8421 79.5063 76.5789 78.7089 76.3158C71.5316 84.4737 60.8987 90 48.9367 90ZM18.6329 41.3158C18.1013 41.3158 17.3038 41.3158 16.7722 41.0526C15.7089 44.2105 15.1772 47.3684 15.1772 51.0526C15.1772 69.4737 30.3291 84.7368 49.2025 84.7368C59.3038 84.7368 68.3418 80.2632 74.4557 73.4211C72.8608 71.5789 71.7975 69.2105 71.7975 66.5789C71.7975 61.0526 76.3165 56.3158 82.1646 56.3158C82.4304 56.3158 82.6962 56.3158 82.962 56.3158C83.2278 54.7368 83.4937 52.8947 83.4937 51.0526C83.4937 41.8421 79.7722 33.6842 73.9241 27.6316C72.0633 29.2105 69.6709 30.2632 67.2785 30.2632C61.6962 30.2632 56.9114 25.7895 56.9114 20C56.9114 19.4737 56.9114 18.9474 57.1772 18.1579C53.9873 17.8947 51.5949 17.6316 48.9367 17.6316C40.6962 17.6316 32.9873 20.7895 26.8734 25.7895C27.9367 27.3684 28.4684 29.4737 28.4684 31.3158C28.7342 36.8421 24.2152 41.3158 18.6329 41.3158ZM13.5823 31.3158C13.5823 33.9474 15.7089 36.3158 18.6329 36.3158C21.557 36.3158 23.6835 34.2105 23.6835 31.3158C23.6835 28.6842 21.557 26.3158 18.6329 26.3158C15.7089 26.3158 13.5823 28.4211 13.5823 31.3158Z" fill="black"/>
<path d="M81.5 61C84.3947 61 87 63.3158 87 66.5C87 69.3947 84.6842 72 81.5 72C78.6053 72 76 69.6842 76 66.5C76 63.3158 78.3158 61 81.5 61Z" fill="#9D9D9C"/>
</svg>
