<?xml version="1.0" encoding="UTF-8"?>
<svg width="100" height="100" version="1.1" viewBox="0 0 100 100" xmlns="http://www.w3.org/2000/svg">
 <path d="m49.786 56.646q-0.70898 7.5088-5.543 11.73-4.834 4.1895-12.858 4.1895-5.6074 0-9.8936-2.6426-4.2539-2.6748-6.5742-7.5732-2.3203-4.8984-2.417-11.376v-4.3828q0-6.6387 2.3525-11.698 2.3525-5.0596 6.7354-7.7988 4.415-2.7393 10.184-2.7393 7.7666 0 12.504 4.2217 4.7373 4.2217 5.5107 11.924h-8.1211q-0.58008-5.0596-2.9648-7.2832-2.3525-2.2559-6.9287-2.2559-5.3174 0-8.1855 3.8994-2.8359 3.8672-2.9004 11.376v4.1572q0 7.6055 2.707 11.602 2.7393 3.9961 7.9922 3.9961 4.8018 0 7.2188-2.1592 2.417-2.1592 3.0615-7.1865zm12.437-2.1592v17.435h-8.1533v-46.922h17.95q7.8633 0 12.472 4.0928 4.6406 4.0928 4.6406 10.828 0 6.8965-4.5439 10.731-4.5117 3.835-12.665 3.835zm0-6.542h9.7969q4.3506 0 6.6387-2.0303 2.2881-2.0625 2.2881-5.9297 0-3.8027-2.3203-6.0586-2.3203-2.2881-6.3809-2.3525h-10.022z" fill="#5e5e5e" stroke-linecap="round" stroke-linejoin="round" stroke-width="5" style="paint-order:stroke markers fill" aria-label="CP"/>
</svg>
