<svg width="100" height="100" viewBox="0 0 100 100" fill="none" xmlns="http://www.w3.org/2000/svg">
<path d="M24.5872 29.3655V10.7394H43.4203V29.3655H24.5872Z" fill="#C4C4C4" stroke="black" stroke-width="5"/>
<path d="M56.4585 59.313V40.6869H75.2916V59.313H56.4585Z" fill="#C4C4C4" stroke="black" stroke-width="5"/>
<path d="M24.5872 88.9692V70.343H43.4203V88.9692H24.5872Z" fill="#C4C4C4" stroke="black" stroke-width="5"/>
<circle cx="33.9004" cy="50" r="7.01998" fill="#C4C4C4" stroke="black" stroke-width="5"/>
<path d="M66.9687 69.0801L64.6302 73.0889H66.9687H69.0891L66.9687 69.0801Z" fill="black"/>
<path d="M57.9614 80.0566C57.9614 80.0566 61.8547 80.0566 64.6302 78.2571C67.4056 76.4577 66.9687 73.0889 66.9687 73.0889M66.9687 73.0889H69.0891L66.9687 69.0801L64.6302 73.0889H66.9687Z" stroke="black" stroke-width="3"/>
<path d="M59.377 23.2311L63.3858 25.5696L63.3858 23.2311L63.3858 21.1106L59.377 23.2311Z" fill="black"/>
<path d="M70.3535 32.2383C70.3535 32.2383 70.3535 28.345 68.554 25.5696C66.7546 22.7942 63.3858 23.2311 63.3858 23.2311M63.3858 23.2311L63.3858 21.1106L59.377 23.2311L63.3858 25.5696L63.3858 23.2311Z" stroke="black" stroke-width="3"/>
</svg>
