<svg width="100" height="100" viewBox="0 0 100 100" fill="none" xmlns="http://www.w3.org/2000/svg">
<path d="M17.9232 59.2019C20.8828 60.0096 22.6585 62.702 21.7707 65.3943C21.4747 66.7405 20.2909 67.8174 19.107 68.3559C17.9232 68.8944 16.1474 69.1636 14.9636 68.8944C13.4838 68.6251 12.2999 67.5482 11.708 66.4713C11.1161 65.3943 10.8201 63.7789 11.1161 62.702C11.4121 61.625 12.5959 60.2789 13.7797 59.7404C14.6676 59.2019 15.5555 59.2019 16.4434 59.2019C17.0353 58.9327 17.6272 58.9327 17.9232 59.2019Z" fill="#9D9D9C"/>
<path d="M83 34.5C79.5141 35.0065 76.5 38 74.5 41.5C73.753 44.0324 73.7831 46.1226 75.0281 48.4017C75.7751 49.9212 77.506 51.7403 79 52.5C76.51 57.818 73.4819 63.4417 69 68C61.7791 75.344 51.9659 80.7273 43.5 82.5C35.2831 84.2727 27.9819 82.0583 23.5 77.5C22.255 76.2338 20.996 75 20.5 73L20.996 72.2062C23.2369 70.94 24.9799 68.9141 25.7269 66.3817C25.9759 65.3688 25.7269 64.513 25.7269 63.5C25.7269 59.4482 23.2349 57.0194 19.5 55.5C21.492 47.6496 26.4739 38.7786 33.1968 31.9411C40.4177 24.5972 49.1325 19.5324 57.5984 17.7597C59.8394 17.2532 61.8313 17 63.5743 17C69.0522 17 73.7831 18.7727 77.2691 22.0648C80.008 25.3569 82.751 29.6884 83 34.5Z" fill="#9D9D9C"/>
<path d="M11.9405 62.9169C11.6896 64.1837 11.6896 65.4505 12.4424 66.464C13.1952 67.4774 13.9481 68.4909 15.2028 68.7443C16.4575 68.9976 17.7123 68.9976 18.7161 68.2375C19.7198 67.7308 20.7236 66.7174 20.9746 65.4505C21.7274 62.9169 20.2217 60.3832 17.7123 59.6231C17.2104 59.6231 16.7085 59.3698 16.4575 59.3698C15.7047 59.3698 14.9519 59.6231 14.199 59.8765C13.1952 60.6366 12.1915 61.6501 11.9405 62.9169ZM83.9621 54.0491C81.2017 60.1299 77.1866 66.2106 72.1677 71.5313C64.1374 79.639 54.6014 85.213 45.0654 87.2399C42.556 87.7466 40.2975 88 38.0389 88C31.2634 88 25.2407 85.7197 20.7236 81.4125C18.7161 79.3856 17.2104 77.1053 15.9557 74.3183C15.2028 74.3183 14.45 74.0649 13.9481 74.0649C11.4386 73.3048 9.43104 71.5313 8.17631 69.251C6.92158 66.9707 6.67063 64.1837 7.42347 61.9034C8.17631 59.6231 9.93294 57.3429 12.1915 56.076C13.1952 55.5693 14.199 55.3159 15.2028 55.0626C17.2104 46.1948 22.4803 37.0737 29.7577 29.4727C37.788 21.365 47.324 15.791 56.8599 13.7641C66.6468 11.7372 75.43 13.7641 81.2017 19.5915C85.2169 23.6453 87.4754 29.2194 87.9773 35.3001C91.7415 36.8203 94 40.3674 94 44.4212C94 45.4347 94 46.1948 93.4981 47.2083C91.9924 51.2621 88.2282 54.0491 83.9621 54.0491ZM82.4565 34.54C81.9546 29.9795 80.1979 25.9256 77.4375 22.8852C73.9243 19.5915 69.4072 17.8179 63.6355 17.8179C61.6279 17.8179 59.6203 18.0713 57.6128 18.578C49.0806 20.3516 40.2975 25.4189 33.02 32.7665C26.4954 39.6073 21.9784 47.4616 19.7198 55.3159C23.484 56.8361 25.9935 60.3832 25.9935 64.4371C25.9935 65.4505 25.7426 66.2106 25.4916 67.2241C24.7388 69.7577 22.9822 71.7846 20.7236 73.0515H20.4727C21.2255 74.825 22.2293 76.3452 23.735 77.612C28.252 82.1726 35.2785 83.6928 43.5598 82.1726C52.0919 80.3991 60.8751 75.3318 68.1525 67.9842C72.6695 63.4236 76.4337 58.1029 78.6923 52.7823C77.1866 51.7688 75.9319 50.7554 75.179 49.2352C73.9243 46.9549 73.6733 44.1679 74.4262 41.8876C75.6809 37.5804 78.9432 35.0467 82.4565 34.54ZM82.7074 48.7285C85.2169 49.4885 87.7263 47.9684 88.4792 45.4347C89.232 42.9011 87.7263 40.3674 85.2169 39.6073C84.715 39.6073 84.2131 39.3539 83.9621 39.3539C81.9546 39.3539 79.947 40.6208 79.4451 42.6477C79.1942 43.9145 79.1942 45.1813 79.696 46.1948C80.4489 47.4616 81.4527 48.2217 82.7074 48.7285Z" fill="black"/>
<path d="M79.16 42.4414C79.6952 40.3236 81.8358 39 83.9763 39C84.5115 39 84.7791 39 85.3142 39.2647C87.9899 40.0589 89.5954 42.7062 88.7927 45.3534C87.9899 48.0007 85.3142 49.589 82.6385 48.7949C81.3006 48.5301 80.2303 47.4712 79.6952 46.4123C78.8925 44.824 78.8925 43.5003 79.16 42.4414Z" fill="#9D9D9C"/>
</svg>
