<svg width="100" height="100" viewBox="0 0 100 100" fill="none" xmlns="http://www.w3.org/2000/svg">
<path d="M49.7712 85C30.6811 85 15 68.9977 15 49.6349C15 30.2721 30.5448 15 49.9076 15C56.4528 15 63.3478 16.7601 68.5294 20.0327C67.984 21.3963 67.1569 23.2443 67.1569 24.6078C67.1569 30.3349 71.2225 34.6732 77.2222 34.6732C78.5858 34.6732 80.249 34.3036 81.3399 33.7582C83.5216 38.3943 85 44.3169 85 49.7712C85 69.1341 68.8613 85 49.7712 85ZM58.4641 58.4641V41.0784H41.0784V58.4641H58.4641Z" fill="#9D9D9C"/>
<path d="M55 46H46V55H55V46Z" fill="white"/>
<path d="M72 25C72 21.8421 74.3158 19 77.5 19C80.3947 19 83 21.5263 83 25C83 28.1579 80.6842 31 77.5 31C74.3158 31 72 28.1579 72 25Z" fill="#9D9D9C"/>
<path d="M77.4136 30.0678C80.0915 30.0678 82.5017 27.8983 82.5017 24.9153C82.5017 22.2034 80.3593 19.7627 77.4136 19.7627C74.7356 19.7627 72.3254 21.9322 72.3254 24.9153C72.5932 27.6271 74.7356 30.0678 77.4136 30.0678ZM50.6339 84.5763C69.3797 84.5763 84.6441 69.1186 84.6441 49.8644C84.6441 44.4407 83.3051 39.2881 81.1627 34.678C80.0915 34.9492 78.7525 35.4915 77.6814 35.4915C72.0576 35.4915 67.2373 30.8814 67.2373 24.9153C67.2373 23.2881 67.5051 21.9322 68.3085 20.5763C63.2203 17.322 57.061 15.4237 50.6339 15.4237C31.8881 15.4237 16.3559 30.8814 16.3559 50.1356C16.3559 69.3898 31.6203 84.5763 50.6339 84.5763ZM71.522 16.2373C73.1288 15.1525 75.2712 14.339 77.4136 14.339C83.0373 14.339 87.8576 18.9492 87.8576 24.9153C87.8576 27.3559 86.7864 29.7966 85.4475 31.4237C88.3932 37.1186 90 43.3559 90 49.8644C90 72.1017 72.3254 90 50.6339 90C28.9424 90 11 72.1017 11 49.8644C11 27.6271 28.6746 10 50.6339 10C58.4 10 65.6305 12.4407 71.522 16.2373Z" fill="black"/>
<path d="M46.2174 53.7826H53.7826V46.2174H46.2174V53.7826ZM41 41H59V59H41V41V41Z" fill="black"/>
</svg>
