<svg width="100" height="100" viewBox="0 0 100 100" fill="none" xmlns="http://www.w3.org/2000/svg">
<path d="M54 47H47V54H54V47Z" fill="white"/>
<path d="M59 59L59.5 41.6849H41.411L42 58.5L59 59ZM50.5 30C61.4589 30 71 40.0411 71 51C71 61.9589 61.9589 71 51 71C40.0411 71 30 61.9589 30 51C30 40.0411 39.2671 30 50.5 30Z" fill="#9D9D9C"/>
<path d="M50 75.3922C63.9453 75.3922 75.4297 63.8627 75.4297 49.8627C75.4297 35.8627 63.9453 25.5 50 25.5C36 26.5 25.5 36 25 49.8627C25 64.1373 35.7812 75.3922 50 75.3922ZM50 15C69.1406 15 85 30.6471 85 50.1373C85 69.6274 69.1406 85 50 85C30.8594 85 15 69.3529 15 50.1373C15 30.9216 30.5859 15 50 15Z" fill="#9D9D9C"/>
<path d="M54.4928 54.7681V46.7826H46.5072V54.7681H54.4928ZM60 41V60H41V41H60V41Z" fill="black"/>
<path d="M70.2419 50.5C70.2419 39.5323 61.1936 30.4839 50.2258 30.4839C39.2581 30.4839 30.2097 39.5323 30.2097 50.5C30.2097 61.4677 39.2581 70.5161 50.2258 70.5161C61.4677 70.2419 70.2419 61.4677 70.2419 50.5ZM50.5 25C64.4839 25 76 36.5161 76 50.5C76 64.4839 64.4839 76 50.5 76C36.5161 76 25 64.4839 25 50.5C25 36.2419 36.2419 25 50.5 25Z" fill="black"/>
<path d="M90 50.1356C90 72.1017 72.1017 90 50.1356 90C28.1695 90 10 72.1017 10 49.8644C10 27.6271 27.8983 10 50.1356 10C72.1017 10 90 27.8983 90 50.1356ZM50.1356 84.5763C69.1186 84.5763 84.8475 69.1186 84.8475 49.8644C84.8475 30.6102 69.1186 15.4237 50.1356 15.4237C31.1525 15.4237 15.4237 30.8814 15.4237 50.1356C15.4237 69.3898 30.8814 84.5763 50.1356 84.5763Z" fill="black"/>
</svg>
