<?xml version="1.0" encoding="UTF-8"?>
<svg width="100" height="100" version="1.1" viewBox="0 0 100 100" xmlns="http://www.w3.org/2000/svg">
 <g stroke="#000" stroke-width="5">
  <path d="m15 15 20 20c-15 15-15 15 0 30l30-30c7.5 7.5 7.5 22.5 0 30l20 20" fill="none" style="paint-order:markers fill stroke"/>
  <path d="m90 85a5 5 0 0 1-5 5 5 5 0 0 1-5-5 5 5 0 0 1 5-5 5 5 0 0 1 5 5zm-70-70a5 5 0 0 1-5 5 5 5 0 0 1-5-5 5 5 0 0 1 5-5 5 5 0 0 1 5 5z" fill="#fff" style="paint-order:markers fill stroke"/>
  <path d="m68 65a3 3 0 0 1-3 3 3 3 0 0 1-3-3 3 3 0 0 1 3-3 3 3 0 0 1 3 3zm0-30a3 3 0 0 1-3 3 3 3 0 0 1-3-3 3 3 0 0 1 3-3 3 3 0 0 1 3 3zm-30 30a3 3 0 0 1-3 3 3 3 0 0 1-3-3 3 3 0 0 1 3-3 3 3 0 0 1 3 3zm0-30a3 3 0 0 1-3 3 3 3 0 0 1-3-3 3 3 0 0 1 3-3 3 3 0 0 1 3 3z" style="paint-order:markers fill stroke"/>
 </g>
</svg>
