<?xml version="1.0" encoding="UTF-8"?>
<svg width="100" height="100" version="1.1" viewBox="0 0 100 100" xmlns="http://www.w3.org/2000/svg">
 <g stroke="#000" stroke-width="5">
  <path d="m20 20 20 20c-37.015 3.8681-19.657 36.676 0 30l20-40c27.5 15 15 15 0 30l20 20" fill="none" stroke-linecap="round" stroke-linejoin="round" style="paint-order:stroke markers fill"/>
  <path d="m88 80a8 8 0 0 1-8 8 8 8 0 0 1-8-8 8 8 0 0 1 8-8 8 8 0 0 1 8 8zm-60-60a8 8 0 0 1-8 8 8 8 0 0 1-8-8 8 8 0 0 1 8-8 8 8 0 0 1 8 8z" fill="#fff" style="paint-order:markers fill stroke"/>
  <path d="m63 60a3 3 0 0 1-3 3 3 3 0 0 1-3-3 3 3 0 0 1 3-3 3 3 0 0 1 3 3zm0-30a3 3 0 0 1-3 3 3 3 0 0 1-3-3 3 3 0 0 1 3-3 3 3 0 0 1 3 3zm-20 40a3 3 0 0 1-3 3 3 3 0 0 1-3-3 3 3 0 0 1 3-3 3 3 0 0 1 3 3zm0-30a3 3 0 0 1-3 3 3 3 0 0 1-3-3 3 3 0 0 1 3-3 3 3 0 0 1 3 3z" style="paint-order:markers fill stroke"/>
 </g>
</svg>
