<?xml version="1.0" encoding="UTF-8"?>
<svg width="100" height="100" version="1.1" viewBox="0 0 100 100" xmlns="http://www.w3.org/2000/svg">
 <path d="m15 61 20-56h30l20 56z" fill="#9c9c9c" style="paint-order:markers fill stroke"/>
 <ellipse cx="50" cy="60" rx="35" ry="15" fill="#6c6c6c" style="paint-order:markers fill stroke"/>
 <path d="m15 60a35 15 0 0 1 35-15 35 15 0 0 1 35 15" fill="none" stroke="#000" stroke-dasharray="4, 8" stroke-dashoffset="3.2" stroke-linecap="round" stroke-width="4" style="paint-order:markers fill stroke"/>
 <path d="m85 60a35 15 0 0 1-17.5 12.99 35 15 0 0 1-35 0 35 15 0 0 1-17.5-12.99" fill="none" stroke="#000" stroke-linecap="round" stroke-width="4" style="paint-order:markers fill stroke"/>
 <path d="m15 60 20-56" fill="none" stroke="#000" stroke-dashoffset="4" stroke-width="4" style="paint-order:markers fill stroke"/>
 <path d="m85 60-20-56" fill="none" stroke="#000" stroke-dashoffset="4" stroke-width="4" style="paint-order:markers fill stroke"/>
 <path d="m15 87h60" fill="none" stroke="#000" stroke-width="5" style="paint-order:markers fill stroke"/>
 <path d="m85 87-12 8v-16z" stroke="#000" stroke-width="4" style="paint-order:markers fill stroke"/>
</svg>
