<?xml version="1.0" encoding="UTF-8"?>
<svg width="100" height="100" version="1.1" viewBox="0 0 100 100" xmlns="http://www.w3.org/2000/svg">
 <path d="m10 87 3.6-17h52.8l3.6 17z" fill="#9c9c9c" style="paint-order:markers fill stroke"/>
 <path d="m70 86a30 10 0 0 1-15 8.6603 30 10 0 0 1-30 0 30 10 0 0 1-15-8.6603" fill="#9c9c9c" stroke="#000" stroke-linecap="round" stroke-width="4" style="paint-order:markers fill stroke"/>
 <path d="m13.6 70 7.8-38h37.2l7.8 38z" fill="#b4b4b4" fill-opacity=".7" style="paint-order:markers fill stroke"/>
 <ellipse cx="40" cy="70" rx="26.4" ry="7" fill="#acacac" style="paint-order:markers fill stroke"/>
 <path d="m25 15-3.6 17h37.2l-3.6-17z" fill="#9c9c9c" style="paint-order:markers fill stroke"/>
 <ellipse cx="40" cy="15" rx="15" ry="6" fill="#9c9c9c" stroke="#000" stroke-width="4" style="paint-order:markers fill stroke"/>
 <ellipse cx="40" cy="32" rx="18.6" ry="7" fill="#9c9c9c" style="paint-order:markers fill stroke"/>
 <path d="m10 86 15-71" fill="none" stroke="#000" stroke-dasharray="7.5999999,4" stroke-dashoffset="4" stroke-width="4" style="paint-order:markers fill stroke"/>
 <path d="m70 86-15-71" fill="none" stroke="#000" stroke-dasharray="7.5999999,4" stroke-dashoffset="4" stroke-width="4" style="paint-order:markers fill stroke"/>
 <path d="m85 20v70" fill="none" stroke="#000" stroke-width="5" style="paint-order:markers fill stroke"/>
 <path d="m85 18 8 12h-16z" stroke="#000" stroke-width="4" style="paint-order:markers fill stroke"/>
</svg>
