<svg width="100" height="100" viewBox="0 0 100 100" fill="none" xmlns="http://www.w3.org/2000/svg">
<path d="M77.5 24.5V76.5618C77.5 76.5618 71.8057 90.5 49.0014 90.5C26.1971 90.5 22.5 76.5618 22.5 76.5618V24.5C22.5 24.5 26.5014 14 49.0014 14C71.5014 14 77.5 24.5 77.5 24.5Z" fill="#C4C4C4"/>
<path d="M77.5 24.5V76.5618C77.5 76.5618 71.8057 90.5 49.0014 90.5C26.1971 90.5 22.5 76.5618 22.5 76.5618V24.5M77.5 24.5C77.5 24.5 71.5014 14 49.0014 14C26.5014 14 22.5 24.5 22.5 24.5M77.5 24.5C77.5 24.5 71.5 34.5 49.0014 34.5C26.5028 34.5 22.5 24.5 22.5 24.5" stroke="black" stroke-width="4"/>
</svg>
