<?xml version="1.0" encoding="UTF-8"?>
<svg width="100" height="100" version="1.1" viewBox="0 0 100 100" xmlns="http://www.w3.org/2000/svg">
 <path d="m20 90v-21h40v21z" fill="#9c9c9c" style="paint-order:markers fill stroke"/>
 <path d="m60 89a20 8 0 0 1-10 6.9282 20 8 0 0 1-20 0 20 8 0 0 1-10-6.9282" fill="#9c9c9c" stroke="#000" stroke-linecap="round" stroke-width="4" style="paint-order:markers fill stroke"/>
 <path d="m20 69v-35h40v35z" fill="#b4b4b4" fill-opacity=".7" style="paint-order:markers fill stroke"/>
 <ellipse cx="40" cy="69" rx="20" ry="8" fill="#acacac" style="paint-order:markers fill stroke"/>
 <path d="m20 15v20h40v-20z" fill="#9c9c9c" style="paint-order:markers fill stroke"/>
 <ellipse cx="40" cy="15" rx="20" ry="8" fill="#9c9c9c" stroke="#000" stroke-width="4" style="paint-order:markers fill stroke"/>
 <ellipse cx="40" cy="35" rx="20" ry="8" fill="#9c9c9c" style="paint-order:markers fill stroke"/>
 <path d="m20 89v-74" fill="none" stroke="#000" stroke-dasharray="7.5999999,4" stroke-dashoffset="3.2" stroke-width="4" style="paint-order:markers fill stroke"/>
 <path d="m60 89v-74" fill="none" stroke="#000" stroke-dasharray="7.5999999,4" stroke-dashoffset="3.2" stroke-width="4" style="paint-order:markers fill stroke"/>
 <path d="m80 20v70" fill="none" stroke="#000" stroke-width="5" style="paint-order:markers fill stroke"/>
 <path d="m80 18 8 12h-16z" stroke="#000" stroke-width="4" style="paint-order:markers fill stroke"/>
</svg>
