<svg width="100" height="100" viewBox="0 0 100 100" fill="none" xmlns="http://www.w3.org/2000/svg">
<g clip-path="url(#clip0)">
<rect x="18.5" y="18.5" width="64" height="64" fill="#CCE9F5" stroke="#269ED9" stroke-width="5"/>
<path d="M60.5996 53.4746C60.4004 56.2285 59.3809 58.3965 57.541 59.9785C55.7129 61.5605 53.2988 62.3516 50.2988 62.3516C47.0176 62.3516 44.4336 61.25 42.5469 59.0469C40.6719 56.832 39.7344 53.7969 39.7344 49.9414V48.377C39.7344 45.916 40.168 43.748 41.0352 41.873C41.9023 39.998 43.1387 38.5625 44.7441 37.5664C46.3613 36.5586 48.2363 36.0547 50.3691 36.0547C53.3223 36.0547 55.7012 36.8457 57.5059 38.4277C59.3105 40.0098 60.3535 42.2305 60.6348 45.0898H55.3613C55.2324 43.4375 54.7695 42.2422 53.9727 41.5039C53.1875 40.7539 51.9863 40.3789 50.3691 40.3789C48.6113 40.3789 47.293 41.0117 46.4141 42.2773C45.5469 43.5312 45.1016 45.4824 45.0781 48.1309V50.0645C45.0781 52.8301 45.4941 54.8516 46.3262 56.1289C47.1699 57.4062 48.4941 58.0449 50.2988 58.0449C51.9277 58.0449 53.1406 57.6758 53.9375 56.9375C54.7461 56.1875 55.209 55.0332 55.3262 53.4746H60.5996Z" fill="#269ED9"/>
</g>
<defs>
<clipPath id="clip0">
<rect width="100" height="100" fill="white"/>
</clipPath>
</defs>
</svg>
