<svg width="100" height="100" viewBox="0 0 100 100" fill="none" xmlns="http://www.w3.org/2000/svg">
<path d="M70.75 57.0625C70.1875 61.875 68.4062 65.5938 65.4062 68.2188C62.4271 70.8229 58.4583 72.125 53.5 72.125C48.125 72.125 43.8125 70.1979 40.5625 66.3438C37.3333 62.4896 35.7188 57.3333 35.7188 50.875V46.5C35.7188 42.2708 36.4688 38.5521 37.9688 35.3438C39.4896 32.1354 41.6354 29.6771 44.4062 27.9688C47.1771 26.2396 50.3854 25.375 54.0312 25.375C58.8646 25.375 62.7396 26.7292 65.6562 29.4375C68.5729 32.125 70.2708 35.8542 70.75 40.625H64.7188C64.1979 37 63.0625 34.375 61.3125 32.75C59.5833 31.125 57.1562 30.3125 54.0312 30.3125C50.1979 30.3125 47.1875 31.7292 45 34.5625C42.8333 37.3958 41.75 41.4271 41.75 46.6562V51.0625C41.75 56 42.7812 59.9271 44.8438 62.8438C46.9062 65.7604 49.7917 67.2188 53.5 67.2188C56.8333 67.2188 59.3854 66.4688 61.1562 64.9688C62.9479 63.4479 64.1354 60.8125 64.7188 57.0625H70.75Z" fill="#5E5E5E"/>
<path d="M70.75 57.0625L71.7432 57.1786L71.8737 56.0625H70.75V57.0625ZM65.4062 68.2188L66.0644 68.9717L66.0648 68.9713L65.4062 68.2188ZM40.5625 66.3438L39.796 66.986L39.798 66.9884L40.5625 66.3438ZM37.9688 35.3438L37.0651 34.9154L37.0629 34.9202L37.9688 35.3438ZM44.4062 27.9688L44.9311 28.82L44.9357 28.8171L44.4062 27.9688ZM65.6562 29.4375L64.9758 30.1703L64.9786 30.1729L65.6562 29.4375ZM70.75 40.625V41.625H71.8555L71.745 40.5251L70.75 40.625ZM64.7188 40.625L63.7289 40.7672L63.8522 41.625H64.7188V40.625ZM61.3125 32.75L60.6277 33.4787L60.632 33.4828L61.3125 32.75ZM45 34.5625L44.2085 33.9514L44.2056 33.955L45 34.5625ZM61.1562 64.9688L61.8026 65.7318L61.8034 65.7311L61.1562 64.9688ZM64.7188 57.0625V56.0625H63.8623L63.7306 56.9088L64.7188 57.0625ZM69.7568 56.9464C69.2165 61.5683 67.5228 65.038 64.7477 67.4662L66.0648 68.9713C69.2897 66.1495 71.1585 62.1817 71.7432 57.1786L69.7568 56.9464ZM64.7481 67.4658C61.9938 69.8734 58.2797 71.125 53.5 71.125V73.125C58.637 73.125 62.8603 71.7724 66.0644 68.9717L64.7481 67.4658ZM53.5 71.125C48.3975 71.125 44.3731 69.3115 41.327 65.6991L39.798 66.9884C43.2519 71.0843 47.8525 73.125 53.5 73.125V71.125ZM41.329 65.7015C38.2893 62.0735 36.7188 57.1666 36.7188 50.875H34.7188C34.7188 57.5 36.3774 62.9057 39.796 66.986L41.329 65.7015ZM36.7188 50.875V46.5H34.7188V50.875H36.7188ZM36.7188 46.5C36.7188 42.3892 37.4475 38.8198 38.8746 35.7673L37.0629 34.9202C35.49 38.2844 34.7188 42.1525 34.7188 46.5H36.7188ZM38.8724 35.7721C40.3183 32.7219 42.3396 30.4177 44.9311 28.82L43.8814 27.1175C40.9313 28.9364 38.6609 31.549 37.0651 34.9154L38.8724 35.7721ZM44.9357 28.8171C47.5297 27.1983 50.5502 26.375 54.0312 26.375V24.375C50.2206 24.375 46.8245 25.2809 43.8768 27.1204L44.9357 28.8171ZM54.0312 26.375C58.6692 26.375 62.282 27.6689 64.9758 30.1703L66.3367 28.7047C63.1971 25.7894 59.06 24.375 54.0312 24.375V26.375ZM64.9786 30.1729C67.6794 32.6615 69.2949 36.1442 69.755 40.7249L71.745 40.5251C71.2467 35.5641 69.4664 31.5885 66.3339 28.7021L64.9786 30.1729ZM70.75 39.625H64.7188V41.625H70.75V39.625ZM65.7086 40.4828C65.1717 36.7462 63.9795 33.8618 61.993 32.0172L60.632 33.4828C62.1455 34.8882 63.2241 37.2538 63.7289 40.7672L65.7086 40.4828ZM61.9973 32.0213C60.03 30.1725 57.3278 29.3125 54.0312 29.3125V31.3125C56.9847 31.3125 59.1366 32.0775 60.6277 33.4787L61.9973 32.0213ZM54.0312 29.3125C49.9135 29.3125 46.6003 30.8534 44.2085 33.9514L45.7915 35.1736C47.7747 32.605 50.4823 31.3125 54.0312 31.3125V29.3125ZM44.2056 33.955C41.8562 37.0275 40.75 41.3059 40.75 46.6562H42.75C42.75 41.5483 43.8105 37.7642 45.7944 35.17L44.2056 33.955ZM40.75 46.6562V51.0625H42.75V46.6562H40.75ZM40.75 51.0625C40.75 56.1298 41.8075 60.2821 44.0273 63.4211L45.6602 62.2664C43.755 59.5721 42.75 55.8702 42.75 51.0625H40.75ZM44.0273 63.4211C46.2855 66.6146 49.4817 68.2188 53.5 68.2188V66.2188C50.1016 66.2188 47.527 64.9062 45.6602 62.2664L44.0273 63.4211ZM53.5 68.2188C56.9687 68.2188 59.7865 67.4395 61.8026 65.7318L60.5099 64.2057C58.9843 65.498 56.698 66.2188 53.5 66.2188V68.2188ZM61.8034 65.7311C63.8616 63.9841 65.1079 61.0665 65.7069 57.2162L63.7306 56.9088C63.1629 60.5585 62.0343 62.9118 60.5091 64.2064L61.8034 65.7311ZM64.7188 58.0625H70.75V56.0625H64.7188V58.0625Z" fill="#5E5E5E"/>
</svg>
