<svg width="100" height="100" viewBox="0 0 100 100" fill="none" xmlns="http://www.w3.org/2000/svg">
<path d="M82 69L53 85.8354V52L56.6909 54.3203L55.3727 56.6406L58.5 58L59.5 56L65.3909 59.2188L64.0727 61.2813L68.2909 63.8594L69.6091 61.5391L73.8273 63.8594L72.5091 66.1797L76.5 67.5L77.5 66L82 69Z" fill="#9D9D9C"/>
<path d="M79 64.4231L77.6538 66.8462L76.3077 69L72 66.5769L73.3462 64.1538L74.6923 62L79 64.4231Z" fill="black"/>
<path d="M71 59.3333L69.6538 61.6667L68.3077 64L64 61.4074L65.3462 59.3333L66.6923 57L71 59.3333Z" fill="black"/>
<path d="M62 54.5926L60.7037 56.6667L59.4074 59L55 56.6667L56.2963 54.3333L57.5926 52L62 54.5926Z" fill="black"/>
<path d="M53 38H48V43H53V38Z" fill="black"/>
<path d="M53 28H48V33H53V28Z" fill="black"/>
<path d="M53 19H48V24H53V19Z" fill="black"/>
<path d="M48.5 52L48 86L18.5 69L22.9189 66.4375L24.2252 68.5L27 66.4375L26 65L31.2793 61.5391L32.5856 63.8594L36.7658 61.2813L35.4595 59.2188L39.9009 56.6406L41.5 57.5L43.5 56V54.5L48.5 52Z" fill="#9D9D9C"/>
<path d="M43.6538 54.3333L45 56.6667L40.6923 59L39.3462 56.6667L38 54.5926L42.3077 52L43.6538 54.3333Z" fill="black"/>
<path d="M35.6538 59.3333L37 61.4074L32.6923 64L31.3462 61.6667L30 59.3333L34.3077 57L35.6538 59.3333Z" fill="black"/>
<path d="M26.6538 64.1538L28 66.5769L23.6923 69L22.3462 66.8462L21 64.4231L25.3077 62L26.6538 64.1538Z" fill="black"/>
<path d="M87 29.25V71.75L50.3701 93L14 71.75V29.25L17.3772 27.4136L50.6299 8L54.0071 9.83642L84.1424 27.4136L87 29.25ZM81.8043 68.8642V35.2839L53.2278 52.0741V85.6543L81.8043 68.8642ZM50.6299 47.6142L79.4662 30.8241L50.6299 14.034L22.0534 30.8241L50.6299 47.6142ZM48.032 85.6543V52.0741L19.4555 35.2839V68.8642L48.032 85.6543Z" fill="black"/>
</svg>
