<svg width="100" height="100" viewBox="0 0 100 100" fill="none" xmlns="http://www.w3.org/2000/svg">
<path d="M86.2779 56.349H56.2751L55.8574 86.2128L85.8668 85.8541L86.2779 56.349Z" fill="#9D9D9C"/>
<path d="M56.7303 56.7181V85.2722H85.2844V56.7181H56.7303ZM89.9654 89.9532H52.0493V52.0371H89.9654V89.9532Z" fill="black"/>
<path d="M43.8514 15.1459H14.02V43.8391H43.8514V15.1459Z" fill="#9D9D9C"/>
<path d="M26.8834 72.367C21.8788 68.6647 19.2573 62.417 19.2573 54.0867H24.0236C24.0236 61.0286 25.9302 65.8879 29.7432 68.6647C33.318 71.4415 38.0843 71.9042 41.4207 71.6728L37.3693 67.7391L40.7058 64.4995L50.0001 73.524L40.4674 82.7799L37.131 79.5404L40.2291 76.5322C36.6544 76.3008 31.1731 75.6066 26.8834 72.367Z" fill="black"/>
<path d="M14.7152 43.3836H43.2692V15.6012H14.7152V43.3836ZM10.0342 47.9381V11.0468H47.9502V47.9381H10.0342Z" fill="black"/>
</svg>
