<?xml version="1.0" encoding="UTF-8"?>
<svg width="100" height="100" version="1.1" viewBox="0 0 100 100" xmlns="http://www.w3.org/2000/svg">
 <g stroke="#000" stroke-dashoffset="12" stroke-linecap="square" stroke-width="2">
  <path d="m23.722 80.962q-14.125-11.969-14.125-30.375 0-18.531 14.125-30.5l1.3438 1.1875q-9.9688 11.094-9.9688 29.188 0 18.219 9.9688 29.312z" style="paint-order:markers fill stroke"/>
  <path d="m66.081 42.989q-1.5469-0.45703-2.8828-0.45703-1.125 0-2.2148 0.35156-1.0898 0.35156-2.3203 1.3359-1.1953 0.98438-2.6016 2.6719-1.3711 1.6875-3.1641 4.3594 1.5117 3.5508 2.9531 6.8906 1.4766 3.3047 2.6367 5.7305 0.49219 1.0898 0.91406 1.6875 0.42188 0.59766 0.98438 0.91406 0.59766 0.31641 1.4766 0.38672 0.91406 0.07031 2.3906 0.10547l-0.14062 1.3711q-4.4297 1.4766-7.0312 1.4766-1.2305 0-2.1797-0.5625-0.91406-0.52734-1.6875-2.2148-0.98438-2.0742-2.1094-4.7461t-2.3203-5.4492q-2.6016 3.6914-4.4297 6.1875-1.793 2.4609-3.375 3.9727-1.582 1.4766-3.1992 2.1094-1.582 0.63281-3.7617 0.63281-1.3008 0-2.5664-0.24609 0.94922-3.6914 1.8984-6.3281l0.17578-0.10547q1.582 0.35156 3.0586 0.35156 1.2656 0 2.3555-0.31641 1.125-0.35156 2.3555-1.3359 1.2305-0.98438 2.707-2.8125 1.5117-1.8633 3.5508-4.957-0.63281-1.4062-1.3359-2.9883-0.66797-1.582-1.3359-3.1641-0.66797-1.582-1.3008-3.0234-0.63281-1.4766-1.1953-2.707-0.45703-0.98438-0.98438-1.5469-0.52734-0.59766-1.2305-0.84375-0.70312-0.28125-1.582-0.38672-0.84375-0.10547-2.0039-0.14062l0.10547-1.3359q4.7812-1.6172 7.207-1.6172 1.0195 0 1.582 0.28125 0.5625 0.24609 0.98438 0.73828 0.45703 0.49219 0.80859 1.2305 0.38672 0.70312 0.80859 1.6172 0.77344 1.7578 1.6875 3.9023 0.91406 2.1094 1.9336 4.4297 2.3203-3.3047 4.043-5.5898 1.7227-2.2852 3.3047-3.6914 1.582-1.4414 3.1641-2.0742 1.582-0.63281 3.5859-0.63281 1.3711 0 2.4258 0.17578-0.70312 2.8125-1.9688 6.2227z" style="paint-order:markers fill stroke"/>
  <path d="m76.378 20.087q14.125 11.969 14.125 30.375 0 18.531-14.125 30.5l-1.3438-1.1875q9.9688-11.094 9.9688-29.188 0-18.219-9.9688-29.312z" style="paint-order:markers fill stroke"/>
 </g>
</svg>
