<svg width="100" height="100" viewBox="0 0 100 100" fill="none" xmlns="http://www.w3.org/2000/svg">
<path d="M54 53V79.6063L46 84V57.6378L54 53Z" fill="#9D9D9C"/>
<path d="M52.5 49L43.5 54L21 40.25L29.5 34.5L52.5 49Z" fill="#9D9D9C"/>
<path d="M42.5 56.5V84.5L18 70.6667V44L42.5 56.5Z" fill="#9D9D9C"/>
<path d="M82.1815 79.7636V36.9565L67.967 45.1793V87.9864L82.1815 79.7636ZM79.2904 33.087L42.9109 11.3207L28.6964 19.5435L65.5578 40.8261L79.2904 33.087ZM53.9934 79.2799V52.9185L46.2838 57.5136V83.6331L53.9934 79.2799ZM63.1485 45.1793L26.2871 23.6549V31.6359L27.7327 30.9103H27.9736L29.1782 30.1848L59.0528 48.0815V82.1821L55.6799 83.6331L63.1485 87.9864V45.1793ZM41.4653 57.5136L18.8185 44.4538V70.5734L41.4653 83.6331V57.5136ZM21.2277 40.1005L43.8746 53.1603L51.3432 48.8071L29.1782 35.5054L21.2277 40.1005ZM21.4686 34.538V18.3342L22.6733 17.6087L41.7063 6.72554L42.9109 6L87 32.1196V82.6658L65.5578 95L50.8614 86.5353L43.6337 90.6467L14 73.2337V38.8913L15.2046 38.1658L21.4686 34.538Z" fill="black"/>
</svg>
