<?xml version="1.0" encoding="UTF-8"?>
<svg width="100" height="100" version="1.1" viewBox="0 0 100 100" xmlns="http://www.w3.org/2000/svg">
 <path d="m40 62 20 8v19l-20 8-20-8v-19z" fill="#9c9c9c" style="paint-order:markers fill stroke"/>
 <path d="m60 89-20 8-20-8" fill="none" stroke="#000" stroke-dashoffset="14.4" stroke-linecap="round" stroke-width="4" style="paint-order:markers fill stroke"/>
 <path d="m60 70-20 8-20-8v-36l20 8 20-8z" fill="#b4b4b4" fill-opacity=".7" style="paint-order:markers fill stroke"/>
 <path d="m40 7 20 8v19l-20 8-20-8v-19z" fill="#9c9c9c" style="paint-order:markers fill stroke"/>
 <path d="m60 15-20-8-20 8 20 8z" fill="none" stroke="#000" stroke-dashoffset="14.4" stroke-linejoin="round" stroke-width="4" style="paint-order:markers fill stroke"/>
 <path d="m20 89v-74" fill="none" stroke="#000" stroke-dasharray="7.6,4" stroke-dashoffset="2" stroke-width="4" style="paint-order:markers fill stroke"/>
 <path d="m40 97v-74" fill="none" stroke="#000" stroke-dasharray="7.6,4" stroke-dashoffset="1.2" stroke-width="4" style="paint-order:markers fill stroke"/>
 <path d="m60 89v-74" fill="none" stroke="#000" stroke-dasharray="7.6,4" stroke-dashoffset="2" stroke-width="4" style="paint-order:markers fill stroke"/>
 <path d="m80 15v60" fill="none" stroke="#000" stroke-width="5" style="paint-order:markers fill stroke"/>
 <path d="m80 88-8-12h16z" stroke="#000" stroke-width="4" style="paint-order:markers fill stroke"/>
</svg>
