<svg width="100" height="100" viewBox="0 0 100 100" fill="none" xmlns="http://www.w3.org/2000/svg">
<g clip-path="url(#clip0)">
<rect x="18.5" y="18.5" width="64" height="64" fill="#CCE9F5" stroke="#269ED9" stroke-width="5"/>
<path d="M45.3945 51.541H35.2695V62H29.9961V36.4062H46.6602V40.6777H35.2695V47.2871H45.3945V51.541ZM70.7422 49.7832C70.7422 52.3027 70.2969 54.5117 69.4062 56.4102C68.5156 58.3086 67.2383 59.7734 65.5742 60.8047C63.9219 61.8359 62.0234 62.3516 59.8789 62.3516C57.7578 62.3516 55.8652 61.8418 54.2012 60.8223C52.5371 59.8027 51.248 58.3496 50.334 56.4629C49.4199 54.5645 48.957 52.3848 48.9453 49.9238V48.6582C48.9453 46.1387 49.3965 43.9238 50.2988 42.0137C51.2129 40.0918 52.4961 38.6211 54.1484 37.6016C55.8125 36.5703 57.7109 36.0547 59.8438 36.0547C61.9766 36.0547 63.8691 36.5703 65.5215 37.6016C67.1855 38.6211 68.4688 40.0918 69.3711 42.0137C70.2852 43.9238 70.7422 46.1328 70.7422 48.6406V49.7832ZM65.3984 48.623C65.3984 45.9395 64.918 43.9004 63.957 42.5059C62.9961 41.1113 61.625 40.4141 59.8438 40.4141C58.0742 40.4141 56.709 41.1055 55.748 42.4883C54.7871 43.8594 54.3008 45.875 54.2891 48.5352V49.7832C54.2891 52.3965 54.7695 54.4238 55.7305 55.8652C56.6914 57.3066 58.0742 58.0273 59.8789 58.0273C61.6484 58.0273 63.0078 57.3359 63.957 55.9531C64.9062 54.5586 65.3867 52.5312 65.3984 49.8711V48.623Z" fill="#269ED9"/>
</g>
<defs>
<clipPath id="clip0">
<rect width="100" height="100" fill="white"/>
</clipPath>
</defs>
</svg>
