<svg width="100" height="100" viewBox="0 0 100 100" fill="none" xmlns="http://www.w3.org/2000/svg">
<path d="M40.375 51.4062H21.2812V71.5H15.2812V26H43.4688V30.9375H21.2812V46.5H40.375V51.4062ZM85.6562 50.2188C85.6562 54.6771 84.9062 58.5729 83.4062 61.9062C81.9062 65.2188 79.7812 67.75 77.0312 69.5C74.2812 71.25 71.0729 72.125 67.4062 72.125C63.8229 72.125 60.6458 71.25 57.875 69.5C55.1042 67.7292 52.9479 65.2188 51.4062 61.9688C49.8854 58.6979 49.1042 54.9167 49.0625 50.625V47.3438C49.0625 42.9688 49.8229 39.1042 51.3438 35.75C52.8646 32.3958 55.0104 29.8333 57.7812 28.0625C60.5729 26.2708 63.7604 25.375 67.3438 25.375C70.9896 25.375 74.1979 26.2604 76.9688 28.0312C79.7604 29.7812 81.9062 32.3333 83.4062 35.6875C84.9062 39.0208 85.6562 42.9062 85.6562 47.3438V50.2188ZM79.6875 47.2812C79.6875 41.8854 78.6042 37.75 76.4375 34.875C74.2708 31.9792 71.2396 30.5312 67.3438 30.5312C63.5521 30.5312 60.5625 31.9792 58.375 34.875C56.2083 37.75 55.0938 41.75 55.0312 46.875V50.2188C55.0312 55.4479 56.125 59.5625 58.3125 62.5625C60.5208 65.5417 63.5521 67.0312 67.4062 67.0312C71.2812 67.0312 74.2812 65.625 76.4062 62.8125C78.5312 59.9792 79.625 55.9271 79.6875 50.6562V47.2812Z" fill="#5E5E5E"/>
<path d="M40.375 51.4062V52.4062H41.375V51.4062H40.375ZM21.2812 51.4062V50.4062H20.2812V51.4062H21.2812ZM21.2812 71.5V72.5H22.2812V71.5H21.2812ZM15.2812 71.5H14.2812V72.5H15.2812V71.5ZM15.2812 26V25H14.2812V26H15.2812ZM43.4688 26H44.4688V25H43.4688V26ZM43.4688 30.9375V31.9375H44.4688V30.9375H43.4688ZM21.2812 30.9375V29.9375H20.2812V30.9375H21.2812ZM21.2812 46.5H20.2812V47.5H21.2812V46.5ZM40.375 46.5H41.375V45.5H40.375V46.5ZM40.375 50.4062H21.2812V52.4062H40.375V50.4062ZM20.2812 51.4062V71.5H22.2812V51.4062H20.2812ZM21.2812 70.5H15.2812V72.5H21.2812V70.5ZM16.2812 71.5V26H14.2812V71.5H16.2812ZM15.2812 27H43.4688V25H15.2812V27ZM42.4688 26V30.9375H44.4688V26H42.4688ZM43.4688 29.9375H21.2812V31.9375H43.4688V29.9375ZM20.2812 30.9375V46.5H22.2812V30.9375H20.2812ZM21.2812 47.5H40.375V45.5H21.2812V47.5ZM39.375 46.5V51.4062H41.375V46.5H39.375ZM83.4062 61.9062L84.3172 62.3188L84.3182 62.3166L83.4062 61.9062ZM57.875 69.5L57.3365 70.3426L57.341 70.3455L57.875 69.5ZM51.4062 61.9688L50.4995 62.3904L50.5027 62.3973L51.4062 61.9688ZM49.0625 50.625H48.0625L48.0625 50.6347L49.0625 50.625ZM57.7812 28.0625L58.3198 28.9051L58.3214 28.9041L57.7812 28.0625ZM76.9688 28.0312L76.4302 28.8739L76.4376 28.8785L76.9688 28.0312ZM83.4062 35.6875L82.4934 36.0957L82.4943 36.0979L83.4062 35.6875ZM76.4375 34.875L75.6368 35.4741L75.6389 35.4769L76.4375 34.875ZM58.375 34.875L57.5771 34.2722L57.5764 34.2731L58.375 34.875ZM55.0312 46.875L54.0312 46.8628V46.875H55.0312ZM58.3125 62.5625L57.5045 63.1517L57.5091 63.158L58.3125 62.5625ZM76.4062 62.8125L77.2041 63.4153L77.2062 63.4125L76.4062 62.8125ZM79.6875 50.6562L80.6875 50.6681V50.6562H79.6875ZM84.6562 50.2188C84.6562 54.566 83.925 58.3167 82.4943 61.4959L84.3182 62.3166C85.8875 58.8292 86.6562 54.7882 86.6562 50.2188H84.6562ZM82.4953 61.4937C81.0659 64.6504 79.0619 67.0225 76.4944 68.6563L77.5681 70.3437C80.5006 68.4775 82.7466 65.7871 84.3172 62.3188L82.4953 61.4937ZM76.4944 68.6563C73.9243 70.2919 70.9072 71.125 67.4062 71.125V73.125C71.2386 73.125 74.6382 72.2081 77.5681 70.3437L76.4944 68.6563ZM67.4062 71.125C63.9936 71.125 61.0052 70.2942 58.409 68.6545L57.341 70.3455C60.2865 72.2058 63.6522 73.125 67.4062 73.125V71.125ZM58.4135 68.6574C55.8155 66.997 53.7788 64.6371 52.3098 61.5402L50.5027 62.3973C52.117 65.8004 54.3928 68.4613 57.3365 70.3426L58.4135 68.6574ZM52.313 61.5471C50.8625 58.4276 50.103 54.7912 50.0625 50.6153L48.0625 50.6347C48.1053 55.0421 48.9083 58.9683 50.4995 62.3904L52.313 61.5471ZM50.0625 50.625V47.3438H48.0625V50.625H50.0625ZM50.0625 47.3438C50.0625 43.0848 50.8025 39.3653 52.2545 36.163L50.433 35.337C48.8433 38.843 48.0625 42.8527 48.0625 47.3438H50.0625ZM52.2545 36.163C53.7053 32.9632 55.7311 30.5595 58.3198 28.9051L57.2427 27.2199C54.2898 29.1071 52.0238 31.8285 50.433 35.337L52.2545 36.163ZM58.3214 28.9041C60.9389 27.2242 63.9359 26.375 67.3438 26.375V24.375C63.5849 24.375 60.2069 25.3175 57.2411 27.2209L58.3214 28.9041ZM67.3438 26.375C70.8202 26.375 73.8374 27.2168 76.4302 28.8739L77.5073 27.1886C74.5584 25.304 71.159 24.375 67.3438 24.375V26.375ZM76.4376 28.8785C79.0423 30.5113 81.0646 32.9009 82.4934 36.0957L84.3191 35.2793C82.7479 31.7658 80.4785 29.0512 77.4999 27.184L76.4376 28.8785ZM82.4943 36.0979C83.9252 39.2776 84.6562 43.0181 84.6562 47.3438H86.6562C86.6562 42.7944 85.8873 38.764 84.3182 35.2771L82.4943 36.0979ZM84.6562 47.3438V50.2188H86.6562V47.3438H84.6562ZM80.6875 47.2812C80.6875 41.7713 79.5843 37.389 77.2361 34.2731L75.6389 35.4769C77.6241 38.111 78.6875 41.9995 78.6875 47.2812H80.6875ZM77.2382 34.2759C74.8664 31.1059 71.5265 29.5312 67.3438 29.5312V31.5312C70.9527 31.5312 73.6753 32.8524 75.6368 35.4741L77.2382 34.2759ZM67.3438 29.5312C63.2549 29.5312 59.9632 31.1134 57.5771 34.2722L59.1729 35.4778C61.1618 32.8449 63.8492 31.5312 67.3438 31.5312V29.5312ZM57.5764 34.2731C55.2374 37.3768 54.0954 41.6121 54.0313 46.8628L56.0312 46.8872C56.0921 41.8879 57.1792 38.1232 59.1736 35.4769L57.5764 34.2731ZM54.0312 46.875V50.2188H56.0312V46.875H54.0312ZM54.0312 50.2188C54.0312 55.5758 55.1505 59.9233 57.5045 63.1517L59.1205 61.9733C57.0995 59.2017 56.0312 55.3201 56.0312 50.2188H54.0312ZM57.5091 63.158C59.9146 66.4031 63.25 68.0312 67.4062 68.0312V66.0312C63.8542 66.0312 61.127 64.6802 59.1159 61.967L57.5091 63.158ZM67.4062 68.0312C71.5589 68.0312 74.8695 66.5053 77.2041 63.4153L75.6084 62.2097C73.693 64.7447 71.0036 66.0312 67.4062 66.0312V68.0312ZM77.2062 63.4125C79.5072 60.3445 80.6236 56.0527 80.6874 50.6681L78.6876 50.6444C78.6264 55.8015 77.5553 59.6138 75.6063 62.2125L77.2062 63.4125ZM80.6875 50.6562V47.2812H78.6875V50.6562H80.6875Z" fill="#5E5E5E"/>
</svg>
