<svg width="100" height="100" viewBox="0 0 100 100" fill="none" xmlns="http://www.w3.org/2000/svg">
<path d="M62.375 51.4062H43.2812V71.5H37.2812V26H65.4688V30.9375H43.2812V46.5H62.375V51.4062Z" fill="#5E5E5E"/>
<path d="M62.375 51.4062V52.4062H63.375V51.4062H62.375ZM43.2812 51.4062V50.4062H42.2812V51.4062H43.2812ZM43.2812 71.5V72.5H44.2812V71.5H43.2812ZM37.2812 71.5H36.2812V72.5H37.2812V71.5ZM37.2812 26V25H36.2812V26H37.2812ZM65.4688 26H66.4688V25H65.4688V26ZM65.4688 30.9375V31.9375H66.4688V30.9375H65.4688ZM43.2812 30.9375V29.9375H42.2812V30.9375H43.2812ZM43.2812 46.5H42.2812V47.5H43.2812V46.5ZM62.375 46.5H63.375V45.5H62.375V46.5ZM62.375 50.4062H43.2812V52.4062H62.375V50.4062ZM42.2812 51.4062V71.5H44.2812V51.4062H42.2812ZM43.2812 70.5H37.2812V72.5H43.2812V70.5ZM38.2812 71.5V26H36.2812V71.5H38.2812ZM37.2812 27H65.4688V25H37.2812V27ZM64.4688 26V30.9375H66.4688V26H64.4688ZM65.4688 29.9375H43.2812V31.9375H65.4688V29.9375ZM42.2812 30.9375V46.5H44.2812V30.9375H42.2812ZM43.2812 47.5H62.375V45.5H43.2812V47.5ZM61.375 46.5V51.4062H63.375V46.5H61.375Z" fill="#5E5E5E"/>
</svg>
