<svg width="100" height="100" viewBox="0 0 100 100" fill="none" xmlns="http://www.w3.org/2000/svg">
<path d="M61.8771 19.8479C71.6505 19.8479 79.795 27.6795 79.795 37.6715V61.9765V71.4284V75.7493V79.5301H75.9942H71.6505H62.1486H37.7152H28.2133H23.8696H20.0688V75.7493V71.4284V61.9765V37.6715V28.2196V23.8987V20.118H23.8696H28.2133H37.7152H61.8771V19.8479Z" fill="#9D9D9C"/>
<path d="M84.2997 84.2994H62.0418H38.1941H16.2012V62.0415V38.1937V16.2008H38.4591H62.3068C65.7515 16.2008 69.1962 16.9957 72.1109 18.5856C73.4358 19.3805 74.7606 20.1754 75.8205 20.9704C77.1454 22.0303 78.4703 23.3551 79.5302 24.68C80.3251 25.7399 81.385 27.0648 81.915 28.3897C83.5048 31.3044 84.2997 34.7491 84.2997 38.4587V62.3065V84.2994V84.2994ZM79.5302 38.4587C79.5302 28.9196 71.5809 20.9704 62.0418 20.9704H38.1941H28.92H24.6804H20.9707V24.68V28.9196V38.1937V62.0415V71.3156V75.5552V79.2649H24.6804H28.92H38.1941H62.0418H71.316H75.5556H79.2652V75.5552V71.3156V62.0415V38.4587H79.5302Z" fill="black"/>
</svg>
