<svg width="100" height="100" viewBox="0 0 100 100" fill="none" xmlns="http://www.w3.org/2000/svg">
<path d="M80 64.2836C80 65.2687 80.5 66.0149 80.5 67L79 67.7313L73 71.1791L52.5 83.5C52.25 77.3433 50.5 71.1791 49 66.2537L77.5 49.5C78.25 51.9627 79.25 55.0448 79.5 58C80 59.9701 79.75 62.0672 80 64.2836Z" fill="#9D9D9C"/>
<path d="M63.1637 25C68.6959 30.4337 74.731 38.5843 78 49.6988L49.5848 66C46.3158 55.3795 40.5322 47.2289 35 41.3012L63.1637 25Z" fill="white"/>
<path d="M64.5 25L35.1739 42C30.4534 37.0476 24.9814 32.981 22 31L42.5 19H43.6211L50.5 15C50.9969 15.2476 53.0062 16.2571 54 17C55.2422 17.7429 56.7609 19.0143 58.5 20.5C59.7422 21.7381 62.5124 23.019 64.5 25Z" fill="#9D9D9C"/>
<path d="M20 35C22.8 36.7225 27.4273 40.0628 31.5 44C39.3909 51.6283 46.7273 64.5445 48 82.7539C48 82.7539 48 82.7539 48 83L20 67.4974V35Z" fill="#9D9D9C"/>
<path d="M35.3986 41.5077C40.8007 47.4154 46.4484 55.5385 49.6406 66.1231C51.3594 71.0462 52.3416 76.7077 52.5872 82.8615L73.2135 71.0462L79.1068 67.6L80.089 67.1077C80.089 66.1231 80.089 65.1385 80.089 64.1538C79.8434 61.9385 79.8434 59.9692 79.3523 58C78.8612 55.0462 78.3701 52.3385 77.6335 49.8769C74.4413 38.8 68.7936 30.9231 63.1459 25.2615C61.1815 23.2923 59.4626 21.8154 57.7438 20.3385C56.0249 18.8615 54.306 17.8769 53.0783 16.8923C52.0961 16.1538 51.3594 15.9077 50.6228 15.4154L44.2384 19.1077L43.5018 19.3538L23.121 31.1692C26.5587 33.3846 30.9786 36.5846 35.3986 41.5077ZM16 29.9385L50.3772 10C50.6228 10 51.1139 10.2462 51.605 10.4923C51.605 10.4923 51.8505 10.4923 52.0961 10.7385C52.0961 10.7385 52.3416 10.7385 52.3416 10.9846C52.5872 11.2308 53.0783 11.2308 53.5694 11.7231C53.5694 11.7231 53.8149 11.7231 53.8149 11.9692C54.0605 11.9692 54.0605 12.2154 54.306 12.2154C60.4448 15.9077 75.1779 26.7385 81.8078 47.1692C83.7722 53.0769 85 59.7231 85 67.3538C85 67.6 85 67.6 85 67.8462C85 68.0923 85 68.3385 85 68.5846C85 69.0769 85 69.8154 84.7545 70.0615L50.6228 90L16 70.0615V29.9385ZM31.2242 43.9692C27.2954 40.0308 23.6121 37.0769 20.911 35.6V67.1077L47.9217 82.6154C47.9217 82.6154 47.9217 82.6154 47.9217 82.3692C46.694 64.1539 38.8363 51.8462 31.2242 43.9692Z" fill="black"/>
</svg>
