<svg width="100" height="100" viewBox="0 0 100 100" fill="none" xmlns="http://www.w3.org/2000/svg">
<path d="M98.6501 57.944V63.1826H71.546V80.9483H28.9538V63.1826H1.84961V57.944H28.9538V38.3561H36.0145V33.8008C36.0145 26.0568 42.3919 19.4515 50.3638 19.4515C58.3356 19.4515 64.713 25.829 64.713 33.8008V38.3561H71.7738V57.944H98.6501ZM66.9907 76.393V42.9114H59.9299V33.8008C59.9299 28.5622 55.6024 24.0069 50.136 24.0069C44.6696 24.0069 40.5698 28.5622 40.5698 33.8008V42.9114H33.5091V76.393H66.9907Z" fill="black"/>
<path d="M66.9918 42.9114V76.393H33.5103V42.9114H40.571V33.8008C40.571 28.5622 44.8985 24.0068 50.3649 24.0068C55.8313 24.0068 60.1589 28.3344 60.1589 33.8008V42.9114H66.9918ZM56.7424 40.6338V34.0285C56.7424 30.612 53.7814 27.6511 50.3649 27.6511C46.9484 27.6511 43.9875 30.612 43.9875 34.0285V40.6338H56.7424ZM55.6036 65.9158V56.5774C55.6036 53.6164 53.3259 51.3388 50.3649 51.3388C47.404 51.3388 45.1263 53.6164 45.1263 56.5774V65.9158H55.6036Z" fill="#9D9D9C"/>
<path d="M56.7412 34.0286V40.6338H43.9863V34.0286C43.9863 30.6121 46.9473 27.6511 50.3638 27.6511C53.7803 27.6511 56.7412 30.3843 56.7412 34.0286ZM52.1859 36.0785V34.0286C52.1859 33.1175 51.2748 32.2064 50.3638 32.2064C49.4527 32.2064 48.5416 32.8897 48.5416 34.0286V36.0785H52.1859Z" fill="black"/>
<path d="M55.6027 56.5774V65.9158H45.1255V56.5774C45.1255 53.6164 47.4031 51.3387 50.3641 51.3387C53.0973 51.3387 55.6027 53.6164 55.6027 56.5774Z" fill="black"/>
</svg>
