<svg width="100" height="100" viewBox="0 0 100 100" fill="none" xmlns="http://www.w3.org/2000/svg">
<path d="M79 64.0769L76.3077 68L72 65.9231L74.6923 62L79 64.0769Z" fill="black"/>
<path d="M71 59.3333L68.3077 64L64 61.4074L66.6923 57L71 59.3333Z" fill="black"/>
<path d="M63 54.5926L60.4074 59L56 56.6667L58.5926 52L63 54.5926Z" fill="black"/>
<path d="M53 38H48V43H53V38Z" fill="black"/>
<path d="M53 28H48V34H53V28Z" fill="black"/>
<path d="M53 19H48V23H53V19Z" fill="black"/>
<path d="M48 51.4921V86.5L17.5 69.5L19 35L48 51.4921Z" fill="#9D9D9C"/>
<path d="M87 29.25V71.75L50.6299 93L14 72.0123V29.25L50.6299 8L87 29.25ZM81.8043 68.8642V35.5463L53.2278 52.3364V85.9167L81.8043 68.8642ZM50.6299 47.6142L79.2064 30.8241L50.6299 14.034L21.7936 30.8241L50.6299 47.6142ZM48.032 85.6543V52.0741L19.1957 35.5463V69.1265L48.032 85.6543Z" fill="black"/>
</svg>
