<?xml version="1.0" encoding="UTF-8"?>
<svg width="100" height="100" version="1.1" viewBox="0 0 100 100" xmlns="http://www.w3.org/2000/svg">
 <path d="m46.14 21.98-3.8169 9.5404a19.8 19.8 0 0 0-4.047 2.3609l-10.202-1.4715-3.96 6.8604 6.3538 8.0728a19.8 19.8 0 0 0-0.16822 2.357 19.8 19.8 0 0 0 0.16822 2.357l-6.3538 8.0728 3.96 6.8604 10.202-1.4715a19.8 19.8 0 0 0 4.047 2.3609l3.8169 9.5404h7.92l3.8169-9.5404a19.8 19.8 0 0 0 4.047-2.3609l10.202 1.4715 3.96-6.8604-6.3538-8.0728a19.8 19.8 0 0 0 0.16822-2.357 19.8 19.8 0 0 0-0.14889-2.3803l6.3345-8.0496-3.96-6.8604-10.134 1.4618a19.8 19.8 0 0 0-4.1282-2.3822l-3.8034-9.5094z"/>
 <path d="m10 28v-18h18" fill="none" stroke="#000" stroke-linecap="square" stroke-width="6" style="paint-order:markers fill stroke"/>
 <path d="m90 72v18h-18" fill="none" stroke="#000" stroke-linecap="square" stroke-width="6" style="paint-order:markers fill stroke"/>
 <circle cx="50" cy="50" r="10" fill="#fff" style="paint-order:markers fill stroke"/>
</svg>
