<?xml version="1.0" encoding="UTF-8"?>
<svg width="100" height="100" version="1.1" viewBox="0 0 100 100" xmlns="http://www.w3.org/2000/svg">
 <g>
  <path d="m66 2-3.8555 9.6367a20 20 0 0 0-4.0879 2.3848l-10.305-1.4863-4 6.9297 6.418 8.1543a20 20 0 0 0-0.16992 2.3809 20 20 0 0 0 0.16992 2.3809l-6.418 8.1543 4 6.9297 10.305-1.4863a20 20 0 0 0 4.0879 2.3848l3.8555 9.6367h8l3.8555-9.6367a20 20 0 0 0 4.0879-2.3848l10.305 1.4863 4-6.9297-6.418-8.1543a20 20 0 0 0 0.16992-2.3809 20 20 0 0 0-0.15039-2.4043l6.3984-8.1309-4-6.9297-10.236 1.4766a20 20 0 0 0-4.1699-2.4062l-3.8418-9.6055h-8z"/>
  <circle cx="70" cy="30" r="10" fill="#fff"/>
  <path d="m26 42-3.8555 9.6367a20 20 0 0 0-4.0879 2.3848l-10.305-1.4863-4 6.9297 6.418 8.1543a20 20 0 0 0-0.16992 2.3809 20 20 0 0 0 0.16992 2.3809l-6.418 8.1543 4 6.9297 10.305-1.4863a20 20 0 0 0 4.0879 2.3848l3.8555 9.6367h8l3.8555-9.6367a20 20 0 0 0 4.0879-2.3848l10.305 1.4863 4-6.9297-6.418-8.1543a20 20 0 0 0 0.16992-2.3809 20 20 0 0 0-0.15039-2.4043l6.3984-8.1309-4-6.9297-10.236 1.4766a20 20 0 0 0-4.1699-2.4062l-3.8418-9.6055h-8z"/>
  <circle cx="30" cy="70" r="10" fill="#fff"/>
 </g>
</svg>
