<?xml version="1.0" encoding="UTF-8"?>
<svg width="100" height="100" version="1.1" viewBox="0 0 100 100" xmlns="http://www.w3.org/2000/svg">
 <path d="m49.589 66.422q-2.5459 3.3193-7.0576 5.0273-4.5117 1.708-10.248 1.708-5.8975 0-10.441-2.6748-4.5439-2.6748-7.0254-7.6377-2.4492-4.9951-2.5459-11.634v-3.6738q0-10.635 5.0918-16.597 5.0918-5.9941 14.212-5.9941 7.8311 0 12.439 3.8672 4.6084 3.8672 5.543 11.15h-7.9922q-1.3535-8.4756-9.8291-8.4756-5.4785 0-8.3467 3.9639-2.8359 3.9316-2.9326 11.569v3.6094q0 7.6055 3.1904 11.827 3.2227 4.1895 8.9268 4.1895 6.252 0 8.8945-2.8359v-9.1846h-9.668v-6.1875h17.789zm23.2-11.988h-9.0879v18.079h-8.1533v-46.922h16.5q8.1211 0 12.536 3.6416 4.415 3.6416 4.415 10.538 0 4.7051-2.2881 7.8955-2.2559 3.1582-6.3164 4.8662l10.538 19.562v0.41895h-8.7334zm-9.0879-6.542h8.3789q4.125 0 6.4453-2.0625 2.3203-2.0947 2.3203-5.7041 0-3.7705-2.1592-5.833-2.127-2.0625-6.3809-2.127h-8.6045z" fill="#5e5e5e" stroke-width="0" style="paint-order:markers fill stroke" aria-label="GR"/>
</svg>
