<svg width="100" height="100" viewBox="0 0 100 100" fill="none" xmlns="http://www.w3.org/2000/svg">
<path d="M86 50.5C86 69.9141 69.3529 86 50.1373 86C30.9216 86 14 69.9141 14 50.5C14 31.0859 30.6471 14 50.1373 14C69.6274 14 86 30.8086 86 50.5Z" fill="#9D9D9C"/>
<path d="M50.139 9C72.6542 9 91 27.3458 91 50.139C91 72.6542 72.6542 91 50.139 91C27.6237 91 9 72.6542 9 49.861C9 27.3458 27.3458 9 50.139 9ZM50.139 85.4407C69.5966 85.4407 85.4407 69.5966 85.4407 49.861C85.4407 30.1254 69.5966 14.5593 50.139 14.5593C30.6814 14.5593 14.5593 30.4034 14.5593 50.139C14.5593 69.8746 30.4034 85.4407 50.139 85.4407Z" fill="black"/>
<path d="M53 68H48V74H53V68Z" fill="black"/>
<path d="M50.5 27C57.9388 27 64 33.0746 64 40.5299C64 47.9851 58.4898 51.2985 58.2143 51.5746C57.9388 51.8507 53.2551 54.6119 53.2551 59.8582V64H47.7449V59.8582C47.7449 51.2985 55.1837 46.8806 55.4592 46.6045C55.4592 46.6045 58.4898 44.6716 58.4898 40.2537C58.4898 35.8358 54.9082 32.2463 50.5 32.2463C46.0918 32.2463 42.5102 35.8358 42.5102 40.2537H37C37 33.0746 43.0612 27 50.5 27Z" fill="black"/>
</svg>
