<svg width="100" height="100" viewBox="0 0 100 100" fill="none" xmlns="http://www.w3.org/2000/svg">
<path d="M49 51V84L20 67.2513V34.5L49 51Z" fill="#9D9D9C"/>
<path d="M80 36L81 68L53 84L52 51.5L80 36Z" fill="#9D9D9C"/>
<path d="M78 31.5L51 47.5L23 31.5L51 14.5L78 31.5Z" fill="#9D9D9C"/>
<path d="M85 30V70L50.3772 90L16 70V30L50.3772 10L85 30ZM80.089 67.284V35.9259L52.8327 51.7284V83.3333L80.089 67.284ZM50.6228 47.284L77.879 31.4815L50.6228 15.679L23.6121 31.4815L50.6228 47.284ZM48.1673 83.0864V51.4815L21.1566 35.679V67.284L48.1673 83.0864Z" fill="black"/>
</svg>
