<svg width="100" height="100" viewBox="0 0 100 100" fill="none" xmlns="http://www.w3.org/2000/svg">
<path d="M79 64.4231L76.3077 69L72 66.5769L74.6923 62L79 64.4231Z" fill="black"/>
<path d="M71 58.6667L68.3077 64L64 61.037L66.6923 56L71 58.6667Z" fill="black"/>
<path d="M63 54.2222L60.037 58L55 56L57.963 52L63 54.2222Z" fill="black"/>
<path d="M50 39.5V47L21.5 30.5L50 14V18.6406L48.5 19.5V23.5L50 18.6406V28.1797L48.5 29V32.5L50 28.1797V39.5H48.5V42L50 39.5Z" fill="#9D9D9C"/>
<path d="M48 51.5L43.9459 54.2756L42.5 52.5L40.5 54.2756H43.9459L35.027 59.3622L33.6757 56.9528L32.5 59L35.027 59.3622L26.3784 64.1811L25 63.5H24.5L26.3784 64.1811L18 69V33.5L48 51.5Z" fill="#9D9D9C"/>
<path d="M43.8462 54L45 56L41.3077 58L40.1538 56L39 54.2222L42.6923 52L43.8462 54Z" fill="black"/>
<path d="M35.8462 58.3333L37 60.4074L33.3077 63L32.1538 60.6667L31 58.3333L34.6923 56L35.8462 58.3333Z" fill="black"/>
<path d="M27.8462 63.1538L29 65.5769L25.3077 68L24.1538 65.8462L23 63.4231L26.6923 61L27.8462 63.1538Z" fill="black"/>
<path d="M53 38V43H50.5H48V38H50.5H53Z" fill="black"/>
<path d="M53 28V33H50.5H48V28H50.5H53Z" fill="black"/>
<path d="M53 18V24H50.5H48V18H50.5H53Z" fill="black"/>
<path d="M87 29V71L50.6299 92L14 71.2593V29L50.6299 8L87 29ZM81.8043 68.1481V35.2222L53.2278 51.8148V85L81.8043 68.1481ZM50.6299 47.1481L79.2064 30.5556L50.6299 13.963L21.7936 30.5556L50.6299 47.1481ZM48.032 84.7407V51.5556L19.1957 35.2222V68.4074L48.032 84.7407Z" fill="black"/>
</svg>
