<svg width="100" height="100" viewBox="0 0 100 100" fill="none" xmlns="http://www.w3.org/2000/svg">
<path d="M51.0063 73.336C53.4802 75.0704 56.9902 77.2291 56.9902 77.2291L50.998 81.1099L51.0022 77.223L51.0063 73.336Z" fill="black"/>
<path d="M37.0301 77.2088L51.0022 77.223M51.0022 77.223L51.0063 73.336C53.4802 75.0704 56.9902 77.2291 56.9902 77.2291L50.998 81.1099L51.0022 77.223Z" stroke="black" stroke-width="5"/>
<path d="M18.1688 46.008C19.9005 43.5323 22.0554 40.02 22.0554 40.02L25.9427 46.008H22.0557H18.1688Z" fill="black"/>
<path d="M22.0565 59.98L22.0557 46.008M22.0557 46.008H18.1688C19.9005 43.5323 22.0554 40.02 22.0554 40.02L25.9427 46.008H22.0557Z" stroke="black" stroke-width="5"/>
<path d="M13.074 69.4348V86.926H31.038V69.4348H13.074Z" fill="#C4C4C4" stroke="black" stroke-width="5"/>
<path d="M68.962 69.4348V86.926H86.9261V69.4348H68.962Z" fill="#C4C4C4" stroke="black" stroke-width="5"/>
<path d="M13.074 13.074V30.5653H31.038V13.074H13.074Z" fill="#C4C4C4" stroke="black" stroke-width="5"/>
</svg>
