<svg width="100" height="100" viewBox="0 0 100 100" fill="none" xmlns="http://www.w3.org/2000/svg">
<path d="M82 23.5C82 25.8684 80.0541 28 77.3784 28C76.6486 28 75.9189 27.7632 75.1892 27.5263C74.2162 27.0526 73.4865 26.1053 73.2432 25.1579C73 24.6842 73 24.2105 73 23.5C73 21.1316 74.9459 19 77.6216 19C80.0541 19 82 21.1316 82 23.5Z" fill="#9D9D9C"/>
<path d="M73.359 25.2051C73.6026 26.1795 74.5769 27.1538 75.3077 27.641C76.0385 28.1282 76.7692 28.1282 77.5 28.1282C79.9359 28.1282 82.1282 26.1795 82.1282 23.5C82.1282 20.8205 80.1795 18.8718 77.5 18.8718C75.0641 18.8718 72.8718 20.8205 72.8718 23.5C73.1154 23.9872 73.1154 24.7179 73.359 25.2051ZM77.5 14C82.6154 14 87 18.141 87 23.5C87 28.859 82.859 33 77.5 33C76.0385 33 74.3333 32.5128 73.1154 31.7821C72.8718 31.7821 72.6282 31.5385 72.6282 31.2949C71.1667 30.5641 70.1923 29.1026 69.2179 27.641C68.9744 27.3974 68.9744 26.9103 68.7308 26.6667C68.2436 25.6923 68 24.4744 68 23.2564C68.2436 18.3846 72.3846 14 77.5 14Z" fill="black"/>
<path d="M69.5946 28C70.3243 29.4516 71.5405 30.6613 73 31.629L31.4054 73C30.4324 71.5484 29.2162 70.3387 28 69.6129L69.5946 28Z" fill="black"/>
<path d="M19 77.6216C19 75.1892 20.8947 73 23.5 73C24.2105 73 24.6842 73.2432 25.3947 73.2432C26.3421 73.7297 27.2895 74.4595 27.5263 75.4324C27.7632 75.9189 28 76.6487 28 77.3784C28 79.8108 26.1053 82 23.5 82C20.8947 82 19 80.0541 19 77.6216Z" fill="#9D9D9C"/>
<path d="M23.5 81.8846C25.9359 81.8846 28.1282 79.9359 28.1282 77.2564C28.1282 76.5256 27.8846 75.7949 27.641 75.3077C27.1538 74.3333 26.4231 73.6026 25.4487 73.1154C24.9615 72.8718 24.2308 72.8718 23.5 72.8718C21.0641 72.8718 18.8718 74.8205 18.8718 77.5C19.1154 79.9359 21.0641 81.8846 23.5 81.8846ZM32.0256 73.359C32.7564 74.5769 33 76.0385 33 77.5C33 82.6154 28.859 87 23.5 87C18.3846 87 14 82.859 14 77.5C14 72.141 18.141 68 23.5 68C24.7179 68 25.9359 68.2436 27.1538 68.7308C27.3974 68.9744 27.641 68.9744 27.8846 69.2179C29.3462 69.9487 30.5641 71.1667 31.2949 72.6282C31.7821 72.8718 32.0256 73.1154 32.0256 73.359Z" fill="black"/>
</svg>
