<svg width="100" height="100" viewBox="0 0 100 100" fill="none" xmlns="http://www.w3.org/2000/svg">
<path d="M47.5 40C47.5 35.8788 41.8182 33.9394 36 33.9394V31.5C50.7879 31.5 60 36.6061 60 40C60 43.1515 51.0303 47.7576 36.9697 48V45C42.5 44 47.5 43.8788 47.5 40Z" fill="#9D9D9C"/>
<path d="M25.5 62.5455L22.9615 62.3182V66.4091C16.5577 64.8182 13 62.3182 13 60.5V53.6818V46.5C14.8974 47.6364 17.391 48.0909 20 49C24.9808 50.5909 30.5705 52 36.5 52H58.5H87.5L87 68H80.5V58.6818H76.8013V68H70L69.7982 63.5L66.1282 62.5455V68H59.5L59 58.6818H55.4551V68H48.5V62.5455H44.7821V68H37V58.6818H33.8718V67.7727C31.7372 67.7727 27.1603 67.7273 25.5 67.5L26 63.5L25.5 62.5455Z" fill="#9D9D9C"/>
<path d="M36.7981 48C22.1346 48 12.5 42.8939 12.5 39.5C12.5 36.3485 22.375 31.5 37.0385 31.5V33.9394C31.2692 33.9394 25.2596 35.8788 25.2596 40C25.2596 42.5 31.2692 45 37.0385 45C37.5192 45 37.7596 46.0606 38 46.0606V48C37.5192 48 37.2788 48 36.7981 48Z" fill="#9D9D9C"/>
<path d="M36.5 38.4C33.449 38.4 31.102 39.06 30.1633 39.5C31.102 39.94 33.449 40.6 36.5 40.6C39.551 40.6 41.898 39.94 42.8367 39.5C41.898 38.84 39.7857 38.4 36.5 38.4ZM25 39.5C25 35.76 30.8673 34 36.5 34C42.1327 34 48 35.76 48 39.5C48 43.02 42.8367 44.78 37.4388 45C37.2041 45 36.7347 45 36.5 45C31.102 45 25 43.24 25 39.5Z" fill="black"/>
<path d="M36.4746 73C22.7119 73 8 68.4241 8 60.2356V39.7644C8 31.5759 22.7119 27 36.4746 27C50.2373 27 64.9491 31.3351 64.9491 39.7644V47.712H92V73H36.4746ZM19.6271 50.1204C17.0169 49.3979 14.6441 48.1937 12.9831 46.9895V53.0105V60.2356C12.9831 62.1623 16.7797 64.8115 22.9492 66.4974V62.1623H27.6949V67.2199C29.5932 67.4607 31.4915 67.7016 33.6271 67.7016V58.0681H38.3729V67.9424H44.5424V62.1623H49.2881V67.9424H55.2203V58.0681H59.9661V67.9424H65.8983V62.1623H70.6441V67.9424H76.5763V58.0681H81.322V67.9424H86.7797V52.5288H59.2542H36.7119C30.5424 52.5288 24.6102 51.5654 19.6271 50.1204ZM12.9831 39.7644C12.9831 42.8953 22.2373 47.712 36.4746 47.712C36.7119 47.712 37.1864 47.712 37.4237 47.712C51.1864 47.4712 59.9661 42.8953 59.9661 39.7644C59.9661 36.6335 50.7119 31.8168 36.4746 31.8168C22.2373 31.8168 12.9831 36.3927 12.9831 39.7644Z" fill="black"/>
</svg>
