<svg width="100" height="100" viewBox="0 0 100 100" fill="none" xmlns="http://www.w3.org/2000/svg">
<path d="M50.7297 14C70.7212 14 87 30.179 87 50.0479C87 69.9168 70.7212 88 50.7297 88C30.7383 88 12 68.7814 12 48.9125C12 29.0436 30.4527 14 50.7297 14Z" fill="#9D9D9C"/>
<path d="M63.5349 36L68 39.5664L45.3953 67L32 48.8938L36.4651 45.6018L45.6744 58.2212L63.5349 36Z" fill="black"/>
<path d="M8 50.5C8 27.6326 26.7932 9 50.1424 9C73.2068 9 92 27.6326 92 50.5C92 73.3673 73.2068 92 50.1424 92C26.7932 92 8 73.3673 8 50.5ZM13.6949 50.5C13.6949 70.2619 29.9254 86.636 50.1424 86.636C70.3593 86.636 86.3051 70.2619 86.3051 50.5C86.3051 30.7381 70.0746 14.3639 50.1424 14.3639C30.2102 14.3639 13.6949 30.4558 13.6949 50.5Z" fill="black"/>
</svg>
