<svg width="100" height="100" viewBox="0 0 100 100" fill="none" xmlns="http://www.w3.org/2000/svg">
<path d="M22.2812 53.6875V71.5H16.2812V26H33.0625C38.0417 26 41.9375 27.2708 44.75 29.8125C47.5833 32.3542 49 35.7188 49 39.9062C49 44.3229 47.6146 47.7292 44.8438 50.125C42.0938 52.5 38.1458 53.6875 33 53.6875H22.2812ZM22.2812 48.7812H33.0625C36.2708 48.7812 38.7292 48.0312 40.4375 46.5312C42.1458 45.0104 43 42.8229 43 39.9688C43 37.2604 42.1458 35.0938 40.4375 33.4688C38.7292 31.8438 36.3854 31 33.4062 30.9375H22.2812V48.7812ZM77.4688 59.625H58.4062L54.125 71.5H47.9375L65.3125 26H70.5625L87.9688 71.5H81.8125L77.4688 59.625ZM60.2188 54.6875H75.6875L67.9375 33.4062L60.2188 54.6875Z" fill="#5E5E5E"/>
<path d="M22.2812 53.6875V52.6875H21.2812V53.6875H22.2812ZM22.2812 71.5V72.5H23.2812V71.5H22.2812ZM16.2812 71.5H15.2812V72.5H16.2812V71.5ZM16.2812 26V25H15.2812V26H16.2812ZM44.75 29.8125L44.0795 30.5544L44.0822 30.5569L44.75 29.8125ZM44.8438 50.125L45.4974 50.8818L45.4978 50.8814L44.8438 50.125ZM22.2812 48.7812H21.2812V49.7812H22.2812V48.7812ZM40.4375 46.5312L41.0973 47.2827L41.1024 47.2782L40.4375 46.5312ZM33.4062 30.9375L33.4272 29.9377L33.4167 29.9375H33.4062V30.9375ZM22.2812 30.9375V29.9375H21.2812V30.9375H22.2812ZM21.2812 53.6875V71.5H23.2812V53.6875H21.2812ZM22.2812 70.5H16.2812V72.5H22.2812V70.5ZM17.2812 71.5V26H15.2812V71.5H17.2812ZM16.2812 27H33.0625V25H16.2812V27ZM33.0625 27C37.8734 27 41.5023 28.2254 44.0795 30.5544L45.4205 29.0706C42.3727 26.3163 38.21 25 33.0625 25V27ZM44.0822 30.5569C46.6816 32.8886 48 35.971 48 39.9062H50C50 35.4665 48.4851 31.8197 45.4178 29.0681L44.0822 30.5569ZM48 39.9062C48 44.0979 46.6958 47.2016 44.1897 49.3686L45.4978 50.8814C48.5334 48.2567 50 44.5479 50 39.9062H48ZM44.1901 49.3682C41.6847 51.532 38.0046 52.6875 33 52.6875V54.6875C38.287 54.6875 42.5028 53.468 45.4974 50.8818L44.1901 49.3682ZM33 52.6875H22.2812V54.6875H33V52.6875ZM22.2812 49.7812H33.0625V47.7812H22.2812V49.7812ZM33.0625 49.7812C36.4145 49.7812 39.1437 48.998 41.0973 47.2827L39.7777 45.7798C38.3146 47.0645 36.1272 47.7812 33.0625 47.7812V49.7812ZM41.1024 47.2782C43.0749 45.5222 44 43.0321 44 39.9688H42C42 42.6137 41.2168 44.4986 39.7726 45.7843L41.1024 47.2782ZM44 39.9688C44 37.0311 43.0636 34.5866 41.1267 32.7442L39.7483 34.1933C41.2281 35.6009 42 37.4898 42 39.9688H44ZM41.1267 32.7442C39.1937 30.9055 36.5874 30.004 33.4272 29.9377L33.3853 31.9373C36.1834 31.996 38.2646 32.782 39.7483 34.1933L41.1267 32.7442ZM33.4062 29.9375H22.2812V31.9375H33.4062V29.9375ZM21.2812 30.9375V48.7812H23.2812V30.9375H21.2812ZM77.4688 59.625L78.4079 59.2815L78.1678 58.625H77.4688V59.625ZM58.4062 59.625V58.625H57.7038L57.4655 59.2858L58.4062 59.625ZM54.125 71.5V72.5H54.8275L55.0657 71.8392L54.125 71.5ZM47.9375 71.5L47.0033 71.1433L46.4852 72.5H47.9375V71.5ZM65.3125 26V25H64.6239L64.3783 25.6433L65.3125 26ZM70.5625 26L71.4965 25.6427L71.2506 25H70.5625V26ZM87.9688 71.5V72.5H89.422L88.9027 71.1427L87.9688 71.5ZM81.8125 71.5L80.8734 71.8435L81.1135 72.5H81.8125V71.5ZM60.2188 54.6875L59.2787 54.3465L58.7923 55.6875H60.2188V54.6875ZM75.6875 54.6875V55.6875H77.1159L76.6271 54.3453L75.6875 54.6875ZM67.9375 33.4062L68.8771 33.0641L67.9356 30.4787L66.9974 33.0653L67.9375 33.4062ZM77.4688 58.625H58.4062V60.625H77.4688V58.625ZM57.4655 59.2858L53.1843 71.1608L55.0657 71.8392L59.347 59.9642L57.4655 59.2858ZM54.125 70.5H47.9375V72.5H54.125V70.5ZM48.8717 71.8567L66.2467 26.3567L64.3783 25.6433L47.0033 71.1433L48.8717 71.8567ZM65.3125 27H70.5625V25H65.3125V27ZM69.6285 26.3573L87.0348 71.8573L88.9027 71.1427L71.4965 25.6427L69.6285 26.3573ZM87.9688 70.5H81.8125V72.5H87.9688V70.5ZM82.7516 71.1565L78.4079 59.2815L76.5296 59.9685L80.8734 71.8435L82.7516 71.1565ZM60.2188 55.6875H75.6875V53.6875H60.2188V55.6875ZM76.6271 54.3453L68.8771 33.0641L66.9979 33.7484L74.7479 55.0297L76.6271 54.3453ZM66.9974 33.0653L59.2787 54.3465L61.1588 55.0285L68.8776 33.7472L66.9974 33.0653Z" fill="#5E5E5E"/>
</svg>
