<svg width="100" height="100" viewBox="0 0 100 100" fill="none" xmlns="http://www.w3.org/2000/svg">
<g clip-path="url(#clip0)">
<rect x="18.5" y="18.5" width="64" height="64" fill="#CCE9F5" stroke="#269ED9" stroke-width="5"/>
<path d="M35.3926 52.9824V62H30.1191V36.4062H40.1035C42.0254 36.4062 43.7129 36.7578 45.166 37.4609C46.6309 38.1641 47.7559 39.166 48.541 40.4668C49.3262 41.7559 49.7188 43.2266 49.7188 44.8789C49.7188 47.3867 48.8574 49.3672 47.1348 50.8203C45.4238 52.2617 43.0508 52.9824 40.0156 52.9824H35.3926ZM35.3926 48.7109H40.1035C41.498 48.7109 42.5586 48.3828 43.2852 47.7266C44.0234 47.0703 44.3926 46.1328 44.3926 44.9141C44.3926 43.6602 44.0234 42.6465 43.2852 41.873C42.5469 41.0996 41.5273 40.7012 40.2266 40.6777H35.3926V48.7109ZM64.6777 56.7266H55.4316L53.6738 62H48.0664L57.5938 36.4062H62.4805L72.0605 62H66.4531L64.6777 56.7266ZM56.8555 52.4551H63.2539L60.0371 42.875L56.8555 52.4551Z" fill="#269ED9"/>
</g>
<defs>
<clipPath id="clip0">
<rect width="100" height="100" fill="white"/>
</clipPath>
</defs>
</svg>
