<svg width="100" height="100" viewBox="0 0 100 100" fill="none" xmlns="http://www.w3.org/2000/svg">
<path d="M88.0417 60.3379L72.6944 69.3461V87.1253L88.0417 78.3542V60.3379ZM28.0694 40.6621V25.7275L15.0833 33.3134L28.0694 40.6621ZM50.5 30.4687L65.8472 21.4605L50.5 12.4523L35.1528 21.4605L50.5 30.4687ZM55.2222 56.3079L68.2083 63.8937L70.5694 65.3161L72.9306 63.8937L85.9167 56.3079L72.9306 48.7221L70.5694 47.2997L68.2083 48.7221L61.5972 52.515L55.2222 56.3079ZM70.5694 94L50.5 82.3842L48.1389 80.9619L30.4306 70.7684L28.0694 69.3461L8 57.7302V31.654L28.0694 20.0381L30.4306 18.6158L50.5 7L72.9306 20.0381V43.2698L93 54.8856V80.9619L70.5694 94ZM52.8611 52.2779L65.8472 44.6921L68.2083 43.2698V40.6621V25.7275L55.2222 33.3134L52.8611 34.7357V37.5804V52.2779ZM65.8472 67.9237L52.8611 60.3379L50.5 58.9155L49.3194 58.2044L48.1389 57.4932V56.0708V54.6485V52.2779V48.7221V37.3433V34.4986L45.7778 33.0763L32.7917 25.4905V38.7657V40.4251V43.0327V44.455V45.8774V48.485L30.4306 47.0627L29.4861 46.5886L29.25 46.3515L28.0694 45.6403L12.7222 36.8692V54.6485L28.0694 63.6567L29.4861 64.3679L30.4306 64.842L32.7917 66.2643L35.1528 67.6867L35.8611 68.1608L48.1389 75.2725L48.8472 75.7466L50.5 76.6948L52.8611 78.1172L55.2222 79.5395H55.4583L68.2083 86.8883V71.9537V69.3461L65.8472 67.9237Z" fill="black"/>
</svg>
