<svg width="100" height="100" viewBox="0 0 100 100" fill="none" xmlns="http://www.w3.org/2000/svg">
<path d="M23.7812 53.6875V71.5H17.7812V26H34.5625C39.5417 26 43.4375 27.2708 46.25 29.8125C49.0833 32.3542 50.5 35.7188 50.5 39.9062C50.5 44.3229 49.1146 47.7292 46.3438 50.125C43.5938 52.5 39.6458 53.6875 34.5 53.6875H23.7812ZM23.7812 48.7812H34.5625C37.7708 48.7812 40.2292 48.0312 41.9375 46.5312C43.6458 45.0104 44.5 42.8229 44.5 39.9688C44.5 37.2604 43.6458 35.0938 41.9375 33.4688C40.2292 31.8438 37.8854 31 34.9062 30.9375H23.7812V48.7812ZM64.1875 66.5938H85.75V71.5H58.1562V26H64.1875V66.5938Z" fill="#5E5E5E"/>
<path d="M23.7812 53.6875V52.6875H22.7812V53.6875H23.7812ZM23.7812 71.5V72.5H24.7812V71.5H23.7812ZM17.7812 71.5H16.7812V72.5H17.7812V71.5ZM17.7812 26V25H16.7812V26H17.7812ZM46.25 29.8125L45.5795 30.5544L45.5822 30.5569L46.25 29.8125ZM46.3438 50.125L46.9974 50.8818L46.9978 50.8814L46.3438 50.125ZM23.7812 48.7812H22.7812V49.7812H23.7812V48.7812ZM41.9375 46.5312L42.5973 47.2827L42.6024 47.2782L41.9375 46.5312ZM34.9062 30.9375L34.9272 29.9377L34.9167 29.9375H34.9062V30.9375ZM23.7812 30.9375V29.9375H22.7812V30.9375H23.7812ZM22.7812 53.6875V71.5H24.7812V53.6875H22.7812ZM23.7812 70.5H17.7812V72.5H23.7812V70.5ZM18.7812 71.5V26H16.7812V71.5H18.7812ZM17.7812 27H34.5625V25H17.7812V27ZM34.5625 27C39.3734 27 43.0023 28.2254 45.5795 30.5544L46.9205 29.0706C43.8727 26.3163 39.71 25 34.5625 25V27ZM45.5822 30.5569C48.1816 32.8886 49.5 35.971 49.5 39.9062H51.5C51.5 35.4665 49.9851 31.8197 46.9178 29.0681L45.5822 30.5569ZM49.5 39.9062C49.5 44.0979 48.1958 47.2016 45.6897 49.3686L46.9978 50.8814C50.0334 48.2567 51.5 44.5479 51.5 39.9062H49.5ZM45.6901 49.3682C43.1847 51.532 39.5046 52.6875 34.5 52.6875V54.6875C39.787 54.6875 44.0028 53.468 46.9974 50.8818L45.6901 49.3682ZM34.5 52.6875H23.7812V54.6875H34.5V52.6875ZM23.7812 49.7812H34.5625V47.7812H23.7812V49.7812ZM34.5625 49.7812C37.9145 49.7812 40.6437 48.998 42.5973 47.2827L41.2777 45.7798C39.8146 47.0645 37.6272 47.7812 34.5625 47.7812V49.7812ZM42.6024 47.2782C44.5749 45.5222 45.5 43.0321 45.5 39.9688H43.5C43.5 42.6137 42.7168 44.4986 41.2726 45.7843L42.6024 47.2782ZM45.5 39.9688C45.5 37.0311 44.5636 34.5866 42.6267 32.7442L41.2483 34.1933C42.7281 35.6009 43.5 37.4898 43.5 39.9688H45.5ZM42.6267 32.7442C40.6937 30.9055 38.0874 30.004 34.9272 29.9377L34.8853 31.9373C37.6834 31.996 39.7646 32.782 41.2483 34.1933L42.6267 32.7442ZM34.9062 29.9375H23.7812V31.9375H34.9062V29.9375ZM22.7812 30.9375V48.7812H24.7812V30.9375H22.7812ZM64.1875 66.5938H63.1875V67.5938H64.1875V66.5938ZM85.75 66.5938H86.75V65.5938H85.75V66.5938ZM85.75 71.5V72.5H86.75V71.5H85.75ZM58.1562 71.5H57.1562V72.5H58.1562V71.5ZM58.1562 26V25H57.1562V26H58.1562ZM64.1875 26H65.1875V25H64.1875V26ZM64.1875 67.5938H85.75V65.5938H64.1875V67.5938ZM84.75 66.5938V71.5H86.75V66.5938H84.75ZM85.75 70.5H58.1562V72.5H85.75V70.5ZM59.1562 71.5V26H57.1562V71.5H59.1562ZM58.1562 27H64.1875V25H58.1562V27ZM63.1875 26V66.5938H65.1875V26H63.1875Z" fill="#5E5E5E"/>
</svg>
