<svg width="100" height="100" viewBox="0 0 100 100" fill="none" xmlns="http://www.w3.org/2000/svg">
<g clip-path="url(#clip0)">
<rect x="18.5" y="18.5" width="64" height="64" fill="#CCE9F5" stroke="#269ED9" stroke-width="5"/>
<path d="M36.1836 52.9824V62H30.9102V36.4062H40.8945C42.8164 36.4062 44.5039 36.7578 45.957 37.4609C47.4219 38.1641 48.5469 39.166 49.332 40.4668C50.1172 41.7559 50.5098 43.2266 50.5098 44.8789C50.5098 47.3867 49.6484 49.3672 47.9258 50.8203C46.2148 52.2617 43.8418 52.9824 40.8066 52.9824H36.1836ZM36.1836 48.7109H40.8945C42.2891 48.7109 43.3496 48.3828 44.0762 47.7266C44.8145 47.0703 45.1836 46.1328 45.1836 44.9141C45.1836 43.6602 44.8145 42.6465 44.0762 41.873C43.3379 41.0996 42.3184 40.7012 41.0176 40.6777H36.1836V48.7109ZM59.4219 57.7637H70.6191V62H54.1484V36.4062H59.4219V57.7637Z" fill="#269ED9"/>
</g>
<defs>
<clipPath id="clip0">
<rect width="100" height="100" fill="white"/>
</clipPath>
</defs>
</svg>
