<svg width="100" height="100" viewBox="0 0 100 100" fill="none" xmlns="http://www.w3.org/2000/svg">
<path d="M54.5901 49.2615V54.9931H48.7076H42.8252V49.2615V43.5299H48.7076H54.5901V49.2615Z" fill="white"/>
<path d="M48.7074 54.9931V79.8303M42.825 43.5299L34.0766 35.0832L42.825 43.5299ZM42.825 43.5299V49.2615V43.5299ZM42.825 43.5299H48.7074H42.825ZM42.825 54.9931L34.0766 64.1437L42.825 54.9931ZM42.825 54.9931V49.2615V54.9931ZM42.825 54.9931H48.7074H42.825ZM54.5899 54.9931L63.0365 64.1437L54.5899 54.9931ZM54.5899 54.9931V49.2615V54.9931ZM54.5899 54.9931H48.7074H54.5899ZM54.5899 43.5299L63.0365 35.0832L54.5899 43.5299ZM54.5899 43.5299V49.2615V43.5299ZM54.5899 43.5299H48.7074H54.5899ZM54.5899 49.2615H79.1253H54.5899ZM42.825 49.2615H17.9878H42.825ZM48.7074 43.5299V18.9944V43.5299Z" stroke="black" stroke-width="4"/>
</svg>
