<svg width="100" height="100" viewBox="0 0 100 100" fill="none" xmlns="http://www.w3.org/2000/svg">
<path d="M87 28.5C87 30.6053 84.5263 33 82.5 33C80.6579 33 78 30.8158 78 28.5C78 26.3947 80.4737 24 82.5 24C84.3421 24 87 26.3947 87 28.5Z" fill="#9D9D9C"/>
<path d="M75.4 29C75.8 32.1691 78 34.744 81 35.5362V71.5H24C23.4 68.9251 21.1 66.2923 18.5 65.5V27.5L75.4 29Z" fill="#9D9D9C"/>
<path d="M22 72C22 74.1053 20.3158 76.5 18 76.5C15.8947 76.5 13.5 74.3158 13.5 72C13.5 69.8947 15.6842 68 18 68C20.1053 68.2105 22 69.8947 22 72Z" fill="#9D9D9C"/>
<path d="M17.7419 68.7525C15.7568 68.7525 13.9702 70.3311 13.9702 72.5017C13.9702 74.4749 15.5583 76.2508 17.7419 76.2508C19.727 76.2508 21.5136 74.6722 21.5136 72.5017C21.5136 70.3311 19.727 68.7525 17.7419 68.7525ZM80.2729 35.9967C77.2953 35.2074 75.1117 32.6421 74.7146 29.4849H19.727V65.0033C22.3077 65.7926 24.4913 67.7659 25.0868 70.3311H80.2729V35.9967ZM90 28.6957C90 32.2475 87.6179 35.2074 84.2432 35.9967V74.2776H25.0868C24.2928 77.6321 21.3151 80 17.7419 80C13.5732 80 10 76.6455 10 72.3043C10 68.7525 12.3821 65.7926 15.7568 65.0033V25.5385H75.3102C76.5012 22.7759 79.2804 21 82.2581 21C86.4268 21 90 24.5518 90 28.6957ZM82.2581 32.4448C84.2432 32.4448 86.0298 30.8662 86.0298 28.6957C86.0298 26.7224 84.4417 24.9465 82.2581 24.9465C80.2729 24.9465 78.4863 26.5251 78.4863 28.6957C78.4863 30.6689 80.2729 32.4448 82.2581 32.4448Z" fill="black"/>
</svg>
