<svg width="100" height="100" viewBox="0 0 100 100" fill="none" xmlns="http://www.w3.org/2000/svg">
<path d="M74.0328 31C74.459 34.401 76.8033 37.1642 80 38.0145V75H14L13 30L74.0328 31Z" fill="#9D9D9C"/>
<path d="M82 25C84.1053 25 86 27.6842 86 30C86 32.1053 84.3158 35 82 35C79.8947 35 77.5 32.3158 77.5 30C77.5 27.6842 79.8947 25 82 25Z" fill="#9D9D9C"/>
<path d="M50 50H44V56H50V50Z" fill="white"/>
<path d="M44.3478 49.3478V55.6522H50.6522V49.3478H44.3478ZM40 60V45H55V60H40Z" fill="black"/>
<path d="M79.5187 38.1041C76.3102 37.2565 73.7433 34.5019 73.5294 31.1115H14.2781V74.974H79.5187V38.1041ZM81.6578 34.0781C83.7968 34.0781 85.7219 32.3829 85.7219 30.052C85.7219 27.9331 84.0107 26.026 81.6578 26.026C79.5187 26.026 77.5936 27.7212 77.5936 30.052C77.5936 32.3829 79.5187 34.0781 81.6578 34.0781ZM90 30.052C90 33.8662 87.4332 37.0446 83.7968 37.8922V79H10V26.8736H74.1711C75.4546 23.9071 78.4492 22 81.6578 22C86.1497 22 90 25.6022 90 30.052Z" fill="black"/>
</svg>
