<svg width="100" height="100" viewBox="0 0 100 100" fill="none" xmlns="http://www.w3.org/2000/svg">
<path d="M46.9476 18C64.6143 18 79 32.5294 79 50.3726C79 68.2157 64.6143 83 46.9476 83C39.3762 83 32.5619 80.451 27.0095 76.1176C29.281 75.3529 31.8048 74.3333 34.0762 72.549C37.1048 70 39.1238 67.1961 40.1333 64.1373C42.1524 65.1569 44.4238 65.6667 46.9476 65.6667C55.2762 65.6667 62.0905 58.7843 62.0905 50.3726C62.0905 41.9608 55.2762 35.5 46.9476 35.5C44.1714 35.5 41.2714 36.7255 39 38C37.9905 35.1961 35.2762 31.7941 32.5 29.5C30.2286 27.7157 28.0238 26.5098 25.5 26C31.3048 21.1569 39.1238 18 46.9476 18Z" fill="#9D9D9C"/>
<path d="M31.5682 68.64C29.1136 70.6 26.6591 71.72 24.4773 72C24.2045 72 23.9318 72 23.6591 72C22.5682 72 21.75 71.72 21.4773 71.16L21.2045 70.6C20.9318 70.04 20.9318 68.92 21.2045 67.8C22.0227 65.56 23.6591 63.32 25.8409 61.36C28.2955 59.4 31.2955 58 33.4773 58C34.2955 58 35.1136 58 35.6591 58.84C36.2045 59.4 35.9318 60.52 35.9318 61.36C35.9318 63.88 34.0227 66.68 31.5682 68.64Z" fill="white"/>
<path d="M20.3098 30.8104C20.8464 30.2701 21.9197 30 22.993 30C25.1395 30.2701 27.8226 31.3506 29.9691 33.2414C32.3839 35.1323 34.2621 37.5634 34.7988 39.7243C35.0671 40.5347 35.0671 41.345 34.7988 41.8853L34.5304 42.1554C33.9938 42.6956 33.1889 42.9658 32.6523 42.9658C30.2374 43.2359 27.286 41.8853 24.8712 39.7243C22.7246 38.1036 21.1148 35.9426 20.3098 33.7817C20.0415 33.2414 19.7732 31.6207 20.3098 30.8104Z" fill="white"/>
<path d="M24.4306 71.3333C26.4499 71.0808 28.7216 70.0707 30.9933 68.303C33.265 66.5354 35.0319 64.0101 35.2843 61.9899C35.5367 61.4848 35.5367 60.4747 35.0319 59.7172C34.5271 59.2121 33.5174 58.9596 33.0126 58.9596C30.9933 58.9596 28.2168 59.9697 25.9451 61.9899C23.9258 63.7576 22.1589 65.7778 21.654 67.798C21.4016 68.8081 21.4016 69.8182 21.654 70.3232L21.9065 70.5758C22.4113 71.0808 22.9161 71.3333 23.9258 71.3333C23.9258 71.3333 24.1782 71.3333 24.4306 71.3333ZM20.8968 31.4343C20.1396 32.4444 20.6444 33.7071 20.8968 34.4646C21.654 36.4848 23.1685 38.5051 25.1878 40.0202C27.4595 42.0404 30.4885 43.0505 32.5078 43.0505C33.0126 43.0505 34.0223 42.798 34.2747 42.2929L34.5271 42.0404C34.7795 41.5354 34.7795 40.7778 34.5271 40.0202C34.0223 38 32.2554 35.7273 29.9837 33.9596C27.9644 32.1919 25.4402 31.1818 23.4209 30.9293C22.4113 30.6768 21.4016 30.9293 20.8968 31.4343ZM84 50.6263C84 71.0808 67.3408 88 46.8953 88C35.2843 88 24.9354 82.697 18.1203 74.3636C17.8679 74.1111 17.8679 74.1111 17.6154 73.8586C17.6154 73.6061 17.363 73.6061 17.363 73.3535L17.1106 73.101C17.1106 72.8485 16.8582 72.8485 16.8582 72.596C16.101 70.8283 16.101 68.8081 16.8582 66.2828C17.8679 63.5051 19.8872 60.4747 22.9161 58.202C26.1975 55.6768 29.9837 54.1616 33.265 54.1616C35.5368 54.1616 37.5561 54.9192 39.0705 56.4343L39.3229 56.6869C39.5754 56.6869 39.5754 56.9394 39.5754 57.1919C41.3422 59.4646 44.1188 60.7273 47.1477 60.7273C52.7008 60.7273 57.2442 56.1818 57.2442 50.6263C57.2442 45.0707 52.7008 40.5253 47.1477 40.5253C43.8664 40.5253 40.8374 42.0404 39.0705 44.5657C38.8181 44.8182 38.8181 45.0707 38.5657 45.3232C37.3036 46.8384 35.5367 47.8485 33.0126 47.8485C32.7602 47.8485 32.7602 47.8485 32.5078 47.8485C29.2264 47.8485 25.4402 46.3333 22.4113 43.8081C19.6347 41.5354 17.6154 38.7576 16.6058 35.9798C15.5961 32.9495 15.8486 30.1717 17.363 28.1515L17.6154 27.6465L17.8679 27.3939C24.683 18.8081 35.2843 13 47.1477 13C67.3408 13.2525 84 29.9192 84 50.6263ZM78.9517 50.6263C78.9517 32.9495 64.5642 18.5556 46.8953 18.5556C39.0705 18.5556 31.7506 21.3333 26.1975 26.1313C28.7216 26.6364 31.2457 27.899 33.5174 29.6667C36.294 31.9394 38.3133 34.7172 39.3229 37.495C41.5947 36.2323 44.1188 35.4747 47.1477 35.4747C55.4774 35.4747 62.2925 42.2929 62.2925 50.6263C62.2925 58.9596 55.4774 65.7778 47.1477 65.7778C44.6236 65.7778 42.3519 65.2727 40.3326 64.2626C39.5754 67.0404 37.3036 70.0707 34.2747 72.596C32.003 74.3636 29.7313 75.6263 27.2071 76.1313C32.7602 80.4242 39.5754 82.9495 47.1477 82.9495C64.5642 82.697 78.9517 68.303 78.9517 50.6263Z" fill="black"/>
</svg>
