<?xml version="1.0" encoding="UTF-8"?>
<svg width="100" height="100" version="1.1" viewBox="0 0 100 100" xmlns="http://www.w3.org/2000/svg">
 <path d="m24.288 80.642a40 40 0 0 1-14.288-30.642 40 40 0 0 1 14.288-30.642" fill="#9c9c9c" stroke-dashoffset="2" stroke-linecap="round" stroke-linejoin="round" stroke-width="5" style="paint-order:markers fill stroke"/>
 <rect x="21.884" y="26.879" width="17.5" height="42" fill="#9c9c9c" style="paint-order:markers fill stroke"/>
 <path d="m39.715 62.257a16 16 0 0 1-5.7154-12.257 16 16 0 0 1 5.7154-12.257" fill="#fff" stroke-dashoffset="2" stroke-linecap="round" stroke-linejoin="round" stroke-width="5" style="paint-order:markers fill stroke"/>
 <ellipse transform="rotate(-45)" cx="3.1766" cy="42.902" rx="7" ry="12" fill="#9c9c9c" style="paint-order:markers fill stroke"/>
 <ellipse transform="rotate(135)" cx="27.748" cy="-73.769" rx="12" ry="7" fill="#9c9c9c" stroke="#000" stroke-dashoffset="2" stroke-linecap="round" stroke-width="5" style="paint-order:markers fill stroke"/>
 <ellipse cx="78" cy="50" rx="12" ry="7" fill="none" stroke="#000" stroke-linecap="round" stroke-width="5" style="paint-order:markers fill stroke"/>
 <path d="m39.715 62.257a16 16 0 0 1-4.0135-19.437 16 16 0 0 1 17.988-8.3879 16 16 0 0 1 12.31 15.569" fill="none" stroke="#000" stroke-dashoffset="8.5" stroke-linecap="round" stroke-width="5" style="paint-order:markers fill stroke"/>
 <path d="m24.288 80.642a40 40 0 0 1-10.034-48.594 40 40 0 0 1 44.97-20.97 40 40 0 0 1 30.775 38.922" fill="none" stroke="#000" stroke-dashoffset="5" stroke-linecap="round" stroke-width="5" style="paint-order:markers fill stroke"/>
</svg>
