<svg width="100" height="100" viewBox="0 0 100 100" fill="none" xmlns="http://www.w3.org/2000/svg">
<path d="M52.9688 53.0938H42.2812V71.5H36.25V26H51.3125C56.4375 26 60.375 27.1667 63.125 29.5C65.8958 31.8333 67.2812 35.2292 67.2812 39.6875C67.2812 42.5208 66.5104 44.9896 64.9688 47.0938C63.4479 49.1979 61.3229 50.7708 58.5938 51.8125L69.2812 71.125V71.5H62.8438L52.9688 53.0938ZM42.2812 48.1875H51.5C54.4792 48.1875 56.8438 47.4167 58.5938 45.875C60.3646 44.3333 61.25 42.2708 61.25 39.6875C61.25 36.875 60.4062 34.7188 58.7188 33.2188C57.0521 31.7188 54.6354 30.9583 51.4688 30.9375H42.2812V48.1875Z" fill="#5E5E5E"/>
<path d="M52.9688 53.0938L53.8499 52.621L53.5671 52.0938H52.9688V53.0938ZM42.2812 53.0938V52.0938H41.2812V53.0938H42.2812ZM42.2812 71.5V72.5H43.2812V71.5H42.2812ZM36.25 71.5H35.25V72.5H36.25V71.5ZM36.25 26V25H35.25V26H36.25ZM63.125 29.5L62.478 30.2625L62.4809 30.2649L63.125 29.5ZM64.9688 47.0938L64.1621 46.5027L64.1583 46.508L64.9688 47.0938ZM58.5938 51.8125L58.2372 50.8782L57.1611 51.2889L57.7188 52.2967L58.5938 51.8125ZM69.2812 71.125H70.2812V70.8668L70.1562 70.6408L69.2812 71.125ZM69.2812 71.5V72.5H70.2812V71.5H69.2812ZM62.8438 71.5L61.9626 71.9728L62.2454 72.5H62.8438V71.5ZM42.2812 48.1875H41.2812V49.1875H42.2812V48.1875ZM58.5938 45.875L57.9371 45.1208L57.9327 45.1246L58.5938 45.875ZM58.7188 33.2188L58.0498 33.9621L58.0544 33.9662L58.7188 33.2188ZM51.4688 30.9375L51.4753 29.9375H51.4688V30.9375ZM42.2812 30.9375V29.9375H41.2812V30.9375H42.2812ZM52.9688 52.0938H42.2812V54.0938H52.9688V52.0938ZM41.2812 53.0938V71.5H43.2812V53.0938H41.2812ZM42.2812 70.5H36.25V72.5H42.2812V70.5ZM37.25 71.5V26H35.25V71.5H37.25ZM36.25 27H51.3125V25H36.25V27ZM51.3125 27C56.2989 27 59.9717 28.136 62.478 30.2625L63.772 28.7375C60.7783 26.1974 56.5761 25 51.3125 25V27ZM62.4809 30.2649C64.9748 32.3651 66.2812 35.4498 66.2812 39.6875H68.2812C68.2812 35.0085 66.8169 31.3016 63.7691 28.7351L62.4809 30.2649ZM66.2812 39.6875C66.2812 42.3276 65.5672 44.585 64.1621 46.5027L65.7754 47.6848C67.4537 45.3942 68.2812 42.714 68.2812 39.6875H66.2812ZM64.1583 46.508C62.7655 48.435 60.8079 49.8971 58.2372 50.8782L58.9503 52.7468C61.838 51.6446 64.1304 49.9608 65.7792 47.6795L64.1583 46.508ZM57.7188 52.2967L68.4063 71.6092L70.1562 70.6408L59.4687 51.3283L57.7188 52.2967ZM68.2812 71.125V71.5H70.2812V71.125H68.2812ZM69.2812 70.5H62.8438V72.5H69.2812V70.5ZM63.7249 71.0272L53.8499 52.621L52.0876 53.5665L61.9626 71.9728L63.7249 71.0272ZM42.2812 49.1875H51.5V47.1875H42.2812V49.1875ZM51.5 49.1875C54.6531 49.1875 57.276 48.3686 59.2548 46.6254L57.9327 45.1246C56.4115 46.4648 54.3053 47.1875 51.5 47.1875V49.1875ZM59.2504 46.6292C61.2628 44.8772 62.25 42.5275 62.25 39.6875H60.25C60.25 42.0142 59.4664 43.7894 57.9371 45.1208L59.2504 46.6292ZM62.25 39.6875C62.25 36.665 61.3348 34.2062 59.3831 32.4713L58.0544 33.9662C59.4777 35.2313 60.25 37.085 60.25 39.6875H62.25ZM59.3877 32.4755C57.4763 30.7552 54.7864 29.9593 51.4753 29.9375L51.4622 31.9375C54.4844 31.9574 56.6279 32.6823 58.0498 33.962L59.3877 32.4755ZM51.4688 29.9375H42.2812V31.9375H51.4688V29.9375ZM41.2812 30.9375V48.1875H43.2812V30.9375H41.2812Z" fill="#5E5E5E"/>
</svg>
