<svg width="100" height="100" viewBox="0 0 100 100" fill="none" xmlns="http://www.w3.org/2000/svg">
<g clip-path="url(#clip0)">
<rect x="18.5" y="18.5" width="64" height="64" fill="#CCE9F5" stroke="#269ED9" stroke-width="5"/>
<path d="M50.2637 52.6309H46.0625V62H40.7891V36.4062H50.2988C53.3223 36.4062 55.6543 37.0801 57.2949 38.4277C58.9355 39.7754 59.7559 41.6797 59.7559 44.1406C59.7559 45.8867 59.375 47.3457 58.6133 48.5176C57.8633 49.6777 56.7207 50.6035 55.1855 51.2949L60.7227 61.7539V62H55.0625L50.2637 52.6309ZM46.0625 48.3594H50.3164C51.6406 48.3594 52.666 48.0254 53.3926 47.3574C54.1191 46.6777 54.4824 45.7461 54.4824 44.5625C54.4824 43.3555 54.1367 42.4062 53.4453 41.7148C52.7656 41.0234 51.7168 40.6777 50.2988 40.6777H46.0625V48.3594Z" fill="#269ED9"/>
</g>
<defs>
<clipPath id="clip0">
<rect width="100" height="100" fill="white"/>
</clipPath>
</defs>
</svg>
