<svg width="100" height="100" viewBox="0 0 100 100" fill="none" xmlns="http://www.w3.org/2000/svg">
<path d="M82 35V68.911L53 86V51.822L82 35Z" fill="#9D9D9C"/>
<path d="M53 37H48V42H53V37Z" fill="black"/>
<path d="M53 27H48V32H53V27Z" fill="black"/>
<path d="M53 17H48V22H53V17Z" fill="black"/>
<path d="M87 29.25V71.75L50.3701 93L14 72.0123V29.25L50.6299 8L87 29.25ZM81.8043 68.8642V35.5463L52.968 52.3364V85.9167L81.8043 68.8642ZM50.6299 47.6142L79.4662 30.8241L50.6299 14.034L21.7936 30.8241L50.6299 47.6142ZM48.032 85.6543V52.0741L19.1957 35.5463V69.1265L48.032 85.6543Z" fill="black"/>
<path d="M42.3077 52L45 56.6667L40.6923 59L38 54.5926L42.3077 52Z" fill="black"/>
<path d="M33.3077 57L36 62.037L31.6923 65L29 59.6667L33.3077 57Z" fill="black"/>
<path d="M24.3077 62L27 67.2308L22.6923 70L20 64.7692L24.3077 62Z" fill="black"/>
</svg>
