<svg width="100" height="100" viewBox="0 0 100 100" fill="none" xmlns="http://www.w3.org/2000/svg">
<rect x="18.5" y="18.5" width="64" height="64" fill="#C4C4C4" stroke="black" stroke-width="5"/>
<path d="M60.5352 58.7656C59.5859 59.9023 58.2441 60.7871 56.5098 61.4199C54.7754 62.041 52.8535 62.3516 50.7441 62.3516C48.5293 62.3516 46.584 61.8711 44.9082 60.9102C43.2441 59.9375 41.9551 58.5312 41.041 56.6914C40.1387 54.8516 39.6758 52.6895 39.6523 50.2051V48.4648C39.6523 45.9102 40.0801 43.7012 40.9355 41.8379C41.8027 39.9629 43.0449 38.5332 44.6621 37.5488C46.291 36.5527 48.1953 36.0547 50.375 36.0547C53.4102 36.0547 55.7832 36.7812 57.4941 38.2344C59.2051 39.6758 60.2188 41.7793 60.5352 44.5449H55.4023C55.168 43.0801 54.6465 42.0078 53.8379 41.3281C53.041 40.6484 51.9395 40.3086 50.5332 40.3086C48.7402 40.3086 47.375 40.9824 46.4375 42.3301C45.5 43.6777 45.0254 45.6816 45.0137 48.3418V49.9766C45.0137 52.6602 45.5234 54.6875 46.543 56.0586C47.5625 57.4297 49.0566 58.1152 51.0254 58.1152C53.0059 58.1152 54.418 57.6934 55.2617 56.8496V52.4375H50.4629V48.5527H60.5352V58.7656Z" fill="black"/>
</svg>
