<svg width="100" height="100" viewBox="0 0 100 100" fill="none" xmlns="http://www.w3.org/2000/svg">
<rect width="100" height="100" fill="white"/>
<path d="M93 6V93H6V6H93Z" fill="#9D9D9C"/>
<path d="M53.7838 44.1622C60.7162 46.6216 64 50.1351 64 55.4054C64 61.7297 58.8919 67 47.9459 67C43.5676 67 39.1892 65.9459 37 64.8919L38.8243 57.8649C41.3784 58.9189 45.027 60.3243 48.6757 60.3243C52.6892 60.3243 54.8784 58.5676 54.8784 56.1081C54.8784 53.6486 53.054 52.2432 48.3108 50.8378C41.7432 48.7297 37.3649 45.2162 37.3649 39.5946C37.3649 33.2703 42.8378 28 52.3243 28C56.7027 28 59.9865 29.0541 62.5405 29.7568L60.7162 36.7838C59.2568 36.0811 56.3378 35.027 52.3243 35.027C48.3108 35.027 46.4865 36.7838 46.4865 38.5405C46.4865 41.3514 48.6757 42.4054 53.7838 44.1622Z" fill="black"/>
<path d="M93.0796 93.0796V6.92041H6.92041V93.0796H93.0796ZM0 0H100V100H0V0Z" fill="black"/>
</svg>
