<svg width="100" height="100" viewBox="0 0 100 100" fill="none" xmlns="http://www.w3.org/2000/svg">
<path d="M50.5 12C70.4609 12 87 30.0941 87 50.1412C87 70.1882 70.4609 87.5 50.5 87.5C30.5391 87.5 13 69.9059 13 50.1412C13 30.3765 30.2539 12 50.5 12Z" fill="#9D9D9C"/>
<path d="M49.8582 46.9059L34.2553 62.7176L30 58.7647L49.8582 39L70 59.0471L66.0284 63L49.8582 46.9059Z" fill="black"/>
<path d="M8 50.1424C8 27.078 26.7932 8 49.8576 8C72.922 8 92 26.7932 92 50.1424C92 73.2068 73.2068 92 50.1424 92C27.078 92 8 73.2068 8 50.1424ZM13.6949 50.1424C13.6949 70.0746 29.9254 86.5898 49.8576 86.5898C69.7898 86.5898 86.3051 70.0746 86.3051 50.1424C86.3051 30.2102 70.0746 13.6949 50.1424 13.6949C30.2102 13.6949 13.6949 29.9254 13.6949 50.1424Z" fill="black"/>
</svg>
