<svg width="100" height="100" viewBox="0 0 100 100" fill="none" xmlns="http://www.w3.org/2000/svg">
<path d="M43.5 70L18 81L21 61L27.5 56.5L43.5 70Z" fill="white"/>
<path d="M90 84V91H10V87.5L20.8949 84H90Z" fill="black"/>
<path d="M67 18L79 30.1141L43.5 66L31 53.5L67 18Z" fill="#9D9D9C"/>
<path d="M78.3496 29.9585L67.2276 18.9046L32.0081 53.6017L43.1301 64.6556L78.3496 29.9585ZM23.0488 62.8133L19.0325 78.166L34.1707 73.8672L39.1138 68.9544L27.6829 57.9004L23.0488 62.8133ZM11 84L17.1789 59.7427L25.2114 51.7593L67.2276 10L87 29.6515L37.2602 79.3942L20.8862 84H11Z" fill="black"/>
<path d="M21 84L10 88L10.6286 84H21Z" fill="black"/>
</svg>
