<svg width="100" height="100" viewBox="0 0 100 100" fill="none" xmlns="http://www.w3.org/2000/svg">
<g clip-path="url(#clip0)">
<rect x="18.5" y="18.5" width="64" height="64" fill="#CCE9F5" stroke="#269ED9" stroke-width="5"/>
<path d="M54.4824 55.2852C54.4824 54.2891 54.1309 53.5273 53.4277 53C52.7246 52.4609 51.459 51.8984 49.6309 51.3125C47.8027 50.7148 46.3555 50.1289 45.2891 49.5547C42.3828 47.9844 40.9297 45.8691 40.9297 43.209C40.9297 41.8262 41.3164 40.5957 42.0898 39.5176C42.875 38.4277 43.9941 37.5781 45.4473 36.9688C46.9121 36.3594 48.5527 36.0547 50.3691 36.0547C52.1973 36.0547 53.8262 36.3887 55.2559 37.0566C56.6855 37.7129 57.793 38.6445 58.5781 39.8516C59.375 41.0586 59.7734 42.4297 59.7734 43.9648H54.5C54.5 42.793 54.1309 41.8848 53.3926 41.2402C52.6543 40.584 51.6172 40.2559 50.2812 40.2559C48.9922 40.2559 47.9902 40.5312 47.2754 41.082C46.5605 41.6211 46.2031 42.3359 46.2031 43.2266C46.2031 44.0586 46.6191 44.7559 47.4512 45.3184C48.2949 45.8809 49.5312 46.4082 51.1602 46.9004C54.1602 47.8027 56.3457 48.9219 57.7168 50.2578C59.0879 51.5938 59.7734 53.2578 59.7734 55.25C59.7734 57.4648 58.9355 59.2051 57.2598 60.4707C55.584 61.7246 53.3281 62.3516 50.4922 62.3516C48.5234 62.3516 46.7305 61.9941 45.1133 61.2793C43.4961 60.5527 42.2598 59.5625 41.4043 58.3086C40.5605 57.0547 40.1387 55.6016 40.1387 53.9492H45.4297C45.4297 56.7734 47.1172 58.1855 50.4922 58.1855C51.7461 58.1855 52.7246 57.9336 53.4277 57.4297C54.1309 56.9141 54.4824 56.1992 54.4824 55.2852Z" fill="#269ED9"/>
</g>
<defs>
<clipPath id="clip0">
<rect width="100" height="100" fill="white"/>
</clipPath>
</defs>
</svg>
