<svg width="100" height="100" viewBox="0 0 100 100" fill="none" xmlns="http://www.w3.org/2000/svg">
<path d="M49.6875 51.2188C44.5417 49.7396 40.7917 47.9271 38.4375 45.7812C36.1042 43.6146 34.9375 40.9479 34.9375 37.7812C34.9375 34.1979 36.3646 31.2396 39.2188 28.9062C42.0938 26.5521 45.8229 25.375 50.4062 25.375C53.5312 25.375 56.3125 25.9792 58.75 27.1875C61.2083 28.3958 63.1042 30.0625 64.4375 32.1875C65.7917 34.3125 66.4688 36.6354 66.4688 39.1562H60.4375C60.4375 36.4062 59.5625 34.25 57.8125 32.6875C56.0625 31.1042 53.5938 30.3125 50.4062 30.3125C47.4479 30.3125 45.1354 30.9688 43.4688 32.2812C41.8229 33.5729 41 35.375 41 37.6875C41 39.5417 41.7812 41.1146 43.3438 42.4062C44.9271 43.6771 47.6042 44.8438 51.375 45.9062C55.1667 46.9688 58.125 48.1458 60.25 49.4375C62.3958 50.7083 63.9792 52.1979 65 53.9062C66.0417 55.6146 66.5625 57.625 66.5625 59.9375C66.5625 63.625 65.125 66.5833 62.25 68.8125C59.375 71.0208 55.5312 72.125 50.7188 72.125C47.5938 72.125 44.6771 71.5312 41.9688 70.3438C39.2604 69.1354 37.1667 67.4896 35.6875 65.4062C34.2292 63.3229 33.5 60.9583 33.5 58.3125H39.5312C39.5312 61.0625 40.5417 63.2396 42.5625 64.8438C44.6042 66.4271 47.3229 67.2188 50.7188 67.2188C53.8854 67.2188 56.3125 66.5729 58 65.2812C59.6875 63.9896 60.5312 62.2292 60.5312 60C60.5312 57.7708 59.75 56.0521 58.1875 54.8438C56.625 53.6146 53.7917 52.4062 49.6875 51.2188Z" fill="#5E5E5E"/>
<path d="M49.6875 51.2188L49.9654 50.2582L49.9638 50.2577L49.6875 51.2188ZM38.4375 45.7812L37.757 46.5141L37.7639 46.5203L38.4375 45.7812ZM39.2188 28.9062L39.8517 29.6805L39.8523 29.68L39.2188 28.9062ZM58.75 27.1875L58.3058 28.0835L58.3089 28.0849L58.75 27.1875ZM64.4375 32.1875L63.5904 32.719L63.5942 32.7249L64.4375 32.1875ZM66.4688 39.1562V40.1562H67.4688V39.1562H66.4688ZM60.4375 39.1562H59.4375V40.1562H60.4375V39.1562ZM57.8125 32.6875L57.1416 33.4291L57.1465 33.4334L57.8125 32.6875ZM43.4688 32.2812L44.0861 33.0679L44.0874 33.0669L43.4688 32.2812ZM43.3438 42.4062L42.7066 43.177L42.7122 43.1816L42.7178 43.1861L43.3438 42.4062ZM51.375 45.9062L51.1038 46.8688L51.1052 46.8692L51.375 45.9062ZM60.25 49.4375L59.7306 50.2921L59.7404 50.2979L60.25 49.4375ZM65 53.9062L64.1416 54.4192L64.1462 54.4269L65 53.9062ZM62.25 68.8125L62.8592 69.6056L62.8628 69.6028L62.25 68.8125ZM41.9688 70.3438L41.5613 71.257L41.5672 71.2596L41.9688 70.3438ZM35.6875 65.4062L34.8682 65.9797L34.8721 65.9852L35.6875 65.4062ZM33.5 58.3125V57.3125H32.5V58.3125H33.5ZM39.5312 58.3125H40.5312V57.3125H39.5312V58.3125ZM42.5625 64.8438L41.9407 65.627L41.9497 65.634L42.5625 64.8438ZM58.1875 54.8438L57.5692 55.6297L57.5758 55.6348L58.1875 54.8438ZM49.9638 50.2577C44.8778 48.7957 41.2993 47.0367 39.1111 45.0422L37.7639 46.5203C40.284 48.8174 44.2055 50.6834 49.4112 52.1798L49.9638 50.2577ZM39.118 45.0485C36.9871 43.0698 35.9375 40.6681 35.9375 37.7812H33.9375C33.9375 41.2277 35.2212 44.1594 37.757 46.514L39.118 45.0485ZM35.9375 37.7812C35.9375 34.5079 37.2221 31.8302 39.8517 29.6805L38.5858 28.132C35.5071 30.649 33.9375 33.888 33.9375 37.7812H35.9375ZM39.8523 29.68C42.5099 27.5038 45.9983 26.375 50.4062 26.375V24.375C45.6475 24.375 41.6776 25.6003 38.5852 28.1325L39.8523 29.68ZM50.4062 26.375C53.4001 26.375 56.0256 26.9531 58.3059 28.0835L59.1941 26.2915C56.5994 25.0053 53.6624 24.375 50.4062 24.375V26.375ZM58.3089 28.0849C60.6164 29.2192 62.3648 30.7656 63.5904 32.719L65.2846 31.656C63.8435 29.3594 61.8003 27.5725 59.1911 26.2901L58.3089 28.0849ZM63.5942 32.7249C64.846 34.6893 65.4688 36.8257 65.4688 39.1562H67.4688C67.4688 36.4451 66.7374 33.9357 65.2808 31.6501L63.5942 32.7249ZM66.4688 38.1562H60.4375V40.1562H66.4688V38.1562ZM61.4375 39.1562C61.4375 36.1753 60.4781 33.7269 58.4785 31.9416L57.1465 33.4334C58.6469 34.7731 59.4375 36.6372 59.4375 39.1562H61.4375ZM58.4834 31.946C56.4933 30.1454 53.7536 29.3125 50.4062 29.3125V31.3125C53.4339 31.3125 55.6317 32.063 57.1416 33.429L58.4834 31.946ZM50.4062 29.3125C47.3105 29.3125 44.751 29.9986 42.8501 31.4956L44.0874 33.0669C45.5198 31.9389 47.5853 31.3125 50.4062 31.3125V29.3125ZM42.8514 31.4946C40.9363 32.9975 40 35.1049 40 37.6875H42C42 35.6451 42.7095 34.1483 44.0861 33.0679L42.8514 31.4946ZM40 37.6875C40 39.8701 40.9387 41.7155 42.7066 43.177L43.9809 41.6355C42.6238 40.5137 42 39.2133 42 37.6875H40ZM42.7178 43.1861C44.4635 44.5873 47.3015 45.7974 51.1038 46.8688L51.6462 44.9437C47.9069 43.8901 45.3907 42.7669 43.9697 41.6264L42.7178 43.1861ZM51.1052 46.8692C54.8538 47.9196 57.7151 49.0669 59.7306 50.292L60.7694 48.583C58.5349 47.2248 55.4795 46.0179 51.6448 44.9433L51.1052 46.8692ZM59.7404 50.2979C61.7785 51.5049 63.2253 52.8858 64.1416 54.4192L65.8584 53.3933C64.7331 51.5101 63.0132 49.9117 60.7596 48.5771L59.7404 50.2979ZM64.1462 54.4269C65.0782 55.9553 65.5625 57.7796 65.5625 59.9375H67.5625C67.5625 57.4704 67.0052 55.2739 65.8538 53.3856L64.1462 54.4269ZM65.5625 59.9375C65.5625 63.3208 64.2641 65.9855 61.6372 68.0222L62.8628 69.6028C65.9859 67.1812 67.5625 63.9292 67.5625 59.9375H65.5625ZM61.6408 68.0194C58.9901 70.0555 55.3829 71.125 50.7188 71.125V73.125C55.6796 73.125 59.7599 71.9862 62.8592 69.6056L61.6408 68.0194ZM50.7188 71.125C47.724 71.125 44.9449 70.5568 42.3703 69.4279L41.5672 71.2596C44.4092 72.5057 47.4635 73.125 50.7188 73.125V71.125ZM42.3762 69.4305C39.8047 68.2832 37.8628 66.7427 36.5029 64.8273L34.8721 65.9852C36.4706 68.2365 38.7161 69.9876 41.5613 71.257L42.3762 69.4305ZM36.5067 64.8328C35.171 62.9246 34.5 60.762 34.5 58.3125H32.5C32.5 61.1547 33.2873 63.7212 34.8683 65.9797L36.5067 64.8328ZM33.5 59.3125H39.5312V57.3125H33.5V59.3125ZM38.5312 58.3125C38.5312 61.3445 39.6634 63.8192 41.9408 65.627L43.1842 64.0605C41.4199 62.66 40.5312 60.7805 40.5312 58.3125H38.5312ZM41.9497 65.634C44.2149 67.3907 47.1709 68.2188 50.7188 68.2188V66.2188C47.4749 66.2188 44.9934 65.4635 43.1753 64.0535L41.9497 65.634ZM50.7188 68.2188C54.0023 68.2188 56.6788 67.5519 58.6078 66.0753L57.3922 64.4872C55.9462 65.5939 53.7686 66.2188 50.7188 66.2188V68.2188ZM58.6078 66.0753C60.5563 64.5839 61.5312 62.5227 61.5312 60H59.5312C59.5312 61.9356 58.8187 63.3953 57.3922 64.4872L58.6078 66.0753ZM61.5312 60C61.5312 57.5066 60.6404 55.4765 58.7992 54.0527L57.5758 55.6348C58.8596 56.6276 59.5312 58.0351 59.5312 60H61.5312ZM58.8058 54.0578C57.0802 52.7003 54.0838 51.4498 49.9654 50.2582L49.4096 52.1793C53.4995 53.3627 56.1698 54.5288 57.5692 55.6297L58.8058 54.0578Z" fill="#5E5E5E"/>
</svg>
