<?xml version="1.0" encoding="UTF-8"?>
<svg width="100" height="100" version="1.1" viewBox="0 0 100 100" xmlns="http://www.w3.org/2000/svg">
 <path d="m41.909 60.481q0-3.0938-2.1914-4.7695-2.1592-1.6758-7.8311-3.3838t-9.0234-3.8027q-6.4131-4.0283-6.4131-10.506 0-5.6719 4.6084-9.3457 4.6406-3.6738 12.021-3.6738 4.8984 0 8.7334 1.8047 3.835 1.8047 6.0264 5.1562 2.1914 3.3193 2.1914 7.3799h-8.1211q0-3.6738-2.3203-5.7363-2.2881-2.0947-6.5742-2.0947-3.9961 0-6.2197 1.708-2.1914 1.708-2.1914 4.7695 0 2.5781 2.3848 4.3184 2.3848 1.708 7.8633 3.3516 5.4785 1.6113 8.7979 3.7061 3.3193 2.0625 4.8662 4.7695 1.5469 2.6748 1.5469 6.2842 0 5.8652-4.5117 9.3457-4.4795 3.4482-12.182 3.4482-5.0918 0-9.3779-1.8691-4.2539-1.9014-6.6387-5.2207-2.3525-3.3193-2.3525-7.7344h8.1533q0 3.9961 2.6426 6.1875 2.6426 2.1914 7.5732 2.1914 4.2539 0 6.3809-1.708 2.1592-1.7402 2.1592-4.5762zm20.461-5.3496v17.435h-8.1533v-46.922h17.95q7.8633 0 12.472 4.0928 4.6406 4.0928 4.6406 10.828 0 6.8965-4.5439 10.731-4.5117 3.835-12.665 3.835zm0-6.542h9.7969q4.3506 0 6.6387-2.0303 2.2881-2.0625 2.2881-5.9297 0-3.8027-2.3203-6.0586-2.3203-2.2881-6.3809-2.3525h-10.022z" fill="#5e5e5e" aria-label="SP"/>
</svg>
