<svg width="100" height="100" viewBox="0 0 100 100" fill="none" xmlns="http://www.w3.org/2000/svg">
<path d="M83.6772 50C83.6772 68.5993 68.5994 83.6771 50 83.6771C31.4007 83.6771 16.3229 68.5993 16.3229 50C16.3229 31.4006 31.4007 16.3228 50 16.3228C68.5994 16.3228 83.6772 31.4006 83.6772 50Z" fill="#C4C4C4" stroke="black" stroke-width="4"/>
<path d="M83.5552 50.2295C83.5552 51.5641 82.6873 52.8856 81.001 54.1186C79.3147 55.3516 76.843 56.4719 73.7271 57.4156C70.6112 58.3593 66.9122 59.1079 62.8411 59.6186C58.77 60.1293 54.4066 60.3922 50.0001 60.3922C45.5935 60.3922 41.2302 60.1293 37.1591 59.6186C33.088 59.1079 29.3889 58.3593 26.273 57.4156C23.1571 56.4719 20.6855 55.3516 18.9992 54.1186C17.3129 52.8856 16.4449 51.5641 16.4449 50.2295" stroke="black" stroke-width="4"/>
</svg>
