<svg width="100" height="100" viewBox="0 0 100 100" fill="none" xmlns="http://www.w3.org/2000/svg">
<path d="M87.5 27L80 52.5L89 78.5H63V27H87.5Z" fill="#9D9D9C"/>
<path d="M53 79H48V84H53V79Z" fill="black"/>
<path d="M53 71H48V75H53V71Z" fill="black"/>
<path d="M53 61H48V66H53V61Z" fill="black"/>
<path d="M53 53H48V57H53V53Z" fill="black"/>
<path d="M53 43H48V48H53V43Z" fill="black"/>
<path d="M53 34H48V39H53V34Z" fill="black"/>
<path d="M53 25H48V30H53V25Z" fill="black"/>
<path d="M53 16H48V21H53V16Z" fill="black"/>
<path d="M38 27L38.5 78L13.5 77L20.5 52L12.5 27.5L38 27Z" fill="#9D9D9C"/>
<path d="M14.2877 28.4358L21.9726 52.3891L14.2877 76.5642H37.5753V28.4358H14.2877ZM42 24V81H8L17.0822 52.3891L8 24H42Z" fill="black"/>
<path d="M63.6259 76.5642H86.7551L78.8912 52.3891L86.5238 28.214H63.3946V76.5642H63.6259ZM59 81V24H93L83.7483 52.3891L92.7687 81H59Z" fill="black"/>
</svg>
