<svg width="100" height="100" viewBox="0 0 100 100" fill="none" xmlns="http://www.w3.org/2000/svg">
<path d="M63 46C67.3243 46 71.973 46.8784 75 50C78.027 53.1216 80.5 59.2635 80.5 63.5C80.5 67.9595 77.2703 71.973 74.2432 75.0946C71.2162 78.2162 67.1081 80 63 80C58.6757 80 54.7838 78.2162 51.7568 75.0946C48.7297 71.973 46.5 67.7365 46.5 63.5C46.5 59.0406 46.973 54.1216 50 51C52.8108 47.8784 58.6757 46 63 46Z" fill="#9D9D9C"/>
<path d="M46.796 63.1473C46.796 67.5666 48.5637 71.5439 51.6572 74.6374C54.7507 77.7309 58.949 79.4986 63.1473 79.4986C67.5666 79.4986 71.5439 77.7309 74.6374 74.6374C77.7309 71.5439 79.4986 67.3456 79.4986 63.1473C79.4986 58.728 77.7309 54.7507 74.6374 51.6572C71.5439 48.5637 67.3456 46.796 63.1473 46.796C58.728 46.796 54.7507 48.5637 51.6572 51.6572C48.5637 54.7507 46.796 58.728 46.796 63.1473ZM63.1473 83.9178C57.8442 83.9178 52.5411 81.9292 48.5637 77.7309C43.9235 73.0906 41.9348 66.4617 42.5977 60.4957L14.0935 89L11 85.9065L85.9065 11L89 14.0935L60.4957 42.5977C66.6827 41.7139 73.0906 43.7025 77.7309 48.5637C85.9065 56.7394 85.9065 69.7762 77.7309 77.9518C73.7535 81.9292 68.4504 83.9178 63.1473 83.9178Z" fill="black"/>
</svg>
