<svg width="100" height="100" viewBox="0 0 100 100" fill="none" xmlns="http://www.w3.org/2000/svg">
<path d="M79 64.4231L76.3077 69L72 66.5769L74.6923 62L79 64.4231Z" fill="black"/>
<path d="M82 30.5L50.1312 49L21 30.5L50.1312 12.5L82 30.5Z" fill="#9D9D9C"/>
<path d="M71 59.3333L68.3077 64L64 61.4074L66.6923 57L71 59.3333Z" fill="black"/>
<path d="M62 54.5926L59.4074 59L55 56.6667L57.5926 52L62 54.5926Z" fill="black"/>
<path d="M42.3077 52L45 56.6667L40.6923 59L38 54.5926L42.3077 52Z" fill="black"/>
<path d="M29.8373 59.2441L32.4551 63.7733L36.7579 61.2865L34.1401 56.7572L29.8373 59.2441Z" fill="black"/>
<path d="M25.3077 62L28 66.5769L23.6923 69L21 64.4231L25.3077 62Z" fill="black"/>
<path d="M87 29.25V71.75L50.3701 93L14 72.0123V29.25L50.6299 8L87 29.25ZM81.8043 68.8642V35.5463L52.968 52.3364V85.9167L81.8043 68.8642ZM50.6299 47.6142L79.4662 30.8241L50.6299 14.034L21.7936 30.8241L50.6299 47.6142ZM48.032 85.6543V52.0741L19.1957 35.5463V69.1265L48.032 85.6543Z" fill="black"/>
</svg>
