<svg width="100" height="100" viewBox="0 0 100 100" fill="none" xmlns="http://www.w3.org/2000/svg">
<path d="M11.7271 44.9991V11.5911H44.4269V44.9991H11.7271Z" fill="#C4C4C4" stroke="black" stroke-width="5"/>
<path d="M54.225 87.1429V53.7348H86.9248V87.1429H54.225Z" fill="#C4C4C4" stroke="black" stroke-width="5"/>
<path d="M70.7374 34.5093C71.9639 38.3422 73.9238 43.5731 73.9238 43.5731L65.0733 39.8339L67.9054 37.1716L70.7374 34.5093Z" fill="black"/>
<path d="M53.8624 22.2349L67.9054 37.1716M67.9054 37.1716L70.7374 34.5093C71.9639 38.3422 73.9238 43.5731 73.9238 43.5731L65.0733 39.8339L67.9054 37.1716Z" stroke="black" stroke-width="3"/>
<path d="M40.0838 64.9367C41.3102 68.7697 43.2701 74.0005 43.2701 74.0005L34.4196 70.2613L37.2517 67.599L40.0838 64.9367Z" fill="black"/>
<path d="M23.2087 52.6623L37.2517 67.599M37.2517 67.599L40.0838 64.9367C41.3102 68.7697 43.2701 74.0005 43.2701 74.0005L34.4196 70.2613L37.2517 67.599Z" stroke="black" stroke-width="3"/>
</svg>
