<svg width="100" height="100" viewBox="0 0 100 100" fill="none" xmlns="http://www.w3.org/2000/svg">
<path d="M47.3125 26V56.9375C47.2917 61.2292 45.9375 64.7396 43.25 67.4688C40.5833 70.1979 36.9583 71.7292 32.375 72.0625L30.7812 72.125C25.8021 72.125 21.8333 70.7812 18.875 68.0938C15.9167 65.4062 14.4167 61.7083 14.375 57V26H20.3125V56.8125C20.3125 60.1042 21.2188 62.6667 23.0312 64.5C24.8438 66.3125 27.4271 67.2188 30.7812 67.2188C34.1771 67.2188 36.7708 66.3125 38.5625 64.5C40.375 62.6875 41.2812 60.1354 41.2812 56.8438V26H47.3125ZM70.1875 51.2188C65.0417 49.7396 61.2917 47.9271 58.9375 45.7812C56.6042 43.6146 55.4375 40.9479 55.4375 37.7812C55.4375 34.1979 56.8646 31.2396 59.7188 28.9062C62.5938 26.5521 66.3229 25.375 70.9062 25.375C74.0312 25.375 76.8125 25.9792 79.25 27.1875C81.7083 28.3958 83.6042 30.0625 84.9375 32.1875C86.2917 34.3125 86.9688 36.6354 86.9688 39.1562H80.9375C80.9375 36.4062 80.0625 34.25 78.3125 32.6875C76.5625 31.1042 74.0938 30.3125 70.9062 30.3125C67.9479 30.3125 65.6354 30.9688 63.9688 32.2812C62.3229 33.5729 61.5 35.375 61.5 37.6875C61.5 39.5417 62.2812 41.1146 63.8438 42.4062C65.4271 43.6771 68.1042 44.8438 71.875 45.9062C75.6667 46.9688 78.625 48.1458 80.75 49.4375C82.8958 50.7083 84.4792 52.1979 85.5 53.9062C86.5417 55.6146 87.0625 57.625 87.0625 59.9375C87.0625 63.625 85.625 66.5833 82.75 68.8125C79.875 71.0208 76.0312 72.125 71.2188 72.125C68.0938 72.125 65.1771 71.5312 62.4688 70.3438C59.7604 69.1354 57.6667 67.4896 56.1875 65.4062C54.7292 63.3229 54 60.9583 54 58.3125H60.0312C60.0312 61.0625 61.0417 63.2396 63.0625 64.8438C65.1042 66.4271 67.8229 67.2188 71.2188 67.2188C74.3854 67.2188 76.8125 66.5729 78.5 65.2812C80.1875 63.9896 81.0312 62.2292 81.0312 60C81.0312 57.7708 80.25 56.0521 78.6875 54.8438C77.125 53.6146 74.2917 52.4062 70.1875 51.2188Z" fill="#5E5E5E"/>
<path d="M47.3125 26H48.3125V25H47.3125V26ZM47.3125 56.9375L48.3125 56.9424V56.9375H47.3125ZM43.25 67.4688L42.5375 66.7671L42.5348 66.7699L43.25 67.4688ZM32.375 72.0625L32.4142 73.0617L32.4309 73.0611L32.4475 73.0599L32.375 72.0625ZM30.7812 72.125V73.125H30.8009L30.8204 73.1242L30.7812 72.125ZM14.375 57L13.375 57L13.375 57.0088L14.375 57ZM14.375 26V25H13.375V26H14.375ZM20.3125 26H21.3125V25H20.3125V26ZM23.0312 64.5L22.3201 65.2031L22.3241 65.2071L23.0312 64.5ZM38.5625 64.5L37.8554 63.7929L37.8513 63.797L38.5625 64.5ZM41.2812 26V25H40.2812V26H41.2812ZM46.3125 26V56.9375H48.3125V26H46.3125ZM46.3125 56.9326C46.2928 60.9977 45.0193 64.2468 42.5375 66.7671L43.9625 68.1704C46.8557 65.2323 48.2906 61.4607 48.3125 56.9424L46.3125 56.9326ZM42.5348 66.7699C40.0721 69.2903 36.6945 70.7457 32.3025 71.0651L32.4475 73.0599C37.2221 72.7126 41.0946 71.1055 43.9652 68.1676L42.5348 66.7699ZM32.3358 71.0633L30.7421 71.1258L30.8204 73.1242L32.4142 73.0617L32.3358 71.0633ZM30.7812 71.125C25.987 71.125 22.2794 69.8355 19.5474 67.3536L18.2026 68.8339C21.3872 71.727 25.6171 73.125 30.7812 73.125V71.125ZM19.5474 67.3536C16.8323 64.8871 15.4146 61.4748 15.375 56.9912L13.375 57.0088C13.4187 61.9418 15.001 65.9254 18.2026 68.8339L19.5474 67.3536ZM15.375 57V26H13.375V57H15.375ZM14.375 27H20.3125V25H14.375V27ZM19.3125 26V56.8125H21.3125V26H19.3125ZM19.3125 56.8125C19.3125 60.2911 20.2751 63.1345 22.3201 65.2031L23.7424 63.7969C22.1624 62.1988 21.3125 59.9172 21.3125 56.8125H19.3125ZM22.3241 65.2071C24.3768 67.2598 27.247 68.2188 30.7812 68.2188V66.2188C27.6072 66.2188 25.3107 65.3652 23.7384 63.7929L22.3241 65.2071ZM30.7812 68.2188C34.3523 68.2188 37.2381 67.2623 39.2737 65.203L37.8513 63.797C36.3036 65.3627 34.0018 66.2188 30.7812 66.2188V68.2188ZM39.2696 65.2071C41.3189 63.1578 42.2812 60.3217 42.2812 56.8438H40.2812C40.2812 59.9491 39.4311 62.2172 37.8554 63.7929L39.2696 65.2071ZM42.2812 56.8438V26H40.2812V56.8438H42.2812ZM41.2812 27H47.3125V25H41.2812V27ZM70.1875 51.2188L70.4654 50.2582L70.4638 50.2577L70.1875 51.2188ZM58.9375 45.7812L58.257 46.5141L58.2639 46.5203L58.9375 45.7812ZM59.7188 28.9062L60.3517 29.6805L60.3523 29.68L59.7188 28.9062ZM79.25 27.1875L78.8058 28.0835L78.8089 28.0849L79.25 27.1875ZM84.9375 32.1875L84.0904 32.719L84.0942 32.7249L84.9375 32.1875ZM86.9688 39.1562V40.1562H87.9688V39.1562H86.9688ZM80.9375 39.1562H79.9375V40.1562H80.9375V39.1562ZM78.3125 32.6875L77.6416 33.4291L77.6465 33.4334L78.3125 32.6875ZM63.9688 32.2812L64.5861 33.0679L64.5874 33.0669L63.9688 32.2812ZM63.8438 42.4062L63.2066 43.177L63.2122 43.1816L63.2178 43.1861L63.8438 42.4062ZM71.875 45.9062L71.6038 46.8688L71.6052 46.8692L71.875 45.9062ZM80.75 49.4375L80.2306 50.2921L80.2404 50.2979L80.75 49.4375ZM85.5 53.9062L84.6416 54.4192L84.6462 54.4269L85.5 53.9062ZM82.75 68.8125L83.3592 69.6056L83.3628 69.6028L82.75 68.8125ZM62.4688 70.3438L62.0613 71.257L62.0672 71.2596L62.4688 70.3438ZM56.1875 65.4062L55.3682 65.9797L55.3721 65.9852L56.1875 65.4062ZM54 58.3125V57.3125H53V58.3125H54ZM60.0312 58.3125H61.0312V57.3125H60.0312V58.3125ZM63.0625 64.8438L62.4407 65.627L62.4497 65.634L63.0625 64.8438ZM78.6875 54.8438L78.0692 55.6297L78.0758 55.6348L78.6875 54.8438ZM70.4638 50.2577C65.3778 48.7957 61.7993 47.0367 59.6111 45.0422L58.2639 46.5203C60.784 48.8174 64.7055 50.6834 69.9112 52.1798L70.4638 50.2577ZM59.618 45.0485C57.4871 43.0698 56.4375 40.6681 56.4375 37.7812H54.4375C54.4375 41.2277 55.7212 44.1594 58.257 46.514L59.618 45.0485ZM56.4375 37.7812C56.4375 34.5079 57.7221 31.8302 60.3517 29.6805L59.0858 28.132C56.0071 30.649 54.4375 33.888 54.4375 37.7812H56.4375ZM60.3523 29.68C63.0099 27.5038 66.4983 26.375 70.9062 26.375V24.375C66.1475 24.375 62.1776 25.6003 59.0852 28.1325L60.3523 29.68ZM70.9062 26.375C73.9001 26.375 76.5256 26.9531 78.8059 28.0835L79.6941 26.2915C77.0994 25.0053 74.1624 24.375 70.9062 24.375V26.375ZM78.8089 28.0849C81.1164 29.2192 82.8648 30.7656 84.0904 32.719L85.7846 31.656C84.3435 29.3594 82.3003 27.5725 79.6911 26.2901L78.8089 28.0849ZM84.0942 32.7249C85.346 34.6893 85.9688 36.8257 85.9688 39.1562H87.9688C87.9688 36.4451 87.2374 33.9357 85.7808 31.6501L84.0942 32.7249ZM86.9688 38.1562H80.9375V40.1562H86.9688V38.1562ZM81.9375 39.1562C81.9375 36.1753 80.9781 33.7269 78.9785 31.9416L77.6465 33.4334C79.1469 34.7731 79.9375 36.6372 79.9375 39.1562H81.9375ZM78.9834 31.946C76.9933 30.1454 74.2536 29.3125 70.9062 29.3125V31.3125C73.9339 31.3125 76.1317 32.063 77.6416 33.429L78.9834 31.946ZM70.9062 29.3125C67.8105 29.3125 65.251 29.9986 63.3501 31.4956L64.5874 33.0669C66.0198 31.9389 68.0853 31.3125 70.9062 31.3125V29.3125ZM63.3514 31.4946C61.4363 32.9975 60.5 35.1049 60.5 37.6875H62.5C62.5 35.6451 63.2095 34.1483 64.5861 33.0679L63.3514 31.4946ZM60.5 37.6875C60.5 39.8701 61.4387 41.7155 63.2066 43.177L64.4809 41.6355C63.1238 40.5137 62.5 39.2133 62.5 37.6875H60.5ZM63.2178 43.1861C64.9635 44.5873 67.8015 45.7974 71.6038 46.8688L72.1462 44.9437C68.4069 43.8901 65.8907 42.7669 64.4697 41.6264L63.2178 43.1861ZM71.6052 46.8692C75.3538 47.9196 78.2151 49.0669 80.2306 50.292L81.2694 48.583C79.0349 47.2248 75.9795 46.0179 72.1448 44.9433L71.6052 46.8692ZM80.2404 50.2979C82.2785 51.5049 83.7253 52.8858 84.6416 54.4192L86.3584 53.3933C85.2331 51.5101 83.5132 49.9117 81.2596 48.5771L80.2404 50.2979ZM84.6462 54.4269C85.5782 55.9553 86.0625 57.7796 86.0625 59.9375H88.0625C88.0625 57.4704 87.5052 55.2739 86.3538 53.3856L84.6462 54.4269ZM86.0625 59.9375C86.0625 63.3208 84.7641 65.9855 82.1372 68.0222L83.3628 69.6028C86.4859 67.1812 88.0625 63.9292 88.0625 59.9375H86.0625ZM82.1408 68.0194C79.4901 70.0555 75.8829 71.125 71.2188 71.125V73.125C76.1796 73.125 80.2599 71.9862 83.3592 69.6056L82.1408 68.0194ZM71.2188 71.125C68.224 71.125 65.4449 70.5568 62.8703 69.4279L62.0672 71.2596C64.9092 72.5057 67.9635 73.125 71.2188 73.125V71.125ZM62.8762 69.4305C60.3047 68.2832 58.3628 66.7427 57.0029 64.8273L55.3721 65.9852C56.9706 68.2365 59.2161 69.9876 62.0613 71.257L62.8762 69.4305ZM57.0067 64.8328C55.671 62.9246 55 60.762 55 58.3125H53C53 61.1547 53.7873 63.7212 55.3683 65.9797L57.0067 64.8328ZM54 59.3125H60.0312V57.3125H54V59.3125ZM59.0312 58.3125C59.0312 61.3445 60.1634 63.8192 62.4408 65.627L63.6842 64.0605C61.9199 62.66 61.0312 60.7805 61.0312 58.3125H59.0312ZM62.4497 65.634C64.7149 67.3907 67.6709 68.2188 71.2188 68.2188V66.2188C67.9749 66.2188 65.4934 65.4635 63.6753 64.0535L62.4497 65.634ZM71.2188 68.2188C74.5023 68.2188 77.1788 67.5519 79.1078 66.0753L77.8922 64.4872C76.4462 65.5939 74.2686 66.2188 71.2188 66.2188V68.2188ZM79.1078 66.0753C81.0563 64.5839 82.0312 62.5227 82.0312 60H80.0312C80.0312 61.9356 79.3187 63.3953 77.8922 64.4872L79.1078 66.0753ZM82.0312 60C82.0312 57.5066 81.1404 55.4765 79.2992 54.0527L78.0758 55.6348C79.3596 56.6276 80.0312 58.0351 80.0312 60H82.0312ZM79.3058 54.0578C77.5802 52.7003 74.5838 51.4498 70.4654 50.2582L69.9096 52.1793C73.9995 53.3627 76.6698 54.5288 78.0692 55.6297L79.3058 54.0578Z" fill="#5E5E5E"/>
</svg>
