<svg width="100" height="100" viewBox="0 0 100 100" fill="none" xmlns="http://www.w3.org/2000/svg">
<rect x="18.5" y="18.5" width="64" height="64" fill="#C4C4C4" stroke="black" stroke-width="5"/>
<path d="M48.6562 36.4062V53.2637C48.6562 56.0645 47.7773 58.2793 46.0195 59.9082C44.2734 61.5371 41.8828 62.3516 38.8477 62.3516C35.8594 62.3516 33.4863 61.5605 31.7285 59.9785C29.9707 58.3965 29.0742 56.2227 29.0391 53.457V36.4062H34.3125V53.2988C34.3125 54.9746 34.7109 56.1992 35.5078 56.9727C36.3164 57.7344 37.4297 58.1152 38.8477 58.1152C41.8125 58.1152 43.3184 56.5566 43.3652 53.4395V36.4062H48.6562ZM66.252 55.2852C66.252 54.2891 65.9004 53.5273 65.1973 53C64.4941 52.4609 63.2285 51.8984 61.4004 51.3125C59.5723 50.7148 58.125 50.1289 57.0586 49.5547C54.1523 47.9844 52.6992 45.8691 52.6992 43.209C52.6992 41.8262 53.0859 40.5957 53.8594 39.5176C54.6445 38.4277 55.7637 37.5781 57.2168 36.9688C58.6816 36.3594 60.3223 36.0547 62.1387 36.0547C63.9668 36.0547 65.5957 36.3887 67.0254 37.0566C68.4551 37.7129 69.5625 38.6445 70.3477 39.8516C71.1445 41.0586 71.543 42.4297 71.543 43.9648H66.2695C66.2695 42.793 65.9004 41.8848 65.1621 41.2402C64.4238 40.584 63.3867 40.2559 62.0508 40.2559C60.7617 40.2559 59.7598 40.5312 59.0449 41.082C58.3301 41.6211 57.9727 42.3359 57.9727 43.2266C57.9727 44.0586 58.3887 44.7559 59.2207 45.3184C60.0645 45.8809 61.3008 46.4082 62.9297 46.9004C65.9297 47.8027 68.1152 48.9219 69.4863 50.2578C70.8574 51.5938 71.543 53.2578 71.543 55.25C71.543 57.4648 70.7051 59.2051 69.0293 60.4707C67.3535 61.7246 65.0977 62.3516 62.2617 62.3516C60.293 62.3516 58.5 61.9941 56.8828 61.2793C55.2656 60.5527 54.0293 59.5625 53.1738 58.3086C52.3301 57.0547 51.9082 55.6016 51.9082 53.9492H57.1992C57.1992 56.7734 58.8867 58.1855 62.2617 58.1855C63.5156 58.1855 64.4941 57.9336 65.1973 57.4297C65.9004 56.9141 66.252 56.1992 66.252 55.2852Z" fill="black"/>
</svg>
