<svg width="100" height="100" viewBox="0 0 100 100" fill="none" xmlns="http://www.w3.org/2000/svg">
<path d="M50.0022 18.8763L56.8295 30.8519H50.0029H42.9422L50.0022 18.8763Z" fill="black"/>
<path d="M50.0044 58.7949L50.0029 30.8519M50.0029 30.8519H56.8295L50.0022 18.8763L42.9422 30.8519H50.0029Z" stroke="black" stroke-width="5"/>
<path d="M13.575 80.0459L20.5325 68.1455L23.9458 74.0575L27.4762 80.1723L13.575 80.0459Z" fill="black"/>
<path d="M48.1444 60.0847L23.9458 74.0575M23.9458 74.0575L20.5325 68.1455L13.575 80.0459L27.4762 80.1723L23.9458 74.0575Z" stroke="black" stroke-width="5"/>
<path d="M86.5163 80.2449L72.7315 80.1697L76.1448 74.2577L79.6751 68.1429L86.5163 80.2449Z" fill="black"/>
<path d="M51.9447 60.2875L76.1448 74.2577M76.1448 74.2577L72.7315 80.1697L86.5163 80.2449L79.6751 68.1429L76.1448 74.2577Z" stroke="black" stroke-width="5"/>
<circle cx="50.0032" cy="58.4568" r="9.47496" fill="black"/>
</svg>
