<svg width="100" height="100" viewBox="0 0 100 100" fill="none" xmlns="http://www.w3.org/2000/svg">
<path d="M54.59 49.2615V54.9931H48.7075H42.8251V49.2615V43.5299H48.7075H54.59V49.2615Z" fill="#C4C4C4"/>
<path d="M42.8251 43.5299L34.0767 35.0832M42.8251 43.5299V49.2615M42.8251 43.5299H48.7075M42.8251 54.9931L34.0767 64.1437M42.8251 54.9931V49.2615M42.8251 54.9931H48.7075M54.59 54.9931L63.0366 64.1437M54.59 54.9931V49.2615M54.59 54.9931H48.7075M54.59 43.5299L63.0366 35.0832M54.59 43.5299V49.2615M54.59 43.5299H48.7075M54.59 49.2615H79.1254M42.8251 49.2615H17.9879M48.7075 43.5299L48.7075 18.9944M48.7075 54.9931L48.7075 79.8303" stroke="black" stroke-width="4"/>
</svg>
