<svg width="100" height="100" viewBox="0 0 100 100" fill="none" xmlns="http://www.w3.org/2000/svg">
<g clip-path="url(#clip0)">
<path d="M23.3951 -18.3953C26.7929 -27.63 31.0227 -40.7314 31.0227 -40.7314L38.6065 -18.3796L31.0008 -18.3874L23.3951 -18.3953Z" fill="#C4C4C4"/>
<path d="M30.9497 33.7484L31.0008 -18.3874M31.0008 -18.3874L23.3951 -18.3953C26.7929 -27.63 31.0227 -40.7314 31.0227 -40.7314L38.6065 -18.3796L31.0008 -18.3874Z" stroke="#C4C4C4" stroke-width="5"/>
<path d="M-19.6068 58.8999C-29.4464 58.8234 -43.2064 59.2709 -43.2064 59.2709L-24.7335 44.5785L-22.1701 51.7392L-19.6068 58.8999Z" fill="#C4C4C4"/>
<path d="M26.9146 34.1651L-22.1701 51.7392M-22.1701 51.7392L-19.6068 58.8999C-29.4464 58.8234 -43.2064 59.2709 -43.2064 59.2709L-24.7335 44.5785L-22.1701 51.7392Z" stroke="#C4C4C4" stroke-width="5"/>
<path d="M71.7906 62.6511C76.2149 71.4403 82.8953 83.4781 82.8953 83.4781L61.3896 73.7508L66.5901 68.201L71.7906 62.6511Z" fill="black"/>
<path d="M28.5445 32.5543L66.5901 68.201M66.5901 68.201L71.7906 62.6511C76.2149 71.4403 82.8953 83.4781 82.8953 83.4781L61.3896 73.7508L66.5901 68.201Z" stroke="black" stroke-width="5"/>
<circle cx="30.9862" cy="33.7406" r="14.6466" transform="rotate(10.304 30.9862 33.7406)" fill="#C4C4C4"/>
</g>
<defs>
<clipPath id="clip0">
<rect width="100" height="100" fill="white"/>
</clipPath>
</defs>
</svg>
